<svg width="16" height="16" viewBox="0 0 16 16" fill="none" xmlns="http://www.w3.org/2000/svg">
<g clip-path="url(#clip0_332_1784)">
<path d="M7.96399 15.8301C9.04473 15.8301 10.0604 15.625 11.0109 15.2148C11.9614 14.8047 12.7996 14.235 13.5255 13.5059C14.2514 12.7767 14.8211 11.9368 15.2345 10.9863C15.6479 10.0358 15.8546 9.02344 15.8546 7.94922C15.8546 6.875 15.6479 5.86262 15.2345 4.91211C14.8211 3.9616 14.2498 3.12175 13.5206 2.39258C12.7915 1.6634 11.9516 1.09375 11.0011 0.683594C10.0506 0.273438 9.03496 0.0683594 7.95422 0.0683594C6.88003 0.0683594 5.86765 0.273438 4.91714 0.683594C3.96663 1.09375 3.13003 1.6634 2.40735 2.39258C1.68469 3.12175 1.11665 3.9616 0.703247 4.91211C0.289844 5.86262 0.0831299 6.875 0.0831299 7.94922C0.0831299 9.02344 0.289844 10.0358 0.703247 10.9863C1.11665 11.9368 1.68633 12.7767 2.41223 13.5059C3.13816 14.235 3.97637 14.8047 4.92688 15.2148C5.87739 15.625 6.88977 15.8301 7.96399 15.8301ZM7.10464 11.7188C6.95488 11.7188 6.81653 11.6846 6.6896 11.6162C6.56262 11.5479 6.44055 11.4388 6.32336 11.2891L4.50698 9.01367C4.37024 8.83789 4.30188 8.6491 4.30188 8.44727C4.30188 8.25195 4.36863 8.08269 4.5021 7.93945C4.63555 7.79622 4.80317 7.72461 5.005 7.72461C5.12871 7.72461 5.24263 7.75066 5.3468 7.80273C5.45098 7.85481 5.55513 7.95247 5.6593 8.0957L7.06555 9.98047L10.1808 4.93164C10.3436 4.66472 10.5519 4.53125 10.8058 4.53125C10.9946 4.53125 11.1655 4.58984 11.3185 4.70703C11.4715 4.82422 11.548 4.98699 11.548 5.19531C11.548 5.29297 11.5236 5.39226 11.4747 5.49316C11.4259 5.59407 11.3754 5.69011 11.3234 5.78125L7.83706 11.2891C7.66125 11.5755 7.41711 11.7188 7.10464 11.7188Z" fill="#00738D"/>
</g>
<defs>
<clipPath id="clip0_332_1784">
<rect width="16" height="16" fill="white"/>
</clipPath>
</defs>
</svg>
