<svg width="40" height="40" viewBox="0 0 40 40" fill="none" xmlns="http://www.w3.org/2000/svg">
<g clip-path="url(#clip0_281_4)">
<path fill-rule="evenodd" clip-rule="evenodd" d="M18.8617 0.0214604C17.9136 0.0798773 16.7837 0.229505 16.0091 0.399199C15.8014 0.4447 15.556 0.495421 15.4637 0.511923C15.0266 0.590092 13.5606 1.03887 12.9467 1.28246C12.7736 1.35113 12.6018 1.41592 12.5648 1.42643C12.5278 1.43695 12.3631 1.50657 12.1988 1.58111C12.0346 1.65567 11.8917 1.71667 11.8814 1.71667C11.8643 1.71667 11.6379 1.82327 11.1847 2.04471C10.5925 2.33409 9.8266 2.76418 9.3548 3.07233C9.22511 3.15704 9.11354 3.22636 9.10689 3.22636C9.10024 3.22636 9.0176 3.28086 8.92321 3.34747C8.82882 3.41409 8.66928 3.52495 8.56868 3.59385C7.62792 4.23803 6.63624 5.07656 5.75213 5.97546C5.30708 6.42795 5.16952 6.57785 4.7369 7.08185C4.49097 7.36836 4.09237 7.87067 3.89581 8.14175C3.50081 8.68654 3.1682 9.17916 2.9532 9.53782C2.88065 9.65887 2.78865 9.80979 2.74878 9.87322C2.49491 10.2771 1.8951 11.447 1.66834 11.9805C1.42842 12.5451 1.16252 13.222 1.09999 13.4273C1.08241 13.485 1.01586 13.6879 0.952067 13.8782C0.81728 14.2802 0.573567 15.1425 0.529162 15.3745C0.512319 15.4625 0.475235 15.6359 0.44675 15.7599C0.375665 16.0694 0.275046 16.5818 0.24805 16.7717C0.0442956 18.2056 0.00488281 18.729 0.00488281 20.0008C0.00488281 21.1799 0.0296337 21.5719 0.173651 22.6742C0.268145 23.3975 0.297007 23.5643 0.444296 24.2388C0.563667 24.7855 0.598926 24.9291 0.69986 25.2797C0.75213 25.4612 0.816525 25.69 0.842953 25.788C0.911899 26.0437 1.1097 26.62 1.27473 27.0461C1.35291 27.2479 1.4237 27.4361 1.43205 27.4644C1.44038 27.4927 1.49428 27.6201 1.55184 27.7475C1.6094 27.8749 1.68744 28.0546 1.72528 28.1469C1.89265 28.555 2.54209 29.8091 2.77313 30.1703C2.82108 30.2453 2.91092 30.3915 2.97279 30.4953C3.20661 30.8876 3.7506 31.6789 4.08478 32.1128C4.38307 32.5002 4.62248 32.7898 5.08092 33.3181C5.37804 33.6605 6.19981 34.4856 6.59115 34.8346C7.23826 35.4115 7.87608 35.9236 8.44254 36.3208C8.87048 36.6209 9.09623 36.7752 9.10741 36.7752C9.11377 36.7752 9.22511 36.8445 9.3548 36.9292C9.96088 37.3251 10.9956 37.8862 11.7091 38.206C12.1847 38.4191 12.5539 38.5785 12.5721 38.5785C12.5833 38.5785 12.7288 38.633 12.8954 38.6997C13.5489 38.9613 14.8836 39.3686 15.5162 39.4995C15.6834 39.5342 16.0232 39.6045 16.2713 39.6558C16.5193 39.707 16.7789 39.7551 16.8481 39.7625C16.9173 39.7699 17.1438 39.799 17.3515 39.8271C18.3975 39.9686 19.1486 40.0128 20.2628 39.9983C21.1973 39.9861 21.6146 39.9583 22.4171 39.8548C22.6882 39.8199 22.9907 39.7825 23.0895 39.7717C23.1882 39.761 23.4997 39.7047 23.7816 39.6465C24.0636 39.5883 24.4076 39.5174 24.5461 39.4889C25.1166 39.3714 26.493 38.9484 27.1143 38.6997C27.281 38.633 27.4265 38.5785 27.4377 38.5785C27.4958 38.5785 28.8182 37.9707 29.1335 37.7991C29.257 37.7318 29.3642 37.6768 29.3716 37.6768C29.4092 37.6768 30.3461 37.1306 30.6543 36.929C30.7836 36.8444 30.8941 36.7752 30.8997 36.7752C30.9095 36.7752 31.1285 36.6262 31.5683 36.3204C31.6811 36.2419 31.8463 36.1206 31.9353 36.0509C32.0244 35.9812 32.1302 35.901 32.1706 35.8728C32.3808 35.7255 32.7818 35.3931 33.3242 34.9165C33.7341 34.5563 34.6485 33.6479 34.8998 33.3511C34.9735 33.2642 35.1145 33.1003 35.2131 32.9869C35.4792 32.6813 35.9136 32.1379 36.114 31.8602C36.5402 31.2694 36.8806 30.7631 37.0924 30.405C37.1449 30.3164 37.2206 30.1919 37.2606 30.1284C37.3989 29.9094 37.7985 29.1709 37.9471 28.8598C37.9857 28.7791 38.0619 28.6234 38.1165 28.5138C38.2063 28.3335 38.3646 27.9737 38.5268 27.5807C38.75 27.0402 39.0731 26.1354 39.1669 25.788C39.1934 25.69 39.2677 25.426 39.3321 25.2015C39.3965 24.9769 39.4629 24.7208 39.4797 24.6323C39.4965 24.5438 39.5338 24.369 39.5625 24.2438C39.634 23.9325 39.7347 23.4203 39.7617 23.2299C39.9655 21.796 40.0049 21.2726 40.0049 20.0008C40.0049 18.729 39.9655 18.2056 39.7617 16.7717C39.7347 16.5818 39.6341 16.0694 39.563 15.7599C39.5345 15.6359 39.4975 15.4625 39.4806 15.3745C39.4362 15.1425 39.1925 14.2802 39.0577 13.8782C38.9939 13.6879 38.9274 13.485 38.9098 13.4273C38.8922 13.3697 38.8138 13.1574 38.7354 12.9556C38.657 12.7537 38.5866 12.5672 38.5789 12.541C38.5712 12.5148 38.501 12.3496 38.4227 12.174C38.3445 11.9984 38.2731 11.8311 38.264 11.8023C38.209 11.6279 37.4676 10.2019 37.261 9.87322C37.2211 9.80979 37.1291 9.65887 37.0566 9.53782C36.8366 9.17081 36.533 8.72132 36.114 8.14204C35.8915 7.8345 35.4143 7.23781 35.178 6.97171C35.0871 6.86932 34.9578 6.72011 34.8905 6.6401C34.6766 6.38553 33.7881 5.49625 33.4186 5.16691C32.7706 4.58932 32.1333 4.07773 31.5672 3.68076C31.1393 3.38064 30.9135 3.22636 30.9024 3.22636C30.896 3.22636 30.7847 3.15704 30.655 3.07233C30.1724 2.75718 29.3621 2.30289 28.7831 2.02284C28.3924 1.8339 28.1731 1.73201 28.1223 1.71581C28.0935 1.7066 27.9452 1.64244 27.7927 1.57322C27.6403 1.50401 27.494 1.44125 27.4676 1.43372C27.4413 1.42622 27.2545 1.35599 27.0526 1.27768C26.3674 1.01185 25.1253 0.632154 24.5565 0.514712C23.0699 0.207698 22.2233 0.0869016 21.0807 0.0187976C20.6588 -0.0063431 19.2863 -0.00470762 18.8617 0.0214604ZM18.9876 0.230365C17.711 0.295701 16.3078 0.508442 15.1281 0.815498C14.4673 0.987499 14.3495 1.02153 13.8801 1.17582C12.7582 1.54458 11.4667 2.10107 10.5765 2.59927C10.4496 2.67029 10.308 2.748 10.2618 2.77194C10.2157 2.79589 10.0813 2.87492 9.96317 2.94753C9.84503 3.02016 9.74435 3.07959 9.73942 3.07959C9.72617 3.07959 9.15987 3.44411 8.9299 3.60066C7.24874 4.74522 5.76606 6.11475 4.53741 7.65791C4.03381 8.29041 3.42769 9.15226 3.09737 9.70548C2.87973 10.07 2.78412 10.2332 2.78412 10.2402C2.78412 10.245 2.75448 10.2988 2.71826 10.3598C2.58634 10.5821 2.27505 11.1848 2.09445 11.5675C1.07121 13.736 0.465502 16.0077 0.267935 18.4177C0.0339757 21.272 0.455518 24.291 1.45659 26.9307C1.80207 27.8418 2.27782 28.8703 2.67207 29.5586C2.7337 29.6662 2.78412 29.758 2.78412 29.7625C2.78412 29.767 2.89393 29.9526 3.02813 30.175C3.72021 31.3214 4.53898 32.4177 5.41267 33.3679C5.68436 33.6634 6.33548 34.3144 6.6331 34.5881C7.51916 35.403 8.7287 36.3137 9.70599 36.9017C9.72329 36.9121 9.84772 36.987 9.98251 37.0681C10.1173 37.1492 10.2314 37.2155 10.2362 37.2155C10.241 37.2155 10.3619 37.2818 10.5051 37.3628C11.1488 37.7271 12.2547 38.2357 13.0725 38.5434C13.4806 38.6969 14.2366 38.9483 14.5303 39.0282C15.9735 39.4205 16.9464 39.5995 18.2954 39.7208C21.1928 39.9814 24.2499 39.5614 26.9793 38.5276C27.7452 38.2374 28.8066 37.7513 29.4228 37.4082C29.544 37.3408 29.699 37.2545 29.7673 37.2165C29.8357 37.1784 29.9752 37.0966 30.0775 37.0346C30.1797 36.9727 30.2669 36.922 30.2713 36.922C30.2866 36.922 30.865 36.5456 31.1758 36.3334C33.1953 34.9543 34.9663 33.1816 36.3585 31.1453C36.5462 30.8708 36.8223 30.4475 36.9123 30.2961C37.1154 29.9547 37.1682 29.8647 37.2266 29.7598C37.2646 29.6915 37.3511 29.5365 37.4187 29.4154C37.4863 29.2944 37.6532 28.9688 37.7895 28.692C38.8341 26.5716 39.4722 24.3281 39.7099 21.9404C39.7805 21.231 39.7945 20.9112 39.7945 20.0008C39.7945 19.4423 39.7838 18.9288 39.7679 18.7218C39.6474 17.1569 39.4587 16.0713 39.0389 14.5282C38.9584 14.2323 38.7067 13.4766 38.5536 13.0709C38.2393 12.2383 37.7386 11.1498 37.373 10.5043C37.2919 10.3612 37.2257 10.2403 37.2257 10.2355C37.2257 10.2308 37.1596 10.119 37.0788 9.9871C36.9981 9.85521 36.932 9.74341 36.932 9.73865C36.932 9.7254 36.5732 9.17018 36.3924 8.90372C35.2855 7.2718 33.8834 5.7571 32.3521 4.53871C31.9584 4.22547 31.5583 3.9294 31.1758 3.66818C30.8584 3.45143 30.2865 3.07959 30.2706 3.07959C30.2658 3.07959 30.154 3.01354 30.0221 2.93281C29.8902 2.85208 29.7783 2.78603 29.7736 2.78603C29.7688 2.78603 29.6478 2.71963 29.5047 2.63848C28.8841 2.28649 27.7786 1.77676 26.9793 1.474C25.3143 0.843385 23.513 0.435222 21.7144 0.281044C20.8661 0.208327 19.8039 0.188596 18.9876 0.230365ZM19.1239 0.54413C16.7694 0.654715 14.561 1.1577 12.3908 2.07763C11.9126 2.28035 11.0794 2.68203 10.7128 2.8866C10.5917 2.9542 10.4385 3.03956 10.3725 3.07631C9.77879 3.40677 8.92094 3.97307 8.28233 4.45616C6.72149 5.63682 5.29648 7.09475 4.17634 8.65708C3.81776 9.15718 3.3166 9.93709 3.0745 10.3718C3.03773 10.4378 2.9522 10.5909 2.88438 10.712C2.81659 10.8331 2.64977 11.1586 2.51368 11.4354C1.53153 13.4328 0.897238 15.5816 0.656902 17.7258C0.474039 19.3569 0.474039 20.6447 0.656902 22.2758C0.897238 24.42 1.53153 26.5688 2.51368 28.5662C2.64977 28.843 2.81659 29.1685 2.88438 29.2896C2.9522 29.4107 3.03773 29.5638 3.0745 29.6298C3.3166 30.0645 3.81776 30.8444 4.17634 31.3445C5.00398 32.4989 6.01088 33.6129 7.095 34.5737C7.4698 34.9059 7.64961 35.0547 8.18775 35.4779C8.42135 35.6616 8.92117 36.0143 9.31838 36.2758C9.68159 36.5148 10.3404 36.922 10.364 36.922C10.3693 36.922 10.4429 36.9627 10.5275 37.0124C10.9077 37.2359 11.7378 37.645 12.3594 37.9153C12.9598 38.1764 14.0437 38.5646 14.5828 38.7116C14.6866 38.7399 14.9303 38.8061 15.1244 38.8587C15.5164 38.965 16.4422 39.1583 16.9425 39.2384C17.2741 39.2915 18.0103 39.3778 18.4632 39.4167C20.5912 39.5994 22.9774 39.3796 25.0809 38.8072C26.3226 38.4693 27.4662 38.0345 28.6362 37.4555C28.9247 37.3128 29.268 37.1343 29.3992 37.059C29.5304 36.9836 29.6408 36.922 29.6444 36.922C29.6654 36.922 30.3928 36.4726 30.707 36.2656C33.1509 34.6555 35.2042 32.5145 36.7199 29.9961C36.8366 29.8023 36.932 29.6407 36.932 29.637C36.932 29.6333 36.9937 29.523 37.0691 29.3918C37.4361 28.753 37.9389 27.6635 38.253 26.8259C38.9686 24.9174 39.3693 22.9526 39.4693 20.8605C39.5429 19.3215 39.4145 17.6796 39.0996 16.1322C38.9327 15.3123 38.8075 14.8342 38.5534 14.0459C38.2405 13.0755 37.9404 12.3349 37.4894 11.4204C37.357 11.1518 37.1932 10.8331 37.1254 10.712C37.0576 10.5909 36.972 10.4378 36.9353 10.3718C36.6932 9.93709 36.192 9.15718 35.8334 8.65708C34.7109 7.09144 33.2886 5.63628 31.7274 4.45628C31.0842 3.97008 30.231 3.40681 29.6373 3.07631C29.5712 3.03956 29.4181 2.95405 29.297 2.88626C28.4371 2.40515 27.1069 1.83161 26.0349 1.47979C25.5868 1.33274 25.4653 1.29791 24.7768 1.11937C23.0195 0.663711 20.9853 0.456693 19.1239 0.54413ZM19.3442 0.995131C19.2634 0.999178 19.0322 1.01279 18.8303 1.02537C15.2143 1.25065 11.7642 2.49374 8.83551 4.62656C8.56627 4.82266 7.99402 5.26355 7.91259 5.33765C7.88952 5.35864 7.81401 5.42291 7.74479 5.48044C7.06725 6.04367 6.0332 7.07749 5.47981 7.74497C5.42244 7.81416 5.37013 7.87549 5.36356 7.88126C5.30141 7.93578 4.79912 8.59153 4.5123 8.99256C2.84126 11.3291 1.7105 14.0538 1.25344 16.8451C0.892728 19.0481 0.892665 20.9484 1.25321 23.1565C1.70762 25.9395 2.84285 28.6747 4.5123 31.009C4.79912 31.41 5.30141 32.0658 5.36356 32.1203C5.37013 32.1261 5.42251 32.1874 5.47991 32.2566C6.04101 32.9327 7.06848 33.9598 7.74479 34.5207C7.81401 34.5781 7.87536 34.6304 7.88113 34.637C7.8869 34.6436 7.98601 34.7245 8.10137 34.817C9.54043 35.9695 11.1497 36.9193 12.8245 37.6045C13.0978 37.7163 13.2048 37.7566 13.7947 37.9697C14.1653 38.1036 14.8924 38.3189 15.3903 38.4424C17.674 39.0084 19.9258 39.1533 22.217 38.8818C25.6744 38.4722 28.8343 37.1811 31.6252 35.0377C32.8361 34.1078 34.1168 32.8275 35.047 31.6171C37.1582 28.8701 38.4327 25.792 38.8717 22.3807C39.2709 19.2786 38.8887 16.1398 37.7496 13.1652C36.6039 10.1734 34.6449 7.46043 32.1077 5.35191C30.1672 3.73934 27.885 2.51647 25.4646 1.7923C24.1095 1.38688 22.8184 1.14973 21.3393 1.03464C20.9589 1.00503 19.6591 0.9793 19.3442 0.995131ZM19.3668 1.55729C19.1921 1.57111 19.0717 1.58966 19.0672 1.6035C19.063 1.61621 19.088 2.02722 19.1227 2.51683C19.1917 3.49054 19.189 3.59754 19.0914 3.76446C19.0174 3.89107 18.9192 3.94403 18.7385 3.95487C18.487 3.96999 18.3587 3.87018 18.2736 3.5933C18.2528 3.52566 18.2188 3.16864 18.1779 2.58684C18.143 2.09094 18.1114 1.67546 18.1077 1.66355C18.1004 1.64017 17.415 1.67771 17.3898 1.70287C17.3781 1.71459 17.414 2.32071 17.4894 3.38345C17.5009 3.5448 17.5239 3.73586 17.5407 3.80806C17.629 4.18854 17.8889 4.45511 18.2639 4.54969C18.4328 4.59228 18.8843 4.58702 19.0873 4.54009C19.4035 4.46704 19.687 4.27698 19.7947 4.06586C19.9198 3.82076 19.9385 3.60611 19.8926 2.94329C19.8742 2.67805 19.8493 2.29591 19.8373 2.09409C19.8252 1.89227 19.8099 1.68234 19.8033 1.62755C19.7893 1.51216 19.8382 1.52005 19.3668 1.55729ZM21.1925 1.64286C21.1866 1.67769 21.1532 1.93264 21.1183 2.20941C20.9322 3.68598 20.8414 4.3947 20.833 4.43437C20.824 4.4766 20.8395 4.48077 21.1709 4.52539C21.362 4.5511 21.5239 4.56649 21.5308 4.55961C21.5426 4.54781 21.5944 4.16478 21.7061 3.26306C21.7329 3.04683 21.7608 2.86991 21.7681 2.86991C21.7814 2.86991 21.8195 2.97131 22.1032 3.76105C22.3297 4.39157 22.4346 4.67695 22.4419 4.68236C22.4456 4.68502 22.6293 4.71025 22.8504 4.73841L23.2522 4.78959L23.2632 4.71566C23.2692 4.67498 23.3135 4.33033 23.3616 3.94976C23.4097 3.56919 23.489 2.95116 23.5378 2.57635C23.5866 2.20155 23.6256 1.89317 23.6245 1.89108C23.6207 1.88391 23.0049 1.80054 22.9559 1.80054C22.9093 1.80054 22.9059 1.8111 22.882 2.02594C22.8231 2.55645 22.7025 3.46884 22.6892 3.48442C22.6813 3.49372 22.6439 3.41352 22.6061 3.30619C22.5684 3.19885 22.4713 2.92704 22.3904 2.70216C22.3095 2.47728 22.196 2.16119 22.1382 1.99973C22.0803 1.83828 22.027 1.69918 22.0196 1.6906C22.0072 1.67611 21.489 1.60203 21.2911 1.58645C21.2079 1.57989 21.2028 1.58281 21.1925 1.64286ZM19.3106 1.75235C19.2594 1.76028 19.2567 1.76663 19.2647 1.85929C19.3168 2.45451 19.3668 3.42661 19.3518 3.55137C19.3037 3.95188 19.0469 4.16998 18.6536 4.14432C18.3619 4.12526 18.1835 3.96928 18.089 3.6505C18.0681 3.58026 18.0364 3.25542 18.002 2.75936C17.9722 2.33004 17.9432 1.94954 17.9377 1.91379L17.9276 1.84883L17.7654 1.85853C17.6762 1.86388 17.597 1.87426 17.5894 1.88158C17.5718 1.89856 17.688 3.55143 17.7186 3.71911C17.7711 4.00696 17.9409 4.22937 18.1748 4.31687C18.5347 4.45146 19.1226 4.39889 19.41 4.20641C19.542 4.11805 19.6593 3.94401 19.7031 3.77153C19.743 3.61416 19.7407 3.53226 19.6671 2.4453L19.6192 1.73763L19.4922 1.74078C19.4223 1.7425 19.3406 1.74772 19.3106 1.75235ZM21.3593 1.83054C21.3402 1.93639 21.0522 4.2271 21.0529 4.26801C21.0536 4.30791 21.0689 4.31542 21.1743 4.32739C21.2406 4.33494 21.3114 4.34568 21.3316 4.35127C21.3518 4.35687 21.3689 4.35847 21.3696 4.3548C21.3703 4.35115 21.43 3.89767 21.5023 3.3471C21.5745 2.7965 21.6399 2.33981 21.6474 2.33224C21.655 2.32467 21.6921 2.32727 21.7298 2.33803C21.8063 2.3599 21.7847 2.31021 22.1019 3.19491C22.1846 3.42556 22.3143 3.78411 22.3902 3.99169C22.4661 4.19928 22.5365 4.39925 22.5467 4.43605C22.5682 4.51409 22.5704 4.51487 22.8541 4.54928C23.0254 4.57005 23.0742 4.57016 23.0868 4.54976C23.0955 4.53558 23.115 4.41365 23.13 4.27881C23.145 4.14396 23.2152 3.58747 23.2861 3.0422C23.4333 1.91066 23.4433 2.03559 23.2048 2.02582L23.0801 2.0207L22.9801 2.77555C22.9252 3.19072 22.868 3.63891 22.8531 3.77153L22.8261 4.01266H22.7429C22.6447 4.01266 22.6714 4.06714 22.4145 3.34169C22.1157 2.49762 21.9539 2.0444 21.9169 1.94731L21.8809 1.85296L21.624 1.82006C21.3682 1.78731 21.3672 1.78735 21.3593 1.83054ZM25.0201 2.28788C25.0096 2.31528 24.9894 2.37959 24.975 2.43081C24.9607 2.48204 24.8809 2.75511 24.7976 3.03765C24.7144 3.32019 24.5775 3.78726 24.4934 4.07557C24.4093 4.36388 24.3095 4.70175 24.2718 4.82643C24.2236 4.98551 24.2104 5.05569 24.2277 5.0618C24.3464 5.10367 24.9046 5.25506 24.9154 5.24835C24.9231 5.24359 24.9355 5.21365 24.943 5.18182C24.9559 5.1265 25.0845 4.68557 25.3941 3.63524C25.6959 2.61143 25.7358 2.46917 25.7247 2.45801C25.7183 2.45168 25.5827 2.40655 25.4232 2.35774C25.2638 2.30893 25.1121 2.26202 25.0862 2.25351C25.0483 2.24112 25.0353 2.24791 25.0201 2.28788ZM25.0526 2.84403C24.9967 3.03702 24.8825 3.42608 24.799 3.70863C24.5078 4.6928 24.4475 4.90668 24.4582 4.91737C24.4641 4.92328 24.5382 4.95012 24.6229 4.977C24.7341 5.01231 24.7804 5.01911 24.7898 5.00153C24.7969 4.98814 24.8384 4.85453 24.8819 4.70461C24.9753 4.38304 25.1933 3.64151 25.3726 3.03545C25.4429 2.79782 25.5004 2.5977 25.5004 2.59072C25.5004 2.57518 25.2368 2.49236 25.1888 2.49282C25.1623 2.49309 25.1308 2.57434 25.0526 2.84403ZM12.9886 2.89878C12.715 3.00672 12.6543 3.03805 12.6598 3.06858C12.6636 3.08917 12.7418 3.30057 12.8337 3.53837C13.1115 4.25683 13.4896 5.24384 13.6203 5.59157C13.6519 5.67578 13.685 5.74913 13.6938 5.75458C13.709 5.76395 13.8449 5.71336 14.8554 5.32216C15.0862 5.23285 15.2962 5.15343 15.3221 5.14569C15.3481 5.13795 15.3693 5.12439 15.3693 5.11556C15.3693 5.09966 15.1617 4.56347 15.1517 4.55343C15.1451 4.54686 14.9666 4.61245 14.5439 4.77678C14.361 4.84788 14.1975 4.90317 14.1806 4.89967C14.1512 4.89357 14.0802 4.72077 13.7174 3.77153C13.4596 3.09707 13.3309 2.76504 13.3275 2.76574C13.3257 2.76609 13.1732 2.82598 12.9886 2.89878ZM26.8462 2.97057C26.8337 3.0709 26.8036 3.33225 26.7795 3.55137C26.7553 3.77048 26.6887 4.36021 26.6315 4.86187C26.5743 5.36353 26.5253 5.79568 26.5226 5.82218C26.5183 5.86527 26.5572 5.88903 26.8888 6.04551L27.2599 6.22061L27.3398 6.1306C27.3837 6.08109 27.6887 5.76372 28.0175 5.42532C29.2483 4.15856 29.3809 4.02034 29.3809 4.00417C29.3809 3.9874 28.7691 3.68766 28.7349 3.68766C28.7247 3.68766 28.5945 3.8167 28.4456 3.97442C28.2966 4.13212 28.16 4.27602 28.142 4.29418C28.1046 4.33175 27.3431 5.13938 27.3299 5.15542C27.3175 5.17037 27.3352 5.02313 27.4632 4.04502C27.5258 3.56692 27.577 3.16526 27.577 3.15243C27.577 3.1396 27.4897 3.0882 27.383 3.03824C27.2762 2.98827 27.117 2.91157 27.029 2.86779L26.869 2.78819L26.8462 2.97057ZM13.062 3.07267C12.9871 3.10083 12.9186 3.13089 12.91 3.13947C12.9013 3.14807 12.9498 3.30086 13.0176 3.47905C13.0855 3.65721 13.1715 3.88318 13.2086 3.98121C13.2711 4.14637 13.3254 4.28751 13.6677 5.17582C13.7365 5.35426 13.802 5.50334 13.8134 5.50712C13.8247 5.51089 14.0449 5.43274 14.3028 5.33344C14.9925 5.06777 15.1063 5.02336 15.1154 5.01613C15.1225 5.01055 15.0587 4.82186 15.0434 4.80286C15.0404 4.79923 14.9592 4.82452 14.8628 4.85906C14.7081 4.91452 14.5715 4.96742 14.1594 5.13139L14.0507 5.17465L13.9526 4.91867C13.8986 4.77787 13.784 4.47868 13.698 4.25379C13.612 4.02891 13.4802 3.68451 13.4051 3.48846C13.33 3.29241 13.2587 3.10605 13.2466 3.07434C13.2346 3.04264 13.2188 3.01775 13.2116 3.01907C13.2043 3.02039 13.137 3.04451 13.062 3.07267ZM27.0219 3.14916C27.0013 3.27249 26.74 5.56318 26.7351 5.66349C26.7324 5.71805 26.7343 5.7655 26.7393 5.76892C26.7444 5.77236 26.8526 5.82275 26.9798 5.88091L27.2112 5.98663L27.5875 5.59724C27.7945 5.38307 28.2095 4.95465 28.5098 4.6452C28.8101 4.33576 29.0589 4.07389 29.0628 4.06326C29.069 4.04623 28.8142 3.91831 28.7741 3.91831C28.7655 3.91831 28.6278 4.05747 28.4681 4.22758C28.3083 4.3977 28.0165 4.70662 27.8196 4.9141C27.6227 5.12156 27.4061 5.35015 27.3382 5.42207L27.2147 5.55283L27.1546 5.51735C27.1184 5.49596 27.0946 5.46413 27.0946 5.43719C27.0946 5.41263 27.1505 4.96411 27.2188 4.44049C27.3811 3.19592 27.3748 3.2584 27.3421 3.23313C27.3271 3.22154 27.2514 3.18287 27.1739 3.14723L27.033 3.08244L27.0219 3.14916ZM10.2664 4.2907C10.0966 4.39051 9.95769 4.4823 9.95769 4.49472C9.95769 4.50711 10.0285 4.63396 10.115 4.77661C10.2015 4.91926 10.2723 5.03934 10.2723 5.04349C10.2723 5.04764 10.3229 5.13349 10.3847 5.23428C10.4465 5.33505 10.651 5.677 10.8392 5.99414C11.2689 6.71852 11.4263 6.97737 11.4439 6.98825C11.4515 6.99297 11.5853 6.91981 11.7412 6.82573C11.8971 6.73163 12.2391 6.5274 12.5014 6.37186C12.7636 6.21634 12.9781 6.08036 12.9781 6.06967C12.9781 6.05411 12.6988 5.58463 12.673 5.55689C12.6693 5.5528 12.4669 5.6684 12.2234 5.81375C11.9798 5.95908 11.7739 6.07801 11.7657 6.07801C11.7575 6.07801 11.6148 5.84919 11.4485 5.56954C11.0515 4.90185 10.5838 4.11857 10.579 4.11337C10.5769 4.11109 10.4362 4.19089 10.2664 4.2907ZM10.351 4.46475C10.2731 4.51145 10.2094 4.55322 10.2094 4.55756C10.2094 4.56192 10.3522 4.80435 10.5268 5.09633C10.7014 5.38831 10.8608 5.65551 10.881 5.6901C11.1669 6.17973 11.4943 6.7189 11.5087 6.72391C11.5188 6.72741 11.6577 6.65209 11.8174 6.55656C11.977 6.46101 12.1313 6.37024 12.1601 6.35481C12.2033 6.33177 12.4042 6.21105 12.6797 6.04268L12.7273 6.01358L12.6707 5.91473C12.6396 5.86038 12.612 5.81291 12.6094 5.80924C12.6068 5.80557 12.5044 5.86456 12.3819 5.94029C12.2593 6.01603 12.1556 6.07801 12.1515 6.07801C12.1473 6.07801 12.0428 6.13993 11.9191 6.21562C11.7954 6.2913 11.6921 6.35026 11.6896 6.34667C11.6803 6.33386 11.2824 5.66618 10.7766 4.81469C10.6344 4.57538 10.5124 4.37964 10.5053 4.37971C10.4983 4.37977 10.4288 4.41804 10.351 4.46475ZM30.199 4.79471C30.1259 4.89508 30.0171 5.04324 29.9571 5.12397C29.8971 5.20469 29.7175 5.45002 29.5579 5.66913C29.3982 5.88825 29.2153 6.1393 29.1512 6.22703C29.0872 6.31474 28.9612 6.48815 28.8713 6.61234C28.7813 6.73653 28.6842 6.86897 28.6555 6.90665L28.6032 6.97515L28.7551 7.08747C28.8386 7.14925 28.9466 7.22811 28.995 7.2627C29.0435 7.2973 29.2314 7.43412 29.4127 7.56674C29.594 7.69936 29.8161 7.86128 29.9064 7.92653L30.0704 8.04519L30.2038 7.86363C30.4183 7.57146 30.4368 7.54225 30.4157 7.52789C30.4048 7.52042 30.2102 7.37882 29.9832 7.2132L29.5707 6.91208L29.6559 6.79384C29.7028 6.72882 29.7757 6.62618 29.818 6.56577C29.8602 6.50536 29.9027 6.45581 29.9124 6.45569C29.9221 6.45554 29.9929 6.50196 30.0697 6.55885C30.4976 6.87557 30.6733 6.99985 30.6939 7.0002C30.7174 7.0006 31.0711 6.52247 31.0564 6.51014C31.052 6.50643 30.8832 6.38272 30.6813 6.23523C30.4795 6.08774 30.307 5.96072 30.2981 5.95296C30.2823 5.93906 30.5452 5.55381 30.5706 5.55381C30.5778 5.55381 30.5986 5.56717 30.6168 5.58348C30.6749 5.63559 31.4044 6.16115 31.4191 6.16153C31.4351 6.16192 31.4661 6.12332 31.6598 5.86141C31.7351 5.75959 31.7935 5.67392 31.7896 5.67102C31.6899 5.59701 31.1692 5.22011 31.1363 5.19811C31.111 5.18123 31.0384 5.12829 30.975 5.08044C30.8081 4.95457 30.3811 4.64168 30.3546 4.62577C30.3417 4.61805 30.2746 4.69096 30.199 4.79471ZM30.2364 5.0663C30.1621 5.16722 29.9945 5.39603 29.864 5.57478C29.7334 5.75353 29.5851 5.9564 29.5344 6.02559C29.4837 6.09479 29.3733 6.24576 29.2892 6.36108C29.205 6.4764 29.0779 6.65002 29.0068 6.74691C28.9357 6.8438 28.8778 6.92873 28.8783 6.93562C28.8787 6.94252 28.933 6.98534 28.9989 7.03076C29.0648 7.07615 29.2603 7.21783 29.4333 7.34559C29.6064 7.47335 29.8114 7.62283 29.8889 7.67779L30.0299 7.7777L30.0939 7.68938C30.1291 7.6408 30.1553 7.59396 30.1522 7.58528C30.1464 7.56928 29.8583 7.35373 29.5109 7.10544C29.406 7.03048 29.3197 6.96127 29.3191 6.95164C29.3178 6.9321 29.8348 6.21093 29.8622 6.19401C29.8718 6.18811 29.9302 6.22036 29.992 6.2657C30.0539 6.31101 30.2272 6.43837 30.3772 6.54872L30.6499 6.74932L30.7177 6.67053C30.755 6.62718 30.7857 6.58175 30.7859 6.56956C30.7861 6.55736 30.7225 6.50117 30.6446 6.44466C30.5668 6.38815 30.4131 6.27547 30.3033 6.19424C30.1934 6.11301 30.0819 6.03241 30.0554 6.01511L30.0073 5.98366L30.1931 5.73204C30.2952 5.59365 30.4107 5.43568 30.4496 5.38097L30.5204 5.28152L30.5852 5.33084C30.6208 5.35797 30.7112 5.42379 30.7862 5.47709C30.8612 5.53041 31.0262 5.64982 31.153 5.74248L31.3833 5.91094L31.4214 5.86342C31.5034 5.76093 31.526 5.71891 31.5078 5.70308C31.4974 5.69411 31.3992 5.62223 31.2896 5.54333C31.0794 5.39196 30.9262 5.27986 30.593 5.03347C30.481 4.95062 30.3853 4.88283 30.3804 4.88283C30.3755 4.88283 30.3107 4.96541 30.2364 5.0663ZM19.0086 5.00996C18.4954 5.04821 17.6327 5.15821 17.201 5.2404C16.839 5.30934 16.0386 5.50718 15.6735 5.61797C13.5969 6.24808 11.7662 7.26696 10.0835 8.72898C9.7729 8.99888 8.99914 9.77237 8.72914 10.0829C7.70399 11.262 6.9115 12.4928 6.28554 13.8782C5.76581 15.0284 5.34687 16.4417 5.16572 17.6559C5.02263 18.615 4.99702 18.9709 4.99702 20.0008C4.99702 21.0307 5.02263 21.3866 5.16572 22.3457C5.31295 23.3326 5.62834 24.4917 6.02529 25.5049C6.24015 26.0533 6.59039 26.7868 6.90139 27.3396C8.58238 30.3278 11.2723 32.6875 14.4359 33.9491C15.4671 34.3603 16.6418 34.6831 17.6591 34.8348C18.6186 34.9778 18.9746 35.0034 20.0049 35.0034C21.0337 35.0034 21.396 34.9774 22.3436 34.8356C23.5753 34.6514 25.0224 34.22 26.1612 33.6978C26.5396 33.5242 27.1204 33.2318 27.3139 33.1175C27.4028 33.0649 27.4795 33.0219 27.4842 33.0219C27.5045 33.0219 28.1549 32.6151 28.4055 32.4457C29.2116 31.9009 29.8966 31.3331 30.6189 30.6111C31.3411 29.889 31.9092 29.2043 32.4542 28.3985C32.6236 28.148 33.0306 27.4978 33.0306 27.4775C33.0306 27.4728 33.0736 27.3961 33.1262 27.3072C33.2405 27.1139 33.533 26.5332 33.7067 26.1549C34.2291 25.0165 34.6606 23.57 34.8449 22.3387C34.9868 21.3914 35.0128 21.0293 35.0128 20.0008C35.0128 18.9709 34.9871 18.615 34.8441 17.6559C34.7122 16.7719 34.3936 15.5602 34.0796 14.7483C34.0305 14.6215 33.9677 14.4578 33.9401 14.3846C33.8589 14.1699 33.6078 13.6228 33.414 13.2386C33.003 12.4239 32.5748 11.736 32.0177 10.9956C30.3301 8.75244 28.0599 7.02432 25.469 6.01066C24.1562 5.49703 22.8695 5.19337 21.3473 5.03793C20.9651 4.99891 19.4069 4.98027 19.0086 5.00996ZM19.1868 5.18876C19.1465 5.19316 18.9813 5.20689 18.8198 5.21929C17.8604 5.29288 16.9139 5.46837 15.7784 5.78312C15.5214 5.85435 14.8062 6.10888 14.394 6.27578C13.9558 6.45321 13.0414 6.89826 12.6635 7.11809C10.8397 8.17894 9.33546 9.51213 8.11186 11.1523C7.83627 11.5217 7.41787 12.1426 7.27826 12.3894C7.25542 12.4298 7.16858 12.5808 7.08526 12.7249C6.86815 13.1006 6.48415 13.8876 6.29747 14.3394C5.71012 15.7612 5.36747 17.1761 5.21338 18.8161C5.17607 19.2133 5.17607 20.7883 5.21338 21.1855C5.36747 22.8255 5.71012 24.2404 6.29747 25.6622C6.48415 26.114 6.86815 26.901 7.08526 27.2767C7.16858 27.4209 7.25542 27.5718 7.27826 27.6122C7.34034 27.7219 7.6387 28.1825 7.79446 28.409C8.79436 29.8631 10.1324 31.2006 11.5938 32.2067C11.8185 32.3614 12.2797 32.6601 12.3908 32.723C12.4312 32.7458 12.5822 32.8326 12.7264 32.9159C13.0994 33.1314 13.8869 33.5152 14.3415 33.7032C15.2209 34.0668 16.1948 34.3641 17.0474 34.5293C17.7032 34.6564 18.0877 34.714 18.6834 34.7744C19.1256 34.8192 20.3947 34.8376 20.8781 34.8063C22.8926 34.6758 24.7719 34.1774 26.5387 33.3049C26.804 33.1739 27.1391 32.9987 27.2833 32.9156C27.4275 32.8325 27.5738 32.7484 27.6085 32.7288C27.7141 32.6688 28.2694 32.3097 28.4475 32.1861C29.8916 31.1842 31.2335 29.8389 32.2149 28.409C32.3604 28.197 32.6777 27.7066 32.7373 27.6018C32.7569 27.5671 32.841 27.4209 32.9242 27.2767C33.1498 26.8854 33.5298 26.104 33.7214 25.6373C34.3104 24.2025 34.6434 22.8175 34.7968 21.1645C34.8334 20.7699 34.8334 19.2318 34.7968 18.8371C34.6442 17.1928 34.3128 15.8091 33.7298 14.3814C33.5478 13.9358 33.1454 13.1084 32.9242 12.7249C32.8411 12.5808 32.757 12.4345 32.7373 12.3999C32.7177 12.3653 32.6137 12.2002 32.5062 12.033C31.3213 10.1885 29.8203 8.69002 27.9545 7.48889C27.8103 7.39606 27.6593 7.30143 27.6189 7.2786C27.5786 7.25576 27.4275 7.16896 27.2833 7.08567C26.9075 6.86863 26.1203 6.48477 25.6682 6.29815C24.288 5.72837 22.9187 5.39041 21.3263 5.22658C21.0226 5.19532 19.3913 5.16649 19.1868 5.18876ZM8.72904 5.34944C8.57657 5.48105 7.57841 6.32669 7.52258 6.37156C7.47729 6.40794 7.46962 6.39694 7.86135 6.85628C7.98316 6.99909 8.37321 7.45823 8.72818 7.87661L9.37355 8.6373L9.42227 8.6C9.44906 8.57949 9.58809 8.46365 9.7312 8.34256C9.87431 8.22147 10.1632 7.97736 10.3731 7.80011C10.583 7.62285 10.7548 7.47326 10.7548 7.46769C10.7548 7.45901 10.4634 7.10825 10.3864 7.02419C10.3644 7.00016 10.329 7.02119 10.1746 7.14994C10.0726 7.23494 9.98444 7.3094 9.97867 7.31537C9.91954 7.37673 9.55832 7.67158 9.54232 7.67158C9.52119 7.67158 9.18162 7.27426 9.1816 7.24954C9.1816 7.2345 9.34574 7.08934 9.66404 6.8229C9.78517 6.72152 9.88428 6.6266 9.88428 6.61198C9.88428 6.59737 9.81821 6.50742 9.73745 6.41207C9.6567 6.31673 9.57174 6.21634 9.54867 6.18897L9.50672 6.13922L9.23404 6.37261C9.08407 6.50098 8.91746 6.64299 8.86383 6.68818L8.76627 6.77035L8.61621 6.60039C8.53367 6.50691 8.46903 6.41906 8.47253 6.40515C8.47914 6.37905 8.62378 6.25087 9.02863 5.91241L9.2637 5.71587L9.13944 5.56671C9.0711 5.48466 8.97948 5.37745 8.93583 5.32847L8.85648 5.23942L8.72904 5.34944ZM8.73955 5.58811C8.66318 5.6571 7.93248 6.27708 7.78934 6.39431C7.74511 6.43055 7.70685 6.37966 8.3321 7.1162C8.41286 7.21133 8.68187 7.53026 8.9299 7.8249C9.17793 8.11956 9.3923 8.357 9.40625 8.35258C9.43681 8.34287 10.4821 7.46366 10.4821 7.44766C10.4821 7.42661 10.3527 7.27319 10.335 7.27319C10.3252 7.27319 10.3047 7.28499 10.2893 7.2994C10.154 7.42634 9.53271 7.94416 9.51568 7.94416C9.50808 7.94416 9.44342 7.87352 9.37198 7.78718C9.30051 7.70081 9.23043 7.61826 9.21623 7.60371C9.20201 7.58913 9.12507 7.49799 9.04522 7.40116L8.90005 7.22507L8.98313 7.15214C9.02884 7.11203 9.19605 6.97091 9.35471 6.83856L9.64317 6.59789L9.57867 6.51647C9.54318 6.47169 9.50599 6.43 9.49602 6.42386C9.48606 6.41769 9.32063 6.5473 9.12843 6.71187C8.93621 6.87643 8.76656 7.01398 8.75146 7.0175C8.73021 7.02245 8.20212 6.4304 8.18838 6.38622C8.18666 6.38073 8.32214 6.26071 8.48942 6.11949C8.65669 5.97827 8.83937 5.82386 8.89537 5.77632L8.99719 5.68994L8.91478 5.59709L8.83236 5.50424L8.73955 5.58811ZM19.2393 5.55559C17.7618 5.63873 16.1322 5.98355 14.8554 6.48324C14.1615 6.7548 13.3778 7.1284 12.7934 7.46632C9.70806 9.24995 7.39268 12.0894 6.26546 15.4717C6.12688 15.8875 5.93458 16.5925 5.84791 17.0024C5.73479 17.5375 5.61831 18.3644 5.5703 18.9734C5.53703 19.3951 5.53707 20.6148 5.57036 21.0178C5.64963 21.9771 5.80105 22.8923 6.004 23.6388C6.04163 23.7771 6.07941 23.9234 6.08795 23.9638C6.11251 24.0797 6.4001 24.938 6.49191 25.1694C6.70357 25.7027 6.78871 25.8952 7.02072 26.3646C7.1575 26.6414 7.33265 26.9763 7.4099 27.109C7.48717 27.2416 7.57443 27.3926 7.60384 27.4445C7.71731 27.6448 8.19207 28.3492 8.4021 28.6289C9.26506 29.7782 10.2389 30.7513 11.3738 31.5984C11.7435 31.8743 12.2972 32.2465 12.5798 32.4091C12.6201 32.4323 12.738 32.5008 12.8418 32.5614C13.1007 32.7125 13.8137 33.0742 14.1318 33.2159C15.3956 33.7786 16.6388 34.1311 18.0647 34.331C20.0412 34.6082 22.1571 34.446 24.1161 33.8672C25.1448 33.5632 26.3537 33.0427 27.206 32.5368C27.3199 32.4692 27.4169 32.4139 27.4215 32.4139C27.4262 32.4139 27.5504 32.3369 27.6975 32.2429C28.6882 31.6095 29.3854 31.0488 30.2211 30.2135C31.0568 29.3781 31.6177 28.6811 32.2512 27.6907C32.3453 27.5436 32.4223 27.4195 32.4223 27.4148C32.4223 27.4102 32.4774 27.3135 32.5447 27.2C32.9801 26.4656 33.4164 25.4963 33.7261 24.5751C34.2753 22.9419 34.5368 21.116 34.4603 19.4504C34.3714 17.5172 33.9767 15.8178 33.2246 14.1298C33.0829 13.8118 32.721 13.0991 32.5699 12.8402C32.5092 12.7364 32.4407 12.6186 32.4175 12.5784C32.2549 12.2958 31.8826 11.7423 31.6065 11.3727C30.7592 10.2383 29.7859 9.2649 28.636 8.40202C28.352 8.18892 27.6437 7.71159 27.4511 7.60356C27.3992 7.57444 27.2514 7.48895 27.1226 7.41359C26.8179 7.23534 25.9398 6.80193 25.6053 6.6647C24.3597 6.15362 23.226 5.84684 21.8927 5.65999C21.1187 5.55153 20.055 5.50967 19.2393 5.55559ZM19.5329 6.01704C18.664 6.04209 17.9289 6.13165 17.0492 6.3196C16.4228 6.45344 15.7122 6.65945 15.191 6.85827C15.0411 6.91549 14.8948 6.97001 14.8659 6.97945C14.6969 7.0347 14.1679 7.27411 13.7299 7.49367C11.8809 8.42026 10.3088 9.70829 8.97015 11.3934C7.95324 12.6735 7.08713 14.3407 6.60436 15.9475C6.44017 16.4939 6.39343 16.6813 6.27868 17.254C6.07123 18.289 6.02513 18.7884 6.02513 20.0008C6.02513 20.7123 6.03327 20.9979 6.06213 21.2993C6.20161 22.7558 6.56707 24.191 7.13032 25.4944C7.67205 26.748 8.39536 27.9334 9.20933 28.9017C9.27719 28.9825 9.35211 29.0721 9.37584 29.1009C9.69795 29.4924 10.4979 30.2919 10.9016 30.6259C10.9304 30.6497 11.0201 30.7249 11.1008 30.7929C12.7769 32.2042 14.9603 33.2525 17.1627 33.7034C18.038 33.8826 18.6945 33.9589 19.5225 33.9776L19.9944 33.9882L19.879 33.9381C19.5975 33.8158 18.6984 33.3492 18.3059 33.1218C16.8638 32.2862 15.7817 31.5259 14.6876 30.5797C14.1425 30.1082 13.3893 29.3467 12.9243 28.7968C12.69 28.5197 12.1079 27.7441 12.0743 27.6642C12.0695 27.6529 12.013 27.5634 11.9487 27.4654C11.496 26.7753 11.0683 25.8607 10.8309 25.0751C10.629 24.4073 10.5284 23.8463 10.482 23.1298C10.47 22.945 10.4618 20.2051 10.4615 16.3052L10.4611 9.78935H19.9948H29.5285L29.5217 16.6617L29.5149 23.5339L29.4692 23.8694C29.4009 24.3705 29.342 24.6452 29.1993 25.1275C29.0121 25.7607 28.7229 26.441 28.4106 26.9832C28.3409 27.1042 28.2654 27.2363 28.2429 27.2767C28.1807 27.3882 27.9022 27.8101 27.7585 28.0106C26.7338 29.4398 25.2328 30.8461 23.4344 32.0618C22.9544 32.3862 22.2598 32.8228 21.9313 33.0064C21.8812 33.0345 21.7553 33.1052 21.6515 33.1637C21.2874 33.3687 21.0604 33.4871 20.6237 33.6997C20.3814 33.8177 20.1501 33.9307 20.1098 33.9508C20.0382 33.9864 20.0475 33.9871 20.4873 33.978C22.4361 33.9379 24.4341 33.4312 26.2684 32.5121C26.4632 32.4145 26.7059 32.2864 26.8078 32.2275C26.9097 32.1685 26.9973 32.1203 27.0026 32.1203C27.0386 32.1203 27.9353 31.5368 28.2154 31.3311C29.4398 30.4318 30.4447 29.4262 31.3449 28.1993C31.5524 27.9165 32.1286 27.0315 32.1286 26.9957C32.1286 26.9906 32.1769 26.9032 32.2358 26.8013C32.3791 26.5539 32.6685 25.9747 32.8249 25.6226C33.4196 24.2831 33.8046 22.7966 33.9469 21.2903C34.0005 20.7231 34.0005 19.2785 33.9469 18.7113C33.7435 16.5583 33.0515 14.49 31.9236 12.6637C31.5926 12.1277 31.1648 11.5319 30.8007 11.0999C30.7327 11.0192 30.6577 10.9295 30.6339 10.9007C30.2561 10.4415 29.4926 9.68967 28.9404 9.23305C27.9152 8.38527 26.8409 7.72199 25.6158 7.18034C24.011 6.47083 22.2393 6.0656 20.5607 6.02408C20.33 6.01838 20.1082 6.01146 20.0678 6.00871C20.0274 6.00597 19.7867 6.00972 19.5329 6.01704ZM32.4214 7.1002C32.1638 7.33951 31.6888 7.78061 31.3659 8.08046C31.0429 8.3803 30.7761 8.63506 30.7729 8.64659C30.7698 8.65812 30.878 8.78418 31.0133 8.9267L31.2595 9.18585L31.5944 8.87678C31.7786 8.70677 31.9654 8.53355 32.0094 8.49181L32.0894 8.41594L32.1639 8.49692C32.278 8.62097 32.264 8.6814 31.9924 9.2337C31.8677 9.48741 31.7627 9.70067 31.7591 9.70762C31.7474 9.72984 32.303 10.3154 32.3197 10.2985C32.3285 10.2895 32.3683 10.2067 32.4081 10.1144C32.448 10.0221 32.5671 9.76261 32.6729 9.53773C32.7786 9.31285 32.8803 9.0748 32.8988 9.00873C32.9307 8.89452 32.935 8.88934 32.9867 8.90389C33.0166 8.9123 33.126 8.91888 33.2298 8.91853C33.3953 8.91794 33.4327 8.91056 33.5321 8.85879C33.7795 8.73004 33.9553 8.4726 33.9705 8.21664C33.9848 7.9765 33.8949 7.76332 33.6601 7.48096C33.517 7.30896 32.9193 6.6653 32.9025 6.6652C32.8955 6.66516 32.679 6.86089 32.4214 7.1002ZM32.6103 7.18479C32.3909 7.38969 32.0834 7.67508 31.8165 7.92154C31.2779 8.41888 31.038 8.64508 31.0383 8.65519C31.0385 8.66198 31.0891 8.72371 31.1509 8.79234L31.2631 8.91712L31.3572 8.83428C31.4089 8.78871 31.5777 8.63349 31.7323 8.48931C31.8868 8.34516 32.0347 8.20903 32.0609 8.18685L32.1086 8.14651L32.2182 8.26906C32.4134 8.48721 32.4223 8.50388 32.4223 8.65257C32.4223 8.79066 32.3863 8.87697 32.0419 9.56346L31.9817 9.68354L32.11 9.82556C32.1806 9.90367 32.2443 9.96953 32.2516 9.9719C32.259 9.97429 32.3001 9.8988 32.3429 9.80415C32.3858 9.70952 32.4885 9.48741 32.5712 9.31061C32.7414 8.94648 32.7654 8.83985 32.6983 8.74567L32.6546 8.68433L32.7159 8.62565L32.7772 8.56696L32.8882 8.64213C33.0889 8.7781 33.2568 8.7897 33.4581 8.68146C33.5742 8.61908 33.7281 8.44301 33.7654 8.32998C33.7792 8.28831 33.7863 8.20098 33.7814 8.1359C33.7649 7.92043 33.6311 7.71308 33.2318 7.28392C33.1243 7.16845 33.0106 7.04334 32.9792 7.00585C32.9477 6.96835 32.911 6.93801 32.8976 6.93841C32.8842 6.93879 32.7549 7.04967 32.6103 7.18479ZM32.6272 7.65543C32.4472 7.82001 32.299 7.96534 32.2981 7.9784C32.295 8.02284 32.6615 8.37581 32.7593 8.42257C32.9627 8.51982 33.2015 8.46669 33.3246 8.29682C33.4914 8.06666 33.4434 7.87667 33.1316 7.5333C33.0489 7.44213 32.9752 7.36501 32.9679 7.36188C32.9607 7.35878 32.8074 7.49088 32.6272 7.65543ZM6.20487 7.72924C6.08782 7.87627 5.99199 8.00411 5.9919 8.01334C5.9918 8.02254 6.29007 8.26766 6.6547 8.55802C7.01934 8.84839 7.30905 9.08883 7.29852 9.09235C7.27778 9.09925 7.11327 9.06734 6.08774 8.8574C5.55058 8.74743 5.41233 8.72539 5.39555 8.74705C5.38402 8.76194 5.27629 8.89638 5.15614 9.04584C5.03599 9.19528 4.92921 9.32868 4.91884 9.34227C4.90569 9.35953 5.10469 9.53014 5.57776 9.90721C5.95054 10.2044 6.46024 10.6108 6.71041 10.8104C6.96059 11.01 7.17443 11.1733 7.18561 11.1733C7.20803 11.1733 7.63039 10.657 7.62783 10.6328C7.62695 10.6244 7.51603 10.5312 7.38137 10.4256C6.80761 9.97552 6.28451 9.55419 6.29122 9.54748C6.29521 9.54352 6.43037 9.56709 6.59163 9.59988C7.66431 9.81797 7.96841 9.8805 8.07484 9.9048L8.19513 9.93227L8.43719 9.63047C8.57034 9.46451 8.68426 9.31568 8.69038 9.29975C8.6977 9.28066 8.46714 9.08415 8.01338 8.72277C6.61426 7.60849 6.42943 7.4619 6.42362 7.4619C6.42034 7.4619 6.32191 7.58221 6.20487 7.72924ZM32.7394 7.81416L32.5427 7.99788L32.666 8.11071C32.8072 8.23983 32.9351 8.30492 33.0107 8.28607C33.1567 8.24967 33.2547 8.10914 33.2194 7.98641C33.1935 7.89611 32.9896 7.6286 32.9478 7.63004C32.9414 7.63027 32.8477 7.71312 32.7394 7.81416ZM6.34227 7.85885L6.24455 7.98321L6.38639 8.09874C6.46439 8.16227 6.82083 8.44696 7.17846 8.73137C7.53609 9.01578 7.83069 9.25458 7.83314 9.26207C7.83557 9.26953 7.81669 9.30084 7.79119 9.33166C7.73579 9.39855 7.8056 9.4075 6.87431 9.21386C6.52245 9.1407 6.08763 9.05111 5.90806 9.01479C5.72849 8.97845 5.56245 8.94373 5.53907 8.93761C5.50509 8.92874 5.46347 8.96724 5.33139 9.1297L5.16623 9.3329L5.21795 9.37492C5.24642 9.39804 5.42072 9.53748 5.60531 9.68478C7.13894 10.9087 7.15444 10.9206 7.18246 10.8974C7.19784 10.8846 7.24512 10.8269 7.28751 10.7692L7.36459 10.6642L7.30137 10.6095C7.26662 10.5794 6.90584 10.291 6.49963 9.96873L5.76111 9.3828L5.82055 9.32338L5.88 9.26393L6.66557 9.42293C7.09764 9.51039 7.60151 9.61137 7.78527 9.64735L8.11943 9.71275L8.18523 9.63666C8.22141 9.59481 8.29512 9.50448 8.34901 9.43591L8.44696 9.31128L7.74978 8.75619C6.55259 7.80301 6.46563 7.73451 6.45267 7.73451C6.4457 7.73448 6.39603 7.79045 6.34227 7.85885ZM34.7715 9.64498C34.5033 9.689 34.2327 9.88488 34.1178 10.1183C34.0266 10.3035 34.0153 10.514 34.0771 10.8771C34.1373 11.2303 34.1355 11.3209 34.067 11.4023C33.9876 11.4967 33.8685 11.4934 33.7373 11.3933C33.5764 11.2705 33.4306 10.9098 33.4295 10.6319C33.4291 10.5477 33.4258 10.5424 33.3819 10.5561C33.3381 10.5697 32.7993 10.8334 32.7813 10.85C32.7686 10.8617 32.9014 11.2318 32.9725 11.383C33.1854 11.8355 33.5591 12.1694 33.9003 12.212C34.2173 12.2516 34.6379 12.0213 34.7889 11.7256C34.8782 11.5505 34.8816 11.3018 34.801 10.8103C34.7492 10.4935 34.7847 10.4026 34.9686 10.3819C35.0406 10.3738 35.0791 10.3817 35.1344 10.4158C35.2676 10.4981 35.3979 10.7543 35.4422 11.0213C35.4562 11.1049 35.4712 11.1733 35.4758 11.1733C35.5174 11.1733 36.051 10.8965 36.051 10.8749C36.051 10.7346 35.9002 10.378 35.7411 10.1423C35.4804 9.75607 35.1445 9.5838 34.7715 9.64498ZM34.7872 9.83208C34.5719 9.88555 34.3545 10.05 34.2755 10.2192C34.2129 10.3534 34.2107 10.5476 34.2681 10.8797C34.3403 11.2976 34.3136 11.4609 34.153 11.5834C34.0462 11.6648 33.8687 11.6791 33.7397 11.6167C33.536 11.5181 33.3727 11.2855 33.2922 10.9793C33.2718 10.9015 33.252 10.8378 33.2483 10.8378C33.2446 10.8378 33.1887 10.8612 33.124 10.8897C33.0204 10.9355 33.0081 10.9473 33.02 10.9893C33.0915 11.2421 33.2954 11.5989 33.4638 11.7659C33.5294 11.8309 33.6404 11.9149 33.7106 11.9524C33.8198 12.011 33.8594 12.0208 33.9866 12.021C34.1118 12.0213 34.1566 12.0107 34.2727 11.9536C34.5914 11.7967 34.716 11.5547 34.666 11.1897C34.6538 11.1002 34.63 10.9552 34.6133 10.8676C34.5409 10.4898 34.6014 10.3157 34.8407 10.213C35 10.1446 35.2549 10.2179 35.3664 10.3641C35.4436 10.4653 35.5457 10.6673 35.5809 10.7885C35.6161 10.9096 35.6183 10.91 35.7774 10.8278L35.8391 10.7959L35.8003 10.6858C35.7331 10.495 35.6927 10.412 35.5971 10.2676C35.3779 9.93682 35.0581 9.76484 34.7872 9.83208ZM10.9284 16.735C10.936 23.7538 10.9286 23.2759 11.0401 23.9428C11.2659 25.2941 11.8793 26.6657 12.8201 27.9236C13.5151 28.8529 14.5865 29.9373 15.621 30.7587C16.8617 31.7437 18.2532 32.6249 19.6443 33.3064L20.0073 33.4842L20.4728 33.2513C20.9485 33.0132 21.326 32.8071 21.7348 32.5623C21.8614 32.4864 21.9747 32.4205 21.9865 32.4158C22.0499 32.3904 23.0237 31.7599 23.319 31.5531C23.9057 31.1419 24.6286 30.5839 25.0177 30.2418C26.424 29.0053 27.3847 27.8617 28.0635 26.6162C28.5898 25.6506 28.8635 24.8088 29.028 23.6492C29.0471 23.5141 29.0549 21.8739 29.0602 16.8608L29.0671 10.2507H19.9943H10.9215L10.9284 16.735ZM11.243 16.9238C11.2491 22.7032 11.2526 23.2607 11.2848 23.48C11.4319 24.4828 11.6571 25.2251 12.0756 26.087C12.3864 26.727 12.7836 27.3556 13.2713 27.9791C13.9024 28.7861 14.7102 29.5993 15.6446 30.3686C16.7397 31.2702 18.2931 32.268 19.6115 32.9166L20.0046 33.1101L20.3666 32.9308C20.6851 32.773 20.8727 32.6732 21.3788 32.3921C21.448 32.3537 21.6462 32.2359 21.8193 32.1304C22.6488 31.6249 23.1203 31.3076 23.7798 30.8113C25.1225 29.8006 26.2903 28.637 27.0845 27.5186C27.865 26.4194 28.3551 25.3354 28.5828 24.2049C28.7303 23.4724 28.7179 24.1009 28.725 17.0076L28.7314 10.6071H19.9839H11.2365L11.243 16.9238ZM17.1469 10.8115L11.4258 10.8169L11.4311 14.4076L11.4365 17.9984H19.9839H28.5314V14.4023V10.8063H25.6997C24.1423 10.8062 20.2935 10.8086 17.1469 10.8115ZM4.34678 10.8781C4.16033 10.9103 3.98202 11.0429 3.82003 11.2699C3.73814 11.3846 3.20436 12.3941 3.20382 12.4353C3.20371 12.4432 3.36644 12.5316 3.56545 12.6316C3.76447 12.7317 4.34389 13.0248 4.85307 13.283C5.36224 13.5411 5.78706 13.7523 5.79706 13.7523C5.82265 13.7523 6.14028 13.1158 6.12291 13.0993C6.11511 13.0919 5.88927 12.9759 5.62104 12.8417C5.3528 12.7074 5.13336 12.5917 5.13336 12.5845C5.13336 12.5772 5.15712 12.5308 5.18615 12.4813C5.27119 12.3362 5.31817 12.3332 6.12354 12.421C6.28168 12.4382 6.42557 12.4523 6.44329 12.4523C6.46406 12.4523 6.53955 12.3245 6.6552 12.0936C6.754 11.8963 6.83192 11.7327 6.82836 11.73C6.80289 11.7109 5.46093 11.6212 5.38179 11.6333L5.28411 11.6483L5.27035 11.5418C5.25026 11.3863 5.17172 11.2202 5.06779 11.1134C4.89678 10.9377 4.58689 10.8366 4.34678 10.8781ZM4.36478 11.0675C4.2172 11.1027 4.06309 11.2395 3.92107 11.4614C3.83117 11.6019 3.447 12.3464 3.45875 12.3574C3.46555 12.3638 4.00564 12.6392 5.16172 13.2256C5.45995 13.3769 5.71037 13.5007 5.71819 13.5007C5.72604 13.5007 5.76719 13.4305 5.80967 13.3447L5.8869 13.1887L5.38427 12.935C5.10783 12.7955 4.88166 12.6719 4.88166 12.6602C4.88166 12.6486 4.91991 12.5694 4.96667 12.4842C5.07406 12.2886 5.18276 12.1874 5.30477 12.1694C5.35547 12.1619 5.6065 12.178 5.87326 12.2057L6.351 12.2554L6.44679 12.0797C6.49948 11.9831 6.53936 11.9012 6.53541 11.8977C6.53145 11.8942 6.28275 11.8714 5.98271 11.8471C5.37703 11.798 5.31178 11.8032 5.23494 11.9071C5.19077 11.9669 5.18857 11.9674 5.11553 11.9369C5.07461 11.9198 5.03817 11.9029 5.03459 11.8993C5.03098 11.8957 5.04228 11.8523 5.05972 11.8029C5.12134 11.6284 5.09223 11.4421 4.98045 11.296C4.9002 11.1911 4.83213 11.1482 4.65397 11.0906C4.51371 11.0452 4.47209 11.0419 4.36478 11.0675ZM12.8825 11.1584C12.8768 11.1734 12.8747 12.1287 12.8779 13.2815L12.8838 15.3774L12.9323 15.5137C13.0194 15.7582 13.2156 16.0068 13.5025 16.2364C13.6819 16.3798 13.8004 16.4562 14.7506 17.0404C14.8544 17.1043 15.0479 17.2242 15.1806 17.3069C15.3132 17.3897 15.5203 17.5184 15.6406 17.5929L15.8595 17.7284L16.2384 17.5155C16.586 17.3202 16.8636 17.1601 17.3096 16.8983C17.5296 16.7691 17.9871 16.4773 18.1591 16.3565C18.4724 16.1364 18.7348 15.8291 18.835 15.5652L18.8824 15.4403L18.8826 13.291L18.8827 11.1418L15.8878 11.1365C13.449 11.1322 12.891 11.1362 12.8825 11.1584ZM21.1258 11.1585C21.1201 11.1734 21.118 12.1335 21.1212 13.292L21.1271 15.3983L21.1729 15.5197C21.3059 15.8712 21.6482 16.2111 22.2283 16.5675C22.8012 16.9195 23.9355 17.6209 24.0331 17.6834L24.1074 17.7311L24.3477 17.5949C25.4609 16.9641 26.1516 16.5439 26.4758 16.3004C26.6525 16.1677 26.9023 15.9091 26.9754 15.7833C27.0046 15.733 27.0501 15.6306 27.0766 15.5556L27.1246 15.4193L27.1326 13.679C27.137 12.7218 27.1339 11.757 27.1257 11.535L27.1109 11.1313H24.1236C21.6992 11.1313 21.1343 11.1365 21.1258 11.1585ZM4.34863 11.4605C4.24359 11.4773 4.06563 11.6796 3.9402 11.9246C3.8792 12.0437 3.83247 12.144 3.83633 12.1474C3.85466 12.1634 4.63545 12.5572 4.64895 12.5572C4.65745 12.5572 4.71299 12.4557 4.77237 12.3318C4.88715 12.0921 4.91777 11.9554 4.89328 11.7921C4.86093 11.5764 4.60321 11.4195 4.34863 11.4605ZM13.1879 12.1273V12.8088H15.8832H18.5786V12.1273V11.4459H15.8832H13.1879V12.1273ZM21.4312 12.0118V12.5777L22.3069 12.5831L23.1827 12.5886L23.189 12.6987L23.1953 12.8088H22.3133H21.4312V12.9219V13.0349L21.8101 13.2814L22.189 13.5279L22.8431 13.2651C23.4008 13.0411 23.4962 12.9966 23.4897 12.9632C23.4643 12.8321 23.4821 12.6244 23.5277 12.5203C23.5966 12.363 23.7869 12.1912 23.9423 12.1461C24.3821 12.0182 24.8074 12.3307 24.808 12.7822C24.8082 12.8736 24.7947 12.9675 24.7742 13.0189C24.7554 13.0657 24.7436 13.1074 24.7479 13.1114C24.7523 13.1155 24.9399 13.2362 25.1648 13.3796C25.3898 13.5231 25.6436 13.6853 25.7289 13.7401L25.8839 13.8397L26.033 13.7713C26.115 13.7337 26.3263 13.6343 26.5026 13.5504L26.8231 13.3978L26.8172 13.1085L26.8114 12.8193L25.9566 12.8138L25.1019 12.8083V12.6928V12.5773L25.9566 12.5786L26.8114 12.58V12.0182V11.4563L26.7323 11.4498C26.6887 11.4462 26.6274 11.4564 26.5959 11.4724C26.5644 11.4884 26.1825 11.6872 25.7471 11.914C25.3118 12.1409 24.9509 12.3265 24.9452 12.3265C24.9395 12.3265 24.9121 12.2817 24.8844 12.2269L24.834 12.1273L25.4419 11.8128C25.7762 11.6398 26.0653 11.4867 26.0844 11.4725C26.1121 11.452 25.9937 11.4478 25.5018 11.4516L24.8843 11.4563L24.7301 11.6975C24.6452 11.8301 24.5676 11.9524 24.5576 11.9694C24.5377 12.0029 24.4936 11.987 24.392 11.9099L24.3429 11.8726L24.4617 11.6886C24.527 11.5875 24.5855 11.4914 24.5917 11.4753C24.6012 11.4506 24.5255 11.4459 24.1183 11.4459C23.8517 11.4459 23.6336 11.4507 23.6336 11.4566C23.6336 11.4625 23.6854 11.5509 23.7487 11.6532C23.8119 11.7554 23.869 11.8528 23.8754 11.8697C23.8831 11.8896 23.8564 11.9207 23.7991 11.9586L23.7109 12.0169L23.6766 11.9715C23.6578 11.9465 23.577 11.818 23.4971 11.6859L23.3519 11.4459H22.7439C22.3994 11.4459 22.1446 11.4537 22.1559 11.464C22.1669 11.474 22.4543 11.626 22.7946 11.8017C23.1349 11.9774 23.4212 12.1285 23.4308 12.1374C23.4444 12.1502 23.3827 12.3068 23.3492 12.3444C23.3456 12.3485 23.2547 12.3047 23.1473 12.2472C23.0398 12.1897 22.8103 12.0696 22.6373 11.9802C22.298 11.805 21.8015 11.5471 21.6832 11.4845C21.643 11.4633 21.5699 11.4459 21.5207 11.4459H21.4312V12.0118ZM4.39922 11.6486C4.33672 11.6728 4.247 11.7737 4.16384 11.9131C4.11717 11.9913 4.0826 12.0587 4.08702 12.0627C4.10473 12.079 4.57168 12.3077 4.57476 12.3016C4.69124 12.0728 4.73229 11.9206 4.70584 11.8152C4.68084 11.7156 4.49151 11.6127 4.39922 11.6486ZM36.5544 12.2762C36.4333 12.3281 36.1832 12.4355 35.9986 12.5149C35.814 12.5943 35.4836 12.7361 35.2645 12.83C34.8471 13.0088 34.2848 13.2511 34.1685 13.3023C34.131 13.3188 34.1003 13.3408 34.1003 13.3513C34.1003 13.3617 34.1273 13.4302 34.1602 13.5036C34.1931 13.577 34.2556 13.7196 34.2992 13.8205C34.3428 13.9214 34.3871 14.004 34.3977 14.004C34.4083 14.004 34.4446 13.9897 34.4784 13.9723C34.5121 13.9548 34.6178 13.9087 34.7133 13.8697C34.8774 13.8028 35.1238 13.6979 35.7784 13.4164C36.5199 13.0975 36.8677 12.9485 36.9683 12.9068C37.0287 12.8817 37.0759 12.8563 37.0732 12.8502C37.0705 12.8442 37.0084 12.6979 36.9351 12.5252C36.8619 12.3525 36.7958 12.2046 36.7883 12.1966C36.7808 12.1885 36.6756 12.2244 36.5544 12.2762ZM23.9271 12.4156C23.7704 12.5222 23.687 12.7055 23.7255 12.8586L23.7388 12.9115L23.9378 12.8287C24.0473 12.7831 24.1466 12.7459 24.1584 12.7459C24.1703 12.7459 24.2577 12.7979 24.3526 12.8616L24.5251 12.9772L24.5504 12.9192C24.6181 12.7637 24.5503 12.5585 24.3907 12.4366C24.309 12.3741 24.2889 12.3685 24.149 12.3685C24.0253 12.3685 23.9833 12.3774 23.9271 12.4156ZM36.3762 12.5567C36.2262 12.6233 35.9336 12.7507 35.7259 12.8399C35.5183 12.9291 35.2115 13.061 35.0442 13.1331C34.8769 13.2051 34.6523 13.3006 34.545 13.3453C34.3251 13.4369 34.3313 13.4222 34.4246 13.6331C34.4536 13.6987 34.485 13.7523 34.4943 13.7523C34.5036 13.7523 34.7326 13.6569 35.0032 13.5402C35.2738 13.4235 35.5471 13.3068 35.6106 13.2808C35.717 13.2373 36.0421 13.0974 36.5995 12.8554C36.8499 12.7466 36.8362 12.7771 36.7362 12.5519C36.7067 12.4856 36.675 12.4323 36.6657 12.4335C36.6564 12.4347 36.5261 12.4901 36.3762 12.5567ZM23.8958 13.1365C23.7689 13.1888 23.6085 13.2528 23.5392 13.2789C23.47 13.3049 23.2671 13.3851 23.0883 13.4571C22.3136 13.7689 22.1427 13.8376 21.9346 13.9207C21.8135 13.969 21.7044 14.0126 21.6923 14.0174C21.6638 14.0288 21.5668 13.7964 21.5911 13.775C21.6012 13.7661 21.6639 13.7374 21.7305 13.7111C21.797 13.6848 21.8552 13.6572 21.8598 13.6497C21.8669 13.6383 21.5065 13.3999 21.4497 13.3784C21.4393 13.3745 21.4312 13.6922 21.4312 14.1071V14.8427H21.7547H22.0782L22.1415 14.6382C22.1763 14.5258 22.2266 14.356 22.2531 14.2608L22.3014 14.0878H22.5795H22.8575V14.0175C22.8575 13.9788 22.8636 13.8892 22.871 13.8183L22.8845 13.6894H23.3071H23.7297L23.7575 13.8729C23.7728 13.9738 23.7895 14.0634 23.7945 14.0719C23.7995 14.0804 23.8492 14.0643 23.9049 14.0361L24.0062 13.9848L24.1922 14.2271C24.2945 14.3603 24.4432 14.5533 24.5227 14.656L24.6671 14.8427H25.7445C26.7816 14.8427 26.8219 14.8412 26.8219 14.8036C26.8219 14.7643 26.7143 14.6888 26.1087 14.3034C25.7486 14.0743 25.337 13.8112 25.1185 13.6707C25.018 13.606 24.8391 13.4918 24.7209 13.4169C24.6028 13.3419 24.4228 13.2263 24.321 13.16C24.2192 13.0937 24.1338 13.0399 24.1312 13.0405C24.1286 13.041 24.0227 13.0842 23.8958 13.1365ZM13.1924 14.2189L13.1984 15.3564L13.264 15.4948C13.305 15.5814 13.3831 15.6899 13.4722 15.7844C13.7169 16.0437 13.6913 16.1903 13.6913 14.5289V13.0814H13.4389H13.1865L13.1924 14.2189ZM13.985 14.643V16.2046L14.0322 16.2332C14.0581 16.2488 14.1719 16.3198 14.2851 16.3909C14.3983 16.462 14.495 16.5201 14.5001 16.5201C14.5052 16.5201 14.5093 15.7464 14.5093 14.8007V13.0814H14.2472H13.985V14.643ZM14.8081 14.8996L14.8135 16.718L15.062 16.8706C15.1987 16.9546 15.3143 17.0234 15.319 17.0234C15.3236 17.0234 15.3274 16.1364 15.3274 15.0524V13.0814H15.0651H14.8028L14.8081 14.8996ZM15.621 15.147V17.2126L15.7412 17.2894L15.8614 17.3663L15.9981 17.2916L16.1349 17.2168L16.1403 15.1491L16.1456 13.0814H15.8833H15.621V15.147ZM16.4391 15.0649V17.0485L16.5177 17.0019C16.561 16.9763 16.679 16.9087 16.7799 16.8517L16.9635 16.7481V14.9147V13.0814H16.7013H16.4391V15.0649ZM17.2361 14.8232C17.2361 16.2763 17.2408 16.564 17.2645 16.5583C17.2801 16.5546 17.3977 16.4855 17.5259 16.4048L17.7589 16.258L17.7597 14.6697L17.7605 13.0814H17.4983H17.2361V14.8232ZM18.0542 14.5491C18.0542 15.6897 18.0599 16.0169 18.0797 16.0169C18.0938 16.0169 18.179 15.9419 18.2691 15.8503C18.3852 15.7322 18.4525 15.6422 18.5005 15.541L18.5681 15.3983L18.5742 14.2398L18.5802 13.0814H18.3172H18.0542V14.5491ZM26.6855 13.7635C26.6279 13.7913 26.4869 13.8571 26.3723 13.9097C26.1958 13.9907 26.1686 14.0096 26.194 14.0332C26.2315 14.068 26.7918 14.4233 26.8091 14.4233C26.8162 14.4233 26.8219 14.2629 26.8219 14.0669C26.8219 13.8708 26.8148 13.711 26.8061 13.7117C26.7975 13.7124 26.7432 13.7357 26.6855 13.7635ZM3.29779 13.8866C3.03983 13.9455 2.71989 14.1468 2.56872 14.3453C2.32489 14.6655 2.1833 15.1693 2.2348 15.5334C2.31637 16.11 2.6895 16.4967 3.36094 16.7006C3.53126 16.7523 3.58152 16.7579 3.87484 16.7584C4.15863 16.7588 4.21569 16.7531 4.32371 16.713C4.61732 16.6039 4.82169 16.4483 4.9829 16.2109C5.10055 16.0378 5.1631 15.8889 5.218 15.6514C5.25649 15.4849 5.26265 15.4099 5.25388 15.2147C5.23629 14.823 5.1304 14.5873 4.85426 14.3251C4.6801 14.1597 4.37934 13.9965 4.10557 13.9189C3.90332 13.8616 3.48155 13.8447 3.29779 13.8866ZM23.0595 13.9148C23.0537 13.935 23.0425 14.0247 23.0347 14.114L23.0204 14.2765H23.3287H23.637L23.6253 14.2189C23.6189 14.1872 23.603 14.0975 23.59 14.0197L23.5664 13.8782H23.3183C23.0999 13.8782 23.0688 13.8826 23.0595 13.9148ZM37.2047 14.0332C37.072 14.0704 36.9523 14.1049 36.9386 14.11C36.9209 14.1166 36.9404 14.2223 37.0062 14.4757C37.0571 14.6718 37.0989 14.8416 37.0991 14.8532C37.0994 14.8647 36.9415 14.9153 36.7483 14.9657C36.5552 15.0161 36.1672 15.1181 35.8863 15.1924C35.6053 15.2667 35.2673 15.3543 35.1351 15.387C35.0029 15.4197 34.8903 15.4508 34.8849 15.4563C34.874 15.4671 35.0519 16.1364 35.0707 16.1552C35.082 16.1665 35.2375 16.1274 36.4705 15.8038C37.2361 15.6029 37.2882 15.59 37.2965 15.5996C37.3006 15.6042 37.3442 15.7605 37.3934 15.9469C37.4427 16.1332 37.4902 16.2972 37.4988 16.3113C37.5218 16.3485 38.0856 16.2091 38.0856 16.1662C38.0856 16.1495 38.0256 15.9085 37.9523 15.6308C37.8789 15.353 37.7498 14.8639 37.6653 14.5439C37.5452 14.0889 37.5046 13.9624 37.4788 13.9639C37.4607 13.9649 37.3373 13.9961 37.2047 14.0332ZM3.41338 14.059C2.81242 14.1754 2.42819 14.6864 2.42769 15.3699C2.42727 15.9445 2.76088 16.3265 3.43436 16.5229C3.60763 16.5734 3.94936 16.594 4.12654 16.5646C4.43444 16.5135 4.73695 16.2907 4.8843 16.0064C5.2555 15.2902 5.07769 14.5964 4.43519 14.2541C4.23366 14.1467 3.91895 14.0647 3.67557 14.0562C3.56021 14.0522 3.44222 14.0534 3.41338 14.059ZM37.2781 14.2079C37.1335 14.2451 37.1367 14.2142 37.238 14.6053C37.2883 14.7993 37.3297 14.9694 37.33 14.9834C37.3303 14.9973 37.2951 15.0184 37.2519 15.0302C37.2086 15.042 36.8995 15.1232 36.5649 15.2106C36.2304 15.298 35.7726 15.4176 35.5476 15.4764C35.3227 15.5351 35.1324 15.5888 35.1248 15.5956C35.1115 15.6075 35.1803 15.9083 35.201 15.929C35.2105 15.9385 35.4815 15.8688 36.8202 15.5128C37.1221 15.4326 37.3834 15.3669 37.4009 15.3669C37.4383 15.3669 37.44 15.3718 37.5404 15.7709C37.5832 15.9414 37.6246 16.0872 37.6324 16.095C37.6453 16.1079 37.8319 16.0679 37.8518 16.048C37.8638 16.036 37.7979 15.7767 37.4465 14.4548C37.3787 14.1994 37.3686 14.1846 37.2781 14.2079ZM23.8692 14.2604C23.8402 14.2743 23.8256 14.2963 23.8317 14.3166C23.8372 14.3349 23.8763 14.5528 23.9185 14.8007C23.9608 15.0487 24.0019 15.2588 24.01 15.2677C24.0226 15.2816 24.2947 15.2262 24.5627 15.1552L24.6424 15.1341L24.6047 15.0843C24.0751 14.3841 23.958 14.2348 23.9392 14.236C23.9269 14.2368 23.8954 14.2478 23.8692 14.2604ZM22.4481 14.3028C22.4236 14.3696 22.3541 14.5774 22.3541 14.5839C22.3541 14.5878 22.4519 14.5911 22.5715 14.5911H22.7888L22.802 14.481C22.8282 14.2626 22.8395 14.2765 22.6366 14.2765C22.5126 14.2765 22.4547 14.2846 22.4481 14.3028ZM3.32256 14.4557C3.08134 14.5037 2.89525 14.6367 2.78962 14.8367C2.48054 15.4219 2.84405 15.9998 3.63096 16.1743C3.83851 16.2204 4.15211 16.2091 4.29804 16.1505C4.64094 16.0126 4.83536 15.6998 4.81449 15.3197C4.79968 15.0501 4.68174 14.859 4.42525 14.6891C4.2341 14.5625 4.06599 14.4954 3.8421 14.4562C3.62034 14.4175 3.51564 14.4174 3.32256 14.4557ZM22.9658 14.7052C22.9524 14.814 22.9414 14.932 22.9414 14.9673V15.0314H23.3507H23.76L23.7474 14.9423C23.7404 14.8933 23.7214 14.779 23.7052 14.6884C23.6889 14.5977 23.6756 14.5199 23.6756 14.5154C23.6756 14.5109 23.5213 14.5072 23.3328 14.5072H22.9901L22.9658 14.7052ZM3.34897 14.6393C3.20539 14.6801 3.06265 14.7721 2.99245 14.869C2.8599 15.0518 2.83417 15.3225 2.93099 15.5152C3.15991 15.9707 4.08182 16.179 4.42781 15.8533C4.66366 15.6312 4.69749 15.2411 4.5015 15.0034C4.28052 14.7354 3.67912 14.5454 3.34897 14.6393ZM22.2396 14.9632C22.1704 15.2302 22.1434 15.1991 22.4448 15.1991C22.5897 15.1991 22.7124 15.1921 22.7176 15.1834C22.7227 15.1747 22.7337 15.0899 22.742 14.9947L22.757 14.8217H22.5166H22.2762L22.2396 14.9632ZM21.4349 15.2362C21.4498 15.4419 21.5483 15.6173 21.7731 15.8384C21.9635 16.0257 22.1109 16.133 22.5429 16.3992C22.664 16.4738 22.8906 16.6134 23.0463 16.7095C23.2021 16.8055 23.4239 16.9422 23.5392 17.0134C23.6546 17.0845 23.8288 17.1923 23.9263 17.253L24.1036 17.3634L24.2095 17.3095C24.4047 17.2101 25.1954 16.7569 25.3907 16.6325C25.4515 16.5937 25.5059 16.5621 25.5116 16.5621C25.5329 16.5621 25.6677 16.4671 25.668 16.452C25.6681 16.4433 25.2765 16.4362 24.7978 16.4362H23.9273V16.3104V16.1846H25.0207H26.1141L26.2556 16.0798C26.4438 15.9403 26.676 15.6932 26.7332 15.5716C26.7897 15.4514 26.8207 15.3224 26.8214 15.2044L26.8219 15.1153H25.857C24.9637 15.1153 24.8394 15.1222 24.913 15.1676C24.9245 15.1747 24.9431 15.1978 24.9545 15.219C24.977 15.261 24.9503 15.2689 24.2217 15.4343L23.9184 15.5032L24.4735 15.5137L25.0285 15.5241L24.8565 15.6553L24.6845 15.7866L23.3484 15.7811L22.0123 15.7758L21.9632 15.6447L21.9142 15.5137H22.8805H23.8467L23.8345 15.4508C23.8279 15.4162 23.8169 15.3595 23.8103 15.3249L23.7981 15.262H23.3502H22.9023L22.8956 15.3197L22.889 15.3774L22.4043 15.383L21.9196 15.3886L21.9481 15.2788C21.9932 15.105 22.0087 15.1153 21.7014 15.1153H21.4262L21.4349 15.2362ZM38.0925 17.2601C38.0098 17.3202 37.7238 17.5203 37.4569 17.7048C37.1901 17.8893 36.8817 18.1041 36.7717 18.1822L36.5717 18.3241L36.2117 18.3446C36.0138 18.3558 35.7538 18.3713 35.6341 18.3789L35.4165 18.3928L35.4303 18.6149C35.4379 18.7371 35.4498 18.9049 35.4567 18.9878L35.4693 19.1385L35.5661 19.1289C35.6194 19.1236 35.8774 19.1056 36.1394 19.0888L36.6159 19.0584L37.0309 19.27C37.2591 19.3864 37.6652 19.5937 37.9333 19.7307C38.2014 19.8677 38.4279 19.9798 38.4367 19.9799C38.4455 19.9799 38.4466 19.8879 38.4391 19.7754C38.4316 19.663 38.4245 19.4883 38.4233 19.3873L38.4212 19.2036L37.986 18.9873C37.7466 18.8683 37.5006 18.7453 37.4394 18.7139L37.328 18.6569L37.5757 18.4947C37.712 18.4055 37.9397 18.2574 38.0817 18.1655L38.3399 17.9984L38.3286 17.883C38.3224 17.8196 38.3119 17.6639 38.3054 17.5371C38.2915 17.2694 38.2764 17.1488 38.2568 17.15C38.2492 17.1505 38.1753 17.2 38.0925 17.2601ZM37.8969 17.6301C37.7988 17.6985 37.6289 17.8172 37.5193 17.8938C36.7813 18.4098 36.6254 18.5121 36.5762 18.5124C36.5469 18.5126 36.3295 18.5266 36.093 18.5435C35.8565 18.5605 35.6549 18.5745 35.645 18.5747C35.6245 18.575 35.6349 18.8999 35.6561 18.9211C35.6638 18.9287 35.8924 18.9196 36.1643 18.9008L36.6585 18.8666L37.4469 19.268C37.8806 19.4888 38.2382 19.6661 38.2417 19.6621C38.2452 19.6581 38.2433 19.5794 38.2374 19.4871L38.2268 19.3193L37.5899 19.0059C37.2396 18.8335 36.9532 18.6873 36.9535 18.6809C36.9538 18.6745 37.0695 18.5944 37.2105 18.5029C37.3515 18.4114 37.5565 18.2782 37.6661 18.2069C37.7757 18.1357 37.9242 18.0407 37.9961 17.9959L38.1267 17.9145L38.1272 17.7432C38.1276 17.5764 38.1161 17.5056 38.0886 17.5057C38.0812 17.5057 37.9949 17.5617 37.8969 17.6301ZM1.81948 17.6668C1.70972 17.9138 1.68319 18.0619 1.68304 18.4282C1.68289 18.8172 1.70666 18.9423 1.82836 19.1938C1.95213 19.4495 2.16512 19.668 2.41449 19.7952C2.67593 19.9285 3.13107 20.0028 3.4443 19.9632C4.13007 19.8767 4.53892 19.4494 4.66202 18.6908C4.67889 18.5867 4.69275 18.4383 4.69279 18.3608C4.6929 18.199 4.65225 17.8142 4.63152 17.7807C4.61367 17.7519 3.95874 17.7214 3.95874 17.7495C3.95874 17.7603 3.97967 17.8255 4.00524 17.8943C4.04459 18.0001 4.05185 18.0628 4.05244 18.3024C4.05305 18.5497 4.0469 18.6019 4.0039 18.7151C3.91784 18.9418 3.73829 19.1016 3.48931 19.1731C3.30548 19.226 2.98481 19.2089 2.8103 19.1371C2.46857 18.9963 2.29737 18.747 2.29479 18.3863C2.29328 18.1737 2.34806 17.9746 2.45774 17.7941C2.54322 17.6535 2.57086 17.6727 2.2073 17.6205C2.0804 17.6023 1.95131 17.5825 1.92046 17.5766C1.87003 17.567 1.85978 17.5761 1.81948 17.6668ZM1.97046 17.8129C1.89648 17.9546 1.87318 18.1085 1.87412 18.4492C1.87498 18.7658 1.87964 18.808 1.92885 18.9468C2.0758 19.3611 2.34385 19.6031 2.79899 19.7323C2.93122 19.7699 3.01646 19.7787 3.24558 19.7787C3.4977 19.7787 3.54544 19.7727 3.68111 19.724C4.07647 19.5821 4.31887 19.2996 4.44403 18.8345C4.49162 18.6577 4.50859 18.2255 4.47582 18.0246L4.45957 17.925H4.33359C4.21919 17.925 4.20879 17.9286 4.22032 17.965C4.22731 17.987 4.24138 18.079 4.25158 18.1694C4.31847 18.7623 4.03517 19.2285 3.52791 19.3606C3.36765 19.4023 3.04589 19.4019 2.88321 19.3598C2.62473 19.2928 2.39519 19.1388 2.25888 18.9407C2.09665 18.705 2.0573 18.3223 2.16207 17.9991C2.2189 17.8238 2.21439 17.8005 2.1234 17.7992C2.10032 17.7989 2.06102 17.7931 2.03605 17.7864C2.00472 17.778 1.98439 17.7862 1.97046 17.8129ZM11.426 20.6072C11.426 23.0868 11.4356 23.3234 11.564 23.9874C11.8578 25.5061 12.6082 26.9469 13.8669 28.409C14.1093 28.6906 14.9571 29.5374 15.2421 29.7827C15.9604 30.4008 16.5417 30.8461 17.2571 31.326C17.638 31.5816 18.2627 31.973 18.5156 32.1147C18.556 32.1373 18.6757 32.2046 18.7815 32.2643C19.1722 32.4847 19.8105 32.8123 19.8491 32.8123C19.854 32.8123 19.8581 31.8547 19.8581 30.6844V28.5566L19.8004 28.5449C19.6789 28.5204 19.5169 28.4207 19.421 28.3114L19.3232 28.1998L17.0107 28.1996L14.6981 28.1993V27.8433V27.4872L14.2524 27.4816L13.8067 27.4759L13.8011 26.8731L13.7955 26.2702H14.2468H14.6981V25.5678V24.8654H14.2472H13.7962V24.2678V23.6702H14.2474H14.6987L14.6932 22.9625L14.6876 22.2549L14.2419 22.2492L13.7962 22.2435V21.6464V21.0492H14.2472H14.6981V20.6928V20.3363H15.0537H15.4094L15.4156 20.1948L15.4218 20.0532L16.2922 20.0405C17.1534 20.0279 17.4177 20.011 18.3898 19.9064C18.8583 19.856 19.3603 19.866 19.625 19.9311C19.6551 19.9385 19.7199 19.9616 19.7689 19.9824L19.8581 20.0203V19.2452V18.4701H15.642H11.426V20.6072ZM20.1657 18.4841C20.1453 18.5046 20.1486 19.9964 20.1691 20.0091C20.1786 20.015 20.2424 19.9973 20.3107 19.9699C20.5598 19.8697 21.0923 19.8443 21.6515 19.9058C22.596 20.0097 23.1333 20.0427 23.8796 20.0427H24.6195V20.1895V20.3363H24.976H25.3326V20.6923V21.0484L25.7784 21.054L26.2241 21.0597L26.2297 21.6516L26.2352 22.2435L25.7892 22.2492L25.3431 22.2549L25.3376 22.9625L25.3321 23.6702H25.7836H26.2352L26.2297 24.2626L26.2241 24.8549L25.7784 24.8606L25.3326 24.8662V25.5682V26.2702H25.7839H26.2352L26.2296 26.8731L26.2241 27.4759L25.7784 27.4816L25.3326 27.4872V27.8433V28.1993H23.0174H20.7021L20.6267 28.2914C20.5338 28.4046 20.3807 28.5085 20.2798 28.5267C20.2382 28.5341 20.1924 28.5496 20.1779 28.5611C20.1573 28.5775 20.1517 29.03 20.1517 30.697C20.1517 31.8604 20.1553 32.8123 20.1597 32.8123C20.231 32.8123 21.3009 32.2292 21.881 31.8742C23.9673 30.5972 25.6557 29.1295 26.7842 27.6119C26.9443 27.3966 27.3463 26.8064 27.3463 26.7866C27.3463 26.7823 27.3989 26.6911 27.4633 26.5839C27.8932 25.8675 28.2499 24.9322 28.4143 24.0896C28.5314 23.4891 28.528 23.5778 28.5362 20.9286L28.5438 18.4701H24.3617C22.0616 18.4701 20.1734 18.4764 20.1657 18.4841ZM18.4317 20.2107C17.5094 20.3131 16.8641 20.3573 16.2909 20.3573H15.7259V23.8242V27.2911L16.1192 27.3052C16.4143 27.3158 16.6774 27.3087 17.1732 27.277C18.5294 27.1901 19.2597 27.1554 19.3694 27.1727C19.5086 27.1947 19.6326 27.2502 19.7584 27.3468L19.8581 27.4232V23.9149V20.4065L19.8109 20.3634C19.6221 20.1909 19.1156 20.1348 18.4317 20.2107ZM20.8229 20.1829C20.4838 20.218 20.2776 20.2868 20.1942 20.3928C20.1519 20.4465 20.1517 20.4644 20.1517 23.9351C20.1517 25.8537 20.1563 27.4235 20.162 27.4235C20.1677 27.4235 20.2172 27.389 20.2721 27.3469C20.4017 27.2475 20.5119 27.1995 20.6664 27.1751C20.7888 27.1558 21.6559 27.1969 23.0148 27.2866C23.3697 27.31 23.6374 27.3156 23.9221 27.3055L24.3259 27.2912L24.3206 23.8295L24.3153 20.3677L23.6336 20.3551C22.9711 20.3428 22.5677 20.3144 21.5885 20.2111C21.2183 20.1721 21.0037 20.1641 20.8229 20.1829ZM15.0179 24.273L15.0232 27.8953L17.293 27.9006L19.5628 27.9059L19.5865 27.9937C19.6446 28.2094 19.9162 28.3186 20.1993 28.24C20.3028 28.2113 20.4169 28.0952 20.4453 27.9898L20.468 27.9057H22.743H25.018V24.2783V20.6508H24.8182H24.6185L24.62 24.1263L24.6214 27.6017L23.965 27.6078C23.4843 27.6123 23.1232 27.6025 22.6163 27.5712C22.2356 27.5478 21.662 27.5138 21.3415 27.4957C20.5968 27.4536 20.6081 27.4511 20.3287 27.7172C20.0339 27.9979 19.951 27.9967 19.6764 27.7077C19.4284 27.4468 19.4658 27.4532 18.5022 27.507C18.077 27.5307 17.5167 27.5641 17.2571 27.5811C16.9975 27.5981 16.4761 27.6121 16.0982 27.6121L15.4113 27.6122V24.1315V20.6508H15.212H15.0126L15.0179 24.273ZM17.8864 20.8824C17.4422 20.9266 16.9977 20.9633 16.8986 20.964C16.7995 20.9648 16.6032 20.9715 16.4625 20.9791L16.2066 20.9928L16.2127 21.1416L16.2188 21.2903L16.5544 21.2836C16.8612 21.2774 17.7733 21.2111 18.3688 21.1518C18.5015 21.1385 18.7728 21.1266 18.9718 21.1252L19.3335 21.1226L19.3336 20.9736L19.3337 20.8245L19.2047 20.8111C18.971 20.7866 18.7036 20.8011 17.8864 20.8824ZM20.7757 20.813L20.6761 20.8209L20.6762 20.9717V21.1226L21.0485 21.1252C21.2532 21.1266 21.6284 21.1475 21.8822 21.1717C22.5384 21.234 23.1334 21.2767 23.492 21.2873L23.8014 21.2965V21.1436V20.9908L23.4501 20.9784C23.2568 20.9717 22.674 20.9279 22.1549 20.8812C21.2861 20.8031 21.0499 20.7914 20.7757 20.813ZM14.1108 21.6573V21.9508H14.4045H14.6981V21.6573V21.3637H14.4045H14.1108V21.6573ZM25.3326 21.6573V21.9508H25.6263H25.9199V21.6573V21.3637H25.6263H25.3326V21.6573ZM17.9178 21.4593C17.5371 21.4973 17.0841 21.534 16.911 21.541C16.738 21.548 16.5091 21.559 16.4024 21.5655L16.2083 21.5773V21.7221V21.867H16.4994C16.7964 21.867 17.5871 21.8118 18.1905 21.7489C18.3751 21.7297 18.7078 21.713 18.9298 21.7118L19.3335 21.7097L19.3336 21.5604L19.3337 21.4112L19.255 21.3982C19.0859 21.3702 18.5796 21.3934 17.9178 21.4593ZM20.7338 21.3997C20.677 21.4083 20.6761 21.4108 20.6762 21.5591L20.6763 21.7097L21.0695 21.7115C21.2952 21.7125 21.6726 21.7328 21.9556 21.7592C22.2267 21.7844 22.5523 21.8147 22.6792 21.8265C22.8061 21.8382 23.1106 21.8536 23.3557 21.8606L23.8014 21.8734V21.7253V21.5772L23.6284 21.5655C23.5332 21.5592 23.3162 21.5488 23.1462 21.5426C22.9761 21.5364 22.4913 21.4983 22.0688 21.458C21.3716 21.3915 20.9188 21.3717 20.7338 21.3997ZM17.9913 22.4761C17.674 22.5083 17.1549 22.5455 16.8376 22.5588C16.5204 22.5721 16.249 22.5868 16.2346 22.5913C16.2168 22.5969 16.2083 22.6478 16.2083 22.7488V22.8981L16.5597 22.8846C17.0736 22.8649 17.5261 22.8346 18.0122 22.7872C18.2487 22.7642 18.6428 22.7398 18.8879 22.7331L19.3337 22.7208V22.5792C19.3337 22.4694 19.3262 22.4347 19.3005 22.4249C19.2205 22.3942 18.5349 22.421 17.9913 22.4761ZM20.7128 22.4266C20.6823 22.4345 20.6761 22.4607 20.6761 22.5814V22.7267L20.9855 22.727C21.2938 22.7273 21.4855 22.7396 22.1024 22.7985C22.4598 22.8326 22.9616 22.8644 23.4711 22.8853L23.8014 22.8988V22.7393V22.5799L23.6703 22.5797C23.345 22.5795 22.5833 22.5315 21.9975 22.4745C21.4138 22.4176 20.8303 22.3959 20.7128 22.4266ZM18.7149 22.9929C18.6688 22.9971 18.2818 23.0326 17.8549 23.0719C17.4281 23.1111 16.8915 23.1485 16.6626 23.155C16.4337 23.1615 16.2379 23.1722 16.2274 23.1787C16.2046 23.1927 16.2016 23.4544 16.2241 23.4665C16.2327 23.4711 16.4569 23.4674 16.7222 23.4582C17.1882 23.4421 17.5778 23.4142 18.3045 23.3447C18.494 23.3266 18.8032 23.3099 18.9914 23.3075L19.3336 23.3033L19.3337 23.1544V23.0056L19.1292 22.992C18.9249 22.9785 18.8728 22.9786 18.7149 22.9929ZM20.8282 22.9925L20.6761 23.0011V23.1522V23.3033L21.0169 23.3074C21.2044 23.3097 21.6174 23.3353 21.9346 23.3643C22.5744 23.4229 23.0778 23.4556 23.513 23.4668L23.8014 23.4743V23.3238V23.1734L23.5779 23.1597C23.455 23.1522 23.2574 23.146 23.1388 23.146C23.0202 23.146 22.5804 23.1133 22.1615 23.0734C21.3475 22.9958 21.0699 22.979 20.8282 22.9925ZM35.2346 23.4134C35.1724 23.6526 35.0758 24.0195 35.0199 24.2286C34.9641 24.4377 34.9184 24.6222 34.9184 24.6386C34.9184 24.6596 35.0654 24.7099 35.4165 24.8088C35.9889 24.9701 36.5162 25.117 36.5227 25.117C36.5252 25.117 36.5329 25.0109 36.5398 24.8811C36.5546 24.6038 36.6072 24.4045 36.7021 24.2666C36.8597 24.0377 37.146 24.0434 37.3055 24.2788C37.3498 24.3441 37.3541 24.3701 37.3471 24.5299C37.3378 24.743 37.291 24.8621 37.1263 25.0916C37.0645 25.1776 37.0189 25.2528 37.0249 25.2588C37.039 25.2729 37.6267 25.4516 37.6605 25.4521C37.7156 25.4529 37.9128 24.9706 37.9715 24.6919C38.0538 24.3009 37.9696 23.9212 37.7471 23.68C37.5544 23.471 37.2929 23.3679 36.953 23.3668C36.7693 23.3663 36.7101 23.3747 36.5964 23.4175C36.3449 23.5123 36.116 23.8084 36.0505 24.1237C36.0376 24.1857 36.0217 24.2363 36.0151 24.2363C35.986 24.2363 35.7033 24.147 35.6887 24.1332C35.6695 24.1151 35.7041 23.9597 35.8326 23.4864C35.8845 23.2955 35.9194 23.1323 35.9103 23.1237C35.8922 23.1067 35.4199 22.9783 35.3753 22.9783C35.3571 22.9783 35.3095 23.1253 35.2346 23.4134ZM4.61946 23.131C4.57332 23.1419 4.29487 23.2148 4.00069 23.2931C3.34639 23.467 2.43373 23.7083 2.126 23.7888C2.00052 23.8216 1.89376 23.8591 1.88877 23.8721C1.88075 23.8929 2.04006 24.5179 2.06269 24.5545C2.0675 24.5622 2.19167 24.5361 2.33862 24.4964C2.86838 24.3532 3.18831 24.276 3.21267 24.2853C3.22632 24.2905 3.24763 24.3359 3.26001 24.3862C3.33449 24.6885 3.45426 25.1439 3.46106 25.1507C3.46729 25.1569 3.9209 25.0395 4.03496 25.0022C4.05097 24.9969 4.02513 24.8652 3.95597 24.5996C3.89944 24.3825 3.8478 24.1807 3.84121 24.1512C3.82947 24.0986 3.83354 24.0965 4.05632 24.0426C4.1812 24.0124 4.28612 23.9905 4.28948 23.9938C4.29451 23.9989 4.43522 24.5061 4.52335 24.8371L4.54653 24.9241L4.67738 24.8858C4.74936 24.8647 4.88449 24.8273 4.97766 24.8027L5.1471 24.7579L5.01428 24.2612C4.94125 23.9881 4.84275 23.6183 4.7954 23.4396C4.74806 23.2608 4.70798 23.1138 4.70634 23.1128C4.70471 23.1119 4.66561 23.1201 4.61946 23.131ZM35.4782 23.2246C35.4733 23.2333 35.4576 23.2923 35.4433 23.3557C35.429 23.4191 35.3569 23.6983 35.2832 23.9761C35.2094 24.2538 35.1491 24.4946 35.1491 24.5111C35.1491 24.5312 35.2102 24.5576 35.3326 24.5905C35.4336 24.6176 35.6953 24.6906 35.9143 24.7526C36.1332 24.8146 36.3183 24.8654 36.3256 24.8654C36.3329 24.8654 36.3452 24.8036 36.353 24.728C36.3815 24.4499 36.5138 24.1475 36.6577 24.0314C36.8692 23.8609 37.1864 23.8798 37.39 24.0749C37.496 24.1765 37.524 24.248 37.5353 24.4453C37.5482 24.6729 37.505 24.8497 37.3928 25.0286C37.3381 25.1159 37.3189 25.1633 37.336 25.1687C37.3503 25.1732 37.4109 25.1905 37.4707 25.2072L37.5794 25.2374L37.6257 25.13C37.7773 24.7782 37.8013 24.6793 37.8019 24.4041C37.8024 24.1635 37.7979 24.1322 37.7467 24.023C37.5989 23.7078 37.2718 23.5269 36.89 23.5493C36.5202 23.571 36.2967 23.8146 36.2212 24.2781L36.1885 24.4794L35.9257 24.4071C35.7812 24.3673 35.6134 24.3214 35.5529 24.305C35.4893 24.2879 35.4427 24.2634 35.4427 24.2471C35.4427 24.2316 35.4994 24.0073 35.5686 23.7487C35.6378 23.4902 35.6945 23.2728 35.6945 23.2657C35.6945 23.2523 35.5559 23.2092 35.5122 23.209C35.4984 23.209 35.4831 23.216 35.4782 23.2246ZM4.3363 23.4013C4.24977 23.4246 3.92885 23.5097 3.62313 23.5905C2.6457 23.8488 2.12358 23.9892 2.1166 23.9956C2.11287 23.999 2.13049 24.0785 2.15578 24.1721C2.19261 24.3086 2.20856 24.3404 2.23599 24.332C2.44501 24.2684 3.28749 24.0476 3.3213 24.0476C3.35878 24.0476 3.37122 24.0699 3.4005 24.1892C3.41961 24.267 3.47163 24.4628 3.5161 24.6243C3.60453 24.9454 3.5881 24.9272 3.75213 24.8847L3.82869 24.8649L3.75683 24.5873C3.71731 24.4346 3.66498 24.2364 3.64052 24.1468C3.61609 24.0572 3.60017 23.9797 3.60516 23.9748C3.6169 23.963 4.38095 23.7541 4.41221 23.7541C4.42525 23.7541 4.44176 23.78 4.44889 23.8117C4.48178 23.958 4.66968 24.6605 4.67819 24.669C4.68742 24.6782 4.88308 24.6362 4.90087 24.6212C4.90565 24.6171 4.83486 24.3308 4.74355 23.985C4.55482 23.2702 4.59725 23.331 4.3363 23.4013ZM14.1248 23.9777C14.1171 23.9854 14.1108 24.1175 14.1108 24.2713V24.5509H14.4045H14.6981V24.2573V23.9638H14.4185C14.2646 23.9638 14.1325 23.9701 14.1248 23.9777ZM25.3326 24.2567V24.5509H25.6269H25.9211L25.9153 24.2626L25.9094 23.9742L25.621 23.9684L25.3326 23.9626V24.2567ZM18.4947 24.0305C17.5537 24.1191 17.0998 24.1543 16.7709 24.164C16.5595 24.1703 16.3465 24.1803 16.2975 24.1862L16.2083 24.197V24.3457V24.4944L16.6331 24.4815C17.0353 24.4693 17.8405 24.4097 18.2536 24.3616C18.3575 24.3495 18.6429 24.3376 18.8879 24.3351L19.3334 24.3307L19.3335 24.1817L19.3337 24.0326L19.2047 24.0192C19.0398 24.0019 18.7486 24.0066 18.4947 24.0305ZM20.7652 24.021L20.6761 24.0291L20.6762 24.1799L20.6763 24.3307L21.1076 24.3342C21.3448 24.3362 21.635 24.3481 21.7525 24.3607C22.2576 24.4148 22.9826 24.4685 23.3767 24.4811L23.8014 24.4946V24.3458V24.197L23.7123 24.1862C23.6632 24.1803 23.455 24.1704 23.2494 24.1644C22.9255 24.1549 22.5532 24.1259 21.4824 24.0271C21.2602 24.0066 20.9545 24.004 20.7652 24.021ZM18.5051 24.6171C17.6969 24.6961 17.1109 24.7428 16.8166 24.7517C16.6263 24.7575 16.4116 24.7673 16.3394 24.7735L16.2083 24.7848V24.9332V25.0816L16.6541 25.0684C16.8992 25.0611 17.3122 25.0361 17.5717 25.0128C18.3789 24.9403 18.9591 24.9032 19.1501 24.9119L19.3337 24.9202V24.77V24.6198L19.1921 24.6065C19.0116 24.5894 18.7459 24.5935 18.5051 24.6171ZM20.7233 24.6076C20.6796 24.616 20.6761 24.6277 20.6762 24.7673L20.6763 24.9178L21.0905 24.9205C21.351 24.9221 21.7885 24.9471 22.2702 24.9878C22.6913 25.0234 23.2081 25.059 23.4186 25.0669L23.8014 25.0812V24.9241V24.767L23.3557 24.7526C22.9678 24.7401 22.6371 24.7148 21.5453 24.6142C21.3195 24.5934 20.8181 24.5893 20.7233 24.6076ZM17.8864 25.6946C17.4999 25.7329 17.0044 25.77 16.7852 25.777C16.566 25.7841 16.3465 25.7947 16.2975 25.8007L16.2083 25.8115V25.9603V26.1092L16.6331 26.0955C16.9977 26.0838 17.6077 26.0382 18.4947 25.9565C18.6158 25.9453 18.8541 25.9358 19.0243 25.9355L19.3337 25.9348V25.7904C19.3337 25.6585 19.3296 25.645 19.2865 25.6334C19.1687 25.6019 18.5482 25.629 17.8864 25.6946ZM20.7128 25.6347C20.6824 25.6426 20.6761 25.6687 20.6761 25.7865V25.9287L21.1323 25.941C21.3832 25.9478 21.6688 25.9631 21.7668 25.975C22.1267 26.0185 22.9842 26.0823 23.3872 26.0955L23.8014 26.1091V25.9603V25.8115L23.7123 25.8007C23.6632 25.7948 23.4531 25.7846 23.2452 25.7782C23.0374 25.7718 22.5247 25.7336 22.106 25.6934C21.4083 25.6263 20.8369 25.6023 20.7128 25.6347ZM4.45166 25.7756C3.77028 25.9325 3.24226 26.3738 3.10769 26.8989C3.0516 27.1178 3.074 27.4679 3.15861 27.6949C3.35171 28.2127 3.71635 28.5686 4.16061 28.6728C4.35866 28.7193 4.71209 28.7039 4.91312 28.6402C5.416 28.4806 5.81363 28.1755 5.99511 27.8099C6.25586 27.2848 6.09409 26.546 5.62055 26.0994C5.4534 25.9418 5.33214 25.8665 5.15018 25.8075C4.97762 25.7516 4.62586 25.7355 4.45166 25.7756ZM34.482 25.8799C34.1676 26.2123 34.0076 26.6623 34.0785 27.0146C34.0924 27.0838 34.1381 27.2112 34.1799 27.2977C34.4046 27.762 35.1867 28.2565 35.8374 28.3455C36.3322 28.4133 36.7202 28.1524 36.8928 27.6358C36.9276 27.5317 36.9391 27.4487 36.9385 27.3048C36.9378 27.1341 36.9304 27.0971 36.8716 26.9715C36.7389 26.6881 36.4041 26.4375 36.0301 26.3419C35.6704 26.2499 35.3172 26.4002 35.12 26.7292C35.0222 26.8923 34.974 27.0507 34.987 27.1659L34.9976 27.2601L34.8962 27.1602C34.6255 26.8936 34.6509 26.6025 34.9735 26.2754L35.1235 26.1233L34.9213 25.9817C34.7021 25.8281 34.6098 25.767 34.597 25.767C34.5925 25.767 34.5408 25.8178 34.482 25.8799ZM4.46683 25.9654C4.15492 26.0362 3.82592 26.2159 3.60189 26.438C3.35092 26.6868 3.25179 26.9379 3.27182 27.2742C3.30504 27.8321 3.68006 28.3374 4.16707 28.4804C4.29992 28.5194 4.5789 28.5242 4.73904 28.4903C5.03257 28.428 5.37365 28.2466 5.58525 28.0402C5.82374 27.8076 5.92971 27.5631 5.93017 27.2444C5.93095 26.7141 5.57768 26.1723 5.11626 25.996C4.96312 25.9375 4.65378 25.9229 4.46683 25.9654ZM34.5786 26.0553C34.5027 26.1433 34.3723 26.3567 34.3184 26.4811C34.2682 26.5967 34.2596 26.645 34.2587 26.8154C34.2577 27.0019 34.2625 27.0247 34.3329 27.1719C34.4726 27.4639 34.7815 27.7361 35.2012 27.9372C35.7314 28.1911 36.0332 28.232 36.32 28.0888C36.5144 27.9918 36.6929 27.7158 36.7456 27.4307C36.8001 27.1359 36.6466 26.858 36.3245 26.6683C35.9358 26.4394 35.6191 26.4486 35.3865 26.6954C35.2363 26.8548 35.1806 26.9808 35.1806 27.1614C35.1806 27.2838 35.1901 27.3245 35.2382 27.4062C35.27 27.4602 35.2959 27.5082 35.2959 27.513C35.2959 27.5177 35.2592 27.5337 35.2144 27.5485C35.1346 27.5749 35.1299 27.5734 34.9838 27.479C34.7911 27.3544 34.6595 27.2156 34.579 27.0521C34.5191 26.9304 34.5152 26.9089 34.5241 26.7477C34.535 26.5505 34.5836 26.4338 34.7275 26.2597C34.7748 26.2025 34.8135 26.1508 34.8134 26.1448C34.8134 26.1333 34.6381 26.0186 34.6205 26.0186C34.6149 26.0186 34.596 26.0351 34.5786 26.0553ZM18.7464 26.2C18.6829 26.2045 18.3337 26.2371 17.9703 26.2724C17.6069 26.3078 17.0641 26.3477 16.7642 26.3611L16.2188 26.3856L16.2126 26.5399L16.2064 26.6942L16.5797 26.6804C16.9883 26.6653 17.4999 26.6283 18.2115 26.5623C18.4653 26.5388 18.8216 26.5183 19.0033 26.5166L19.3337 26.5137V26.3605V26.2073L19.2026 26.2072C19.1305 26.2071 19.0243 26.2036 18.9666 26.1994C18.9089 26.1953 18.8098 26.1956 18.7464 26.2ZM20.8491 26.2017L20.6761 26.209V26.3611V26.5131L21.0169 26.5162C21.2044 26.5179 21.5135 26.5343 21.7039 26.5527C22.3106 26.6112 23.0452 26.6654 23.4291 26.68L23.8014 26.6941V26.5377V26.3813L23.3662 26.3668C23.1268 26.3588 22.5817 26.3204 22.1549 26.2814C21.2912 26.2025 21.1012 26.1909 20.8491 26.2017ZM4.52805 26.3441C3.82328 26.5405 3.41197 27.0715 3.58013 27.5679C3.66811 27.8275 3.81384 27.9978 4.03572 28.1001C4.12252 28.1402 4.17158 28.1467 4.37825 28.1458C4.59719 28.1448 4.6358 28.1385 4.79656 28.0776C5.44801 27.831 5.77659 27.3524 5.61734 26.8822C5.56541 26.7289 5.45118 26.5476 5.36761 26.4859C5.33571 26.4623 5.25814 26.4164 5.19526 26.3839C5.09466 26.3319 5.05445 26.3241 4.86068 26.3188C4.71245 26.3147 4.60369 26.323 4.52805 26.3441ZM4.52503 26.5401C4.21636 26.6389 3.90326 26.8721 3.78907 27.0884C3.71836 27.2224 3.71922 27.4542 3.79102 27.6017C3.93709 27.9019 4.20369 28.0165 4.57663 27.9394C4.90544 27.8714 5.24132 27.6521 5.38506 27.4117C5.45284 27.2982 5.45846 27.2759 5.45808 27.1203C5.45772 26.9785 5.4487 26.9346 5.40134 26.8442C5.32824 26.7047 5.23318 26.6112 5.10234 26.5503C4.96916 26.4883 4.70156 26.4836 4.52503 26.5401ZM14.1108 26.8783V27.1719H14.4045H14.6981V26.8783V26.5848H14.4045H14.1108V26.8783ZM25.3326 26.8783V27.1719H25.6263H25.9199V26.8783V26.5848H25.6263H25.3326V26.8783ZM35.5689 26.924C35.3603 27.0319 35.2788 27.288 35.3861 27.4984C35.5109 27.7429 35.948 27.9428 36.1862 27.8642C36.2869 27.831 36.3992 27.7319 36.4508 27.6308C36.504 27.5265 36.5041 27.3623 36.4512 27.2601C36.2994 26.9677 35.8301 26.7889 35.5689 26.924ZM35.6004 27.1359C35.4421 27.2942 35.5393 27.5086 35.8246 27.6303C35.9711 27.6928 36.058 27.7013 36.1548 27.6626C36.2555 27.6223 36.3027 27.5471 36.3027 27.427C36.3027 27.2655 36.0528 27.0865 35.8049 27.0706C35.6786 27.0625 35.6716 27.0647 35.6004 27.1359ZM33.3242 28.4152C33.0632 28.4895 32.7943 28.7004 32.6165 28.9702C32.4935 29.1569 32.4391 29.3124 32.4278 29.5098C32.4141 29.7505 32.4674 29.8837 32.6511 30.0674C32.8585 30.2747 33.0998 30.351 33.3584 30.2908L33.487 30.261L33.4968 30.4142C33.5343 30.9983 34.2044 31.3412 34.7188 31.0395C34.9591 30.8985 35.2439 30.5422 35.3405 30.2618C35.4163 30.0415 35.4099 29.8263 35.3221 29.6395C35.2348 29.4538 35.074 29.296 34.8686 29.1946C34.716 29.1192 34.7093 29.1179 34.5168 29.1275C34.4089 29.1329 34.3007 29.144 34.2765 29.1522C34.2361 29.1659 34.2314 29.1576 34.2206 29.0528C34.2052 28.9042 34.1425 28.7845 34.0034 28.6388C33.8103 28.4363 33.5505 28.3508 33.3242 28.4152ZM6.87232 28.6142C6.81932 28.657 6.65546 28.7864 6.50821 28.9017C5.32753 29.8265 5.26167 29.8863 5.13542 30.1493C5.06406 30.298 5.05999 30.318 5.06062 30.5163C5.0612 30.6981 5.0693 30.7454 5.12147 30.8727C5.1919 31.0445 5.27373 31.1774 5.4242 31.3644C5.73135 31.746 6.08742 31.9148 6.44877 31.8503C6.68942 31.8073 6.86603 31.7079 7.2529 31.398C7.33999 31.3282 7.50838 31.1956 7.62714 31.1034C7.74588 31.0111 7.92006 30.8743 8.0142 30.7993C8.10836 30.7244 8.23908 30.6222 8.30469 30.5724C8.4895 30.4318 8.48755 30.4453 8.34808 30.2714C8.2804 30.1869 8.17927 30.0589 8.1234 29.9868C8.0582 29.9028 8.01349 29.8621 7.99863 29.8733C7.97128 29.8941 7.44203 30.3084 7.19222 30.5046C7.09594 30.5802 6.9402 30.7035 6.84612 30.7787C6.52872 31.0321 6.36906 31.1139 6.19169 31.1139C6.09835 31.1139 6.06603 31.1028 5.99027 31.0451C5.84094 30.9312 5.77709 30.8223 5.77613 30.6797C5.77556 30.595 5.78878 30.5328 5.81978 30.4743C5.86884 30.3818 6.07052 30.1776 6.23685 30.052C6.6129 29.7681 7.41967 29.1228 7.41967 29.106C7.41967 29.0907 6.98496 28.5341 6.97416 28.5355C6.97116 28.5359 6.92533 28.5713 6.87232 28.6142ZM33.3767 28.5957C33.1287 28.6595 32.8573 28.9052 32.7129 29.1966C32.6293 29.3651 32.6216 29.3943 32.6216 29.5396C32.6216 29.7228 32.6602 29.821 32.7789 29.9396C32.9699 30.1306 33.2231 30.1646 33.5023 30.0368C33.6023 29.991 33.6131 29.9899 33.6517 30.0212C33.6893 30.0518 33.6925 30.0751 33.6848 30.266C33.6774 30.4492 33.6824 30.4911 33.7229 30.5852C33.7775 30.7121 33.9148 30.8468 34.0547 30.9108C34.1973 30.9761 34.4316 30.9742 34.5687 30.9067C34.7071 30.8386 34.8984 30.6568 35.0131 30.4843C35.3184 30.0253 35.2367 29.5936 34.8029 29.3735C34.6161 29.2786 34.4768 29.2788 34.27 29.3741C34.1317 29.4378 34.1194 29.44 34.0725 29.4093C34.0255 29.3785 34.0231 29.3672 34.0326 29.2201C34.0413 29.0849 34.0355 29.0482 33.9903 28.9494C33.8735 28.6943 33.6018 28.5377 33.3767 28.5957ZM6.66456 29.0194C6.52035 29.1349 6.21831 29.3738 5.99335 29.5503C5.3565 30.05 5.24774 30.1913 5.24986 30.5163C5.25065 30.6389 5.26366 30.7162 5.29821 30.8037C5.41139 31.0903 5.73669 31.4726 5.96065 31.5823C6.32405 31.7602 6.55826 31.6983 7.08407 31.2856C7.23981 31.1633 7.55364 30.9177 7.7815 30.7397C8.00935 30.5618 8.19576 30.4089 8.19576 30.4C8.19576 30.3911 8.15159 30.3287 8.09762 30.2613C8.04365 30.194 7.99689 30.1354 7.99375 30.1311C7.98762 30.1228 7.97732 30.1304 7.71324 30.338C7.51668 30.4926 7.42702 30.5628 6.98282 30.91C6.60503 31.2053 6.44591 31.2878 6.23289 31.299C6.03815 31.3092 5.9028 31.2536 5.77416 31.1106C5.63293 30.9536 5.58412 30.8379 5.5854 30.663C5.58672 30.484 5.63444 30.3751 5.78599 30.2051C5.88778 30.091 5.96432 30.0272 6.58253 29.5413C6.73659 29.4202 6.91954 29.2755 6.98909 29.2198C7.05862 29.1641 7.12862 29.1111 7.14462 29.102C7.16694 29.0894 7.14779 29.0532 7.06219 28.9465C7.00086 28.87 6.94529 28.8078 6.93873 28.8084C6.93214 28.8089 6.80877 28.9039 6.66456 29.0194ZM33.2327 28.9429C33.0559 29.0059 32.9165 29.2199 32.9157 29.4294C32.9153 29.5396 32.9245 29.5717 32.9781 29.6477C33.0627 29.7674 33.1765 29.8245 33.3282 29.8236C33.425 29.823 33.4785 29.8072 33.6109 29.7397C33.8079 29.6394 33.8328 29.6012 33.8214 29.4153C33.8073 29.1854 33.6743 28.9997 33.4834 28.943C33.3582 28.9059 33.3367 28.9059 33.2327 28.9429ZM33.2015 29.1949C33.0676 29.3474 33.067 29.5103 33.1999 29.6003C33.2861 29.6587 33.3651 29.6502 33.5235 29.5657C33.646 29.5004 33.6636 29.4442 33.6075 29.2973C33.5623 29.1791 33.4816 29.1219 33.3599 29.1219C33.2786 29.1219 33.2569 29.1319 33.2015 29.1949ZM34.2364 29.6838C34.0906 29.7342 33.9378 29.8272 33.9227 29.8747C33.904 29.9337 33.9034 30.1701 33.9218 30.2542C33.9569 30.4146 34.1241 30.5717 34.304 30.6132C34.594 30.6801 34.9023 30.4206 34.9048 30.1074C34.9074 29.7747 34.5778 29.5658 34.2364 29.6838ZM34.2996 29.8627C34.1021 29.9401 34.0848 29.9646 34.098 30.1486C34.1145 30.3771 34.375 30.4994 34.5672 30.3689C34.8788 30.1572 34.6504 29.7251 34.2996 29.8627ZM31.3558 30.5599C31.2387 30.683 31.1428 30.799 31.1428 30.8177C31.1428 30.8364 31.1194 31.0918 31.0909 31.3853C31.0624 31.6787 31.0412 31.9202 31.0438 31.9219C31.0506 31.9264 31.6314 31.9952 31.6597 31.9948C31.6752 31.9946 31.6889 31.9135 31.6986 31.7639C31.707 31.6365 31.723 31.5332 31.7344 31.5332C31.7458 31.5332 31.95 31.7244 32.1883 31.9582C32.4266 32.1919 32.7421 32.5006 32.8894 32.6442L33.1572 32.9052L33.4085 32.6546C33.5467 32.5168 33.6598 32.3933 33.6598 32.3802C33.6598 32.3671 33.5773 32.2787 33.4763 32.1837C33.3754 32.0887 33.104 31.8258 32.8733 31.5996C32.3732 31.1092 31.7732 30.5265 31.6543 30.4156L31.5689 30.336L31.3558 30.5599ZM31.4506 30.7327L31.3317 30.8529L31.2875 31.2992C31.2632 31.5447 31.2472 31.7494 31.252 31.7542C31.2567 31.7589 31.3167 31.7654 31.3852 31.7686L31.5099 31.7743L31.5261 31.5542C31.5517 31.206 31.5643 31.111 31.5841 31.1179C31.5942 31.1214 31.8931 31.4076 32.2484 31.7537C32.6036 32.0999 32.9535 32.4389 33.026 32.5072L33.1578 32.6312L33.2725 32.518C33.3356 32.4558 33.3872 32.3939 33.3872 32.3806C33.3872 32.3672 33.3035 32.2773 33.2013 32.1807C33.0991 32.084 32.7019 31.6983 32.3186 31.3235C31.9354 30.9487 31.6101 30.6354 31.5957 30.6273C31.5795 30.6182 31.5241 30.6585 31.4506 30.7327ZM8.75958 31.6011C8.54754 31.8571 8.13487 32.3537 7.84256 32.7046C7.55022 33.0556 7.3067 33.3541 7.30135 33.368C7.29376 33.3879 7.5683 33.6334 7.79836 33.8126C7.82611 33.8342 7.91251 33.7397 8.38563 33.1699C8.69076 32.8024 8.94274 32.504 8.94561 32.5067C8.95075 32.5116 8.90288 32.7275 8.65621 33.8119C8.58754 34.1138 8.53137 34.3744 8.53137 34.3911C8.53137 34.4078 8.66972 34.5373 8.8388 34.679L9.14626 34.9367L9.2216 34.854C9.26305 34.8085 9.58485 34.4236 9.93672 33.9988C10.2886 33.574 10.6777 33.1052 10.8015 32.9572L11.0265 32.6881L10.8567 32.5457C10.7632 32.4674 10.6449 32.368 10.5937 32.3248C10.5424 32.2815 10.4922 32.2461 10.482 32.2461C10.4718 32.2461 10.3635 32.3664 10.2413 32.5135C10.1191 32.6605 9.87551 32.9534 9.69999 33.1643C9.52447 33.3752 9.378 33.5342 9.37451 33.5177C9.37101 33.5011 9.4207 33.2625 9.48495 32.9874C9.54917 32.7123 9.61713 32.4165 9.63593 32.33C9.65474 32.2435 9.69625 32.0595 9.72818 31.9211C9.76979 31.7407 9.77995 31.6619 9.76405 31.6428C9.74005 31.6138 9.20719 31.1725 9.1686 31.1496C9.15461 31.1413 8.98903 31.3241 8.75958 31.6011ZM8.78106 31.8739C7.7738 33.0846 7.5665 33.3373 7.5665 33.3546C7.5665 33.3649 7.61911 33.4182 7.68342 33.4732C7.78227 33.5576 7.80459 33.5685 7.82798 33.5438C7.84321 33.5278 8.13663 33.175 8.48006 32.7598C8.82347 32.3447 9.1085 32.0062 9.11345 32.0077C9.1184 32.0092 9.14859 32.0297 9.18051 32.0533L9.23857 32.0962L9.15861 32.449C8.93848 33.42 8.78324 34.114 8.76163 34.2236C8.7342 34.3628 8.71626 34.3362 8.98076 34.5485L9.126 34.6651L9.20776 34.573C9.28004 34.4916 9.52847 34.1934 10.3936 33.1501C10.5237 32.9931 10.6583 32.8303 10.6926 32.7882L10.7549 32.7117L10.6311 32.6044L10.5072 32.4972L10.3845 32.6407C10.317 32.7197 10.022 33.0738 9.72881 33.4276C9.22683 34.0335 9.19329 34.0693 9.15314 34.0426C9.06297 33.9828 9.06366 33.9748 9.21848 33.3022C9.30039 32.9462 9.41097 32.4616 9.4642 32.2252C9.51744 31.9887 9.56537 31.7806 9.57072 31.7626C9.57722 31.7407 9.51494 31.6766 9.3824 31.5686C9.2735 31.48 9.18095 31.4074 9.1768 31.4074C9.17263 31.4074 8.99454 31.6174 8.78106 31.8739ZM11.827 33.457C11.782 33.5464 11.5506 33.9956 11.3129 34.4553C11.0751 34.915 10.8806 35.2941 10.8806 35.2978C10.8806 35.3015 10.8145 35.4272 10.7338 35.5771C10.653 35.727 10.587 35.858 10.587 35.8681C10.587 35.8947 11.4305 36.3221 11.65 36.4067C12.1165 36.5865 12.5252 36.589 12.8608 36.414C13.0326 36.3244 13.296 36.0562 13.4243 35.8403C13.4793 35.7477 13.5593 35.5735 13.6019 35.453C13.6749 35.247 13.6795 35.2192 13.6794 34.9825C13.6794 34.7473 13.6749 34.7201 13.612 34.567C13.5276 34.3616 13.4595 34.2639 13.2788 34.0886C13.0955 33.9109 12.8988 33.7807 12.5062 33.577C12.3332 33.4873 12.1407 33.387 12.0785 33.3542C12.0163 33.3214 11.9527 33.2945 11.9371 33.2945C11.9216 33.2945 11.872 33.3676 11.827 33.457ZM11.9653 33.6122C11.9447 33.6484 11.8326 33.863 11.7162 34.0891C11.4156 34.6729 11.2169 35.0571 11.0123 35.4503C10.9144 35.6384 10.838 35.796 10.8425 35.8006C10.8761 35.8342 11.6957 36.2307 11.8053 36.2664C12.0352 36.3413 12.2857 36.3676 12.4724 36.3364C12.7126 36.2963 12.8368 36.2287 13.0332 36.0311C13.1757 35.8878 13.2215 35.8237 13.3115 35.6412C13.4246 35.4118 13.5025 35.1514 13.5025 35.0029C13.5025 34.5921 13.2448 34.2181 12.7687 33.9378C12.5772 33.825 12.0438 33.5461 12.0199 33.5463C12.0105 33.5464 11.9859 33.576 11.9653 33.6122ZM27.6272 33.6528C27.3505 33.6991 27.1181 33.7997 26.3754 34.1947L26.1283 34.3262L26.242 34.539C26.3045 34.656 26.3957 34.8273 26.4445 34.9195C26.4934 35.0118 26.5594 35.1345 26.5911 35.1921C26.6229 35.2498 26.6913 35.3772 26.7433 35.4752C26.8785 35.7305 27.1364 36.2121 27.2438 36.4098C27.2944 36.5029 27.3735 36.6514 27.4197 36.7399C27.4658 36.8283 27.5121 36.9007 27.5225 36.9009C27.533 36.9009 27.599 36.869 27.6694 36.8299C27.7397 36.7909 27.9335 36.6862 28.1 36.5973C28.7515 36.2497 29.0203 36.0039 29.1745 35.6145C29.2368 35.4572 29.2421 35.4248 29.2423 35.2026C29.2425 34.994 29.2345 34.9375 29.1833 34.7833C28.9099 33.959 28.3272 33.5358 27.6272 33.6528ZM27.7448 33.8331C27.6065 33.8502 27.4048 33.903 27.2654 33.9586C27.152 34.0038 26.4376 34.3688 26.4034 34.399C26.3899 34.4109 26.5735 34.7667 26.9077 35.3762C26.9759 35.5006 27.0316 35.6064 27.0316 35.6114C27.0316 35.6165 27.1024 35.7483 27.1889 35.9044C27.2755 36.0604 27.3463 36.1928 27.3463 36.1984C27.3463 36.2072 27.5734 36.6247 27.5902 36.6467C27.6005 36.6603 28.2731 36.2901 28.4343 36.1822C28.8161 35.9263 29.0375 35.605 29.0602 35.2736C29.069 35.1452 29.0616 35.0676 29.028 34.9348C28.94 34.5868 28.6948 34.1917 28.4599 34.0194C28.278 33.8859 27.9689 33.8054 27.7448 33.8331ZM12.1684 33.9917C11.9992 34.3242 11.4035 35.4761 11.3388 35.5961L11.2567 35.7485L11.5144 35.8745C11.8066 36.0173 11.9594 36.0524 12.1957 36.0308C12.7736 35.978 13.2234 35.3133 13.0727 34.7349C12.993 34.4289 12.8197 34.23 12.4689 34.0419C12.3475 33.9768 12.2381 33.9236 12.2257 33.9236C12.2133 33.9236 12.1875 33.9542 12.1684 33.9917ZM27.3253 34.2022C27.1798 34.2522 26.8219 34.4395 26.8219 34.4656C26.8219 34.4743 26.8301 34.4903 26.8401 34.5012C26.8501 34.5122 26.927 34.6533 27.0109 34.8147C27.0947 34.9762 27.1704 35.1177 27.1789 35.1292C27.1936 35.1491 27.4403 35.6103 27.6668 36.0413C27.7244 36.1509 27.778 36.2479 27.7861 36.2569C27.8137 36.288 28.267 36.0171 28.383 35.9002C28.6946 35.5862 28.7517 35.1724 28.5444 34.7297C28.4729 34.577 28.2863 34.367 28.1521 34.2884C27.9089 34.1459 27.5867 34.1123 27.3253 34.2022ZM12.231 34.2853C12.2004 34.3458 12.1071 34.5274 12.0235 34.6889C11.6041 35.4994 11.5308 35.6437 11.5308 35.6593C11.5308 35.6909 11.8342 35.8157 11.9663 35.8385C12.064 35.8554 12.1282 35.8548 12.2174 35.8361C12.4936 35.7782 12.6833 35.6212 12.826 35.3326C12.9004 35.1822 12.9047 35.1623 12.9047 34.9731C12.9047 34.801 12.8971 34.7565 12.8503 34.6574C12.771 34.4897 12.6267 34.3408 12.4567 34.2515C12.3767 34.2095 12.3057 34.1752 12.299 34.1752C12.2922 34.1752 12.2616 34.2247 12.231 34.2853ZM27.3777 34.3831C27.32 34.4044 27.2278 34.4474 27.1728 34.4787L27.0728 34.5357L27.1341 34.6437C27.1986 34.7575 27.3797 35.0949 27.6762 35.6534C27.7741 35.8379 27.8603 35.9955 27.8677 36.0036C27.8751 36.0117 27.9563 35.9729 28.0481 35.9174C28.5091 35.6384 28.6098 35.153 28.3016 34.6954C28.1999 34.5446 28.0749 34.4446 27.9091 34.3816C27.7733 34.33 27.5197 34.3307 27.3777 34.3831ZM30.1255 34.5141C29.9986 34.6047 29.8673 34.7003 29.8337 34.7266L29.7726 34.7743L29.9781 35.0671C30.0911 35.2281 30.1866 35.3634 30.1903 35.3677C30.1941 35.3721 30.2896 35.3099 30.4025 35.2297C30.5155 35.1494 30.6478 35.0562 30.6966 35.0226C30.7454 34.989 30.7855 34.954 30.7858 34.9449C30.786 34.9357 30.7574 34.8886 30.7222 34.84C30.6871 34.7915 30.6016 34.6716 30.5323 34.5736C30.4631 34.4755 30.3951 34.385 30.3813 34.3724C30.3626 34.3553 30.2971 34.3916 30.1255 34.5141ZM30.1738 34.7176L30.0334 34.8181L30.1319 34.9575C30.186 35.0342 30.2374 35.0971 30.2459 35.0973C30.2545 35.0976 30.3222 35.0541 30.3965 35.0007L30.5315 34.9037L30.4334 34.7605C30.3794 34.6817 30.3305 34.6173 30.3248 34.6172C30.319 34.6172 30.2511 34.6624 30.1738 34.7176ZM14.9408 34.7234C14.9357 34.739 14.8944 34.8792 14.8491 35.0349C14.8037 35.1906 14.698 35.5538 14.614 35.8421C14.5301 36.1305 14.4067 36.5503 14.3399 36.7752C14.1968 37.2564 14.1319 37.4952 14.1414 37.5048C14.1483 37.5116 14.7514 37.692 15.4816 37.9056C15.6875 37.9658 15.8594 38.0117 15.8637 38.0074C15.871 38.0001 16.0212 37.4774 16.0272 37.4383C16.0297 37.4219 15.6874 37.3138 15.1856 37.1725C15.0522 37.135 15.0145 37.1162 15.0213 37.091C15.1131 36.7523 15.1476 36.6331 15.1619 36.6048C15.1777 36.5738 15.1961 36.5752 15.3634 36.6202C15.4648 36.6475 15.6703 36.7072 15.8203 36.7529C15.9703 36.7986 16.099 36.8294 16.1064 36.8214C16.122 36.8043 16.2713 36.2973 16.2713 36.2612C16.2713 36.2415 15.9055 36.1255 15.4274 35.9936C15.3379 35.9689 15.338 35.9838 15.426 35.688C15.488 35.4793 15.4189 35.4824 16.0331 35.6609C16.2771 35.7317 16.4853 35.7897 16.4959 35.7897C16.5064 35.7897 16.5272 35.7402 16.5421 35.6796C16.557 35.6191 16.5924 35.4917 16.6207 35.3966C16.6491 35.3015 16.6671 35.2153 16.6608 35.205C16.6545 35.1948 16.5713 35.1656 16.476 35.1404C16.3807 35.1151 16.1659 35.0533 15.9986 35.0031C15.8313 34.9529 15.5396 34.8679 15.3504 34.8142C15.1612 34.7605 14.9937 34.7117 14.9782 34.7058C14.9628 34.6999 14.946 34.7078 14.9408 34.7234ZM15.0677 34.968C15.0583 35.0013 14.9609 35.3349 14.6103 36.5341C14.5294 36.8109 14.441 37.1125 14.4138 37.2043C14.3867 37.2962 14.3682 37.375 14.3728 37.3796C14.3773 37.3841 14.5727 37.4428 14.807 37.5101C15.0413 37.5774 15.3415 37.6656 15.4742 37.7061C15.6068 37.7465 15.7212 37.773 15.7283 37.7649C15.7487 37.7417 15.7888 37.6116 15.7888 37.5689C15.7888 37.5475 15.7755 37.5301 15.7593 37.5301C15.7263 37.5301 14.7976 37.2588 14.7837 37.2451C14.7689 37.2305 15.0416 36.3349 15.0608 36.3349C15.0751 36.3349 15.8508 36.5633 15.9502 36.5968C15.9699 36.6035 16.0405 36.427 16.0405 36.3711C16.0405 36.3657 15.9957 36.3495 15.9409 36.3351C15.6028 36.246 15.1176 36.0952 15.1176 36.0792C15.1176 36.0626 15.3484 35.2817 15.3561 35.2724C15.3577 35.2704 15.5855 35.3341 15.8623 35.4138C16.1392 35.4935 16.3673 35.5588 16.3692 35.5589C16.379 35.5593 16.4421 35.3454 16.4345 35.3378C16.4255 35.3288 15.9253 35.1782 15.5057 35.0582C15.3788 35.0219 15.2306 34.9788 15.1763 34.9624C15.0864 34.9353 15.0768 34.9358 15.0677 34.968ZM23.3505 35.1981C23.1774 35.2394 23.0343 35.2738 23.0325 35.2746C23.0306 35.2754 22.9911 35.5355 22.9446 35.8526C22.8981 36.1698 22.7962 36.8653 22.7182 37.3982C22.6401 37.9311 22.5807 38.3716 22.5861 38.377C22.599 38.3899 23.3029 38.2261 23.3207 38.206C23.3282 38.1975 23.3512 38.0632 23.3718 37.9075C23.4203 37.5403 23.4214 37.5376 23.5327 37.5193C23.5824 37.5111 23.7815 37.4677 23.975 37.4229C24.1686 37.378 24.3385 37.3414 24.3526 37.3415C24.3667 37.3416 24.4538 37.4567 24.5461 37.5971C24.6383 37.7376 24.7199 37.8615 24.7274 37.8724C24.7355 37.8845 24.8142 37.875 24.9266 37.8484C25.0288 37.8243 25.2044 37.7845 25.3169 37.7599C25.4294 37.7354 25.5214 37.7079 25.5214 37.6989C25.5214 37.6899 25.5042 37.66 25.4832 37.6325C25.4474 37.5857 25.3807 37.4885 24.9024 36.7857C24.7046 36.495 24.509 36.2087 24.265 35.8526C24.182 35.7315 24.0367 35.5172 23.942 35.3762C23.7967 35.1598 23.7618 35.1202 23.7175 35.1216C23.6887 35.1224 23.5235 35.1569 23.3505 35.1981ZM23.4166 35.382C23.303 35.4085 23.206 35.4344 23.201 35.4394C23.1959 35.4444 23.1777 35.556 23.1605 35.6873C23.1433 35.8186 23.0734 36.2987 23.0053 36.7542C22.8698 37.6602 22.8082 38.1168 22.8199 38.1285C22.8323 38.1408 23.1179 38.0724 23.1398 38.0518C23.1509 38.0415 23.1792 37.8898 23.2029 37.7148L23.2458 37.3965L23.6337 37.307C23.8471 37.2578 24.1189 37.1946 24.2378 37.1666L24.4538 37.1158L24.6228 37.3701C24.7157 37.51 24.8025 37.6356 24.8157 37.6492C24.8341 37.6683 24.8809 37.6643 25.018 37.6316C25.1161 37.6083 25.1995 37.586 25.2035 37.5822C25.2074 37.5783 25.1374 37.4683 25.0479 37.3377C24.8664 37.073 24.6094 36.6966 24.2772 36.2091C23.7767 35.4746 23.6721 35.3285 23.6482 35.331C23.6344 35.3325 23.5302 35.3554 23.4166 35.382ZM17.7086 35.4372C17.701 35.459 17.4669 38.253 17.4669 38.3223C17.4669 38.3324 17.6726 38.3577 17.9241 38.3785C18.4479 38.4218 18.912 38.4147 19.1134 38.3602C19.5806 38.234 19.9159 37.8973 20.034 37.4357C20.1491 36.986 20.1144 36.5351 19.9396 36.2094C19.7961 35.942 19.5878 35.7666 19.2653 35.6419C19.0245 35.5487 18.781 35.504 18.3059 35.4658C18.0809 35.4478 17.8567 35.4277 17.8076 35.4213C17.7443 35.4131 17.7154 35.4177 17.7086 35.4372ZM17.8774 35.6463C17.8724 35.6618 17.8435 35.9952 17.8133 36.3873C17.7831 36.7794 17.7396 37.3349 17.7166 37.6218C17.6937 37.9087 17.6792 38.1478 17.6846 38.1531C17.7117 38.1802 18.4083 38.224 18.6625 38.2147C19.1205 38.1979 19.3709 38.1036 19.5928 37.8646C19.7928 37.6491 19.8755 37.413 19.8937 37.0059C19.9139 36.5546 19.8366 36.3123 19.596 36.0727C19.4632 35.9404 19.2585 35.825 19.04 35.7594C18.9199 35.7233 18.5572 35.6759 18.2325 35.6538C18.1286 35.6467 18.0083 35.6359 17.9651 35.6296C17.91 35.6217 17.8838 35.6267 17.8774 35.6463ZM23.5183 35.722C23.4952 35.7269 23.4682 35.7386 23.4582 35.748C23.4397 35.7655 23.2747 37.1145 23.2893 37.1296C23.2937 37.1342 23.5028 37.0893 23.7539 37.0298C24.005 36.9703 24.2264 36.9217 24.2459 36.9218C24.2654 36.9219 24.2873 36.9125 24.2945 36.9008C24.3017 36.8891 24.2231 36.7453 24.1198 36.581C23.6853 35.8902 23.5874 35.7367 23.5742 35.7252C23.5665 35.7185 23.5413 35.7171 23.5183 35.722ZM18.2132 35.9197C18.1975 35.9711 18.0474 37.9286 18.0583 37.9395C18.0643 37.9455 18.1782 37.9608 18.3115 37.9735C18.6122 38.0021 18.7594 37.9798 18.9762 37.8731C19.3221 37.7028 19.5225 37.3569 19.5225 36.9303C19.5225 36.5322 19.2932 36.162 18.9561 36.0156C18.7648 35.9326 18.2303 35.8635 18.2132 35.9197ZM18.3822 36.1619C18.3762 36.1936 18.3663 36.2998 18.3602 36.3978C18.3541 36.4958 18.3283 36.8424 18.3027 37.1681C18.2772 37.4937 18.2634 37.7672 18.2721 37.7759C18.2808 37.7846 18.384 37.7918 18.5014 37.7919C18.6976 37.7921 18.7262 37.7868 18.8541 37.7262C19.0118 37.6515 19.1614 37.5153 19.2271 37.3866C19.3945 37.0586 19.3536 36.625 19.1322 36.3788C18.9832 36.2131 18.7265 36.1042 18.4848 36.1042C18.4014 36.1042 18.3921 36.1095 18.3822 36.1619ZM23.5835 36.1479C23.5634 36.2102 23.503 36.8613 23.516 36.8744C23.5271 36.8854 23.8016 36.8304 23.9755 36.7822C24.0193 36.7701 24.0338 36.7988 23.7812 36.3978C23.606 36.1195 23.5965 36.1076 23.5835 36.1479ZM26.3185 36.5755C26.2781 36.5913 26.1365 36.6444 26.0038 36.6934C25.8712 36.7425 25.7541 36.7899 25.7437 36.7989C25.7326 36.8084 25.7386 36.8528 25.7581 36.9053C25.7765 36.9549 25.8313 37.1039 25.88 37.2365C25.9287 37.3691 25.9716 37.4814 25.9753 37.486C25.979 37.4906 26.1365 37.4356 26.3252 37.3638L26.6682 37.2331L26.5405 36.8895C26.4703 36.7004 26.4081 36.546 26.4024 36.5462C26.3966 36.5465 26.3588 36.5597 26.3185 36.5755ZM26.1612 36.8397C26.1035 36.8623 26.0357 36.8896 26.0104 36.9004L25.9646 36.9199L26.0187 37.0625C26.0484 37.1409 26.0803 37.2136 26.0897 37.224C26.0995 37.2349 26.1734 37.2185 26.2657 37.1849C26.4431 37.1202 26.4367 37.1394 26.3509 36.9284C26.324 36.8623 26.2939 36.806 26.284 36.8034C26.2741 36.8008 26.2188 36.8171 26.1612 36.8397Z" fill="#B31B1B"/>
</g>
<defs>
<clipPath id="clip0_281_4">
<rect width="40.01" height="40.01" fill="white"/>
</clipPath>
</defs>
</svg>
