<svg width="19" height="18" viewBox="0 0 19 18" fill="none" xmlns="http://www.w3.org/2000/svg">
<path fill-rule="evenodd" clip-rule="evenodd" d="M-0.00170898 0.487228L18.4292 0.487228V17.8215H-0.00170898L-0.00170898 0.487228Z" fill="#1A3B73"/>
<path fill-rule="evenodd" clip-rule="evenodd" d="M17.1204 11.843C16.7667 11.9137 16.2362 12.0197 15.9531 12.0906V12.2673C16.3774 12.3029 16.4127 12.3029 16.4127 12.6919V16.088C16.4127 16.4419 16.3774 16.4772 15.9531 16.5479V16.7248H17.5803V16.5479C17.1557 16.4771 17.1204 16.4418 17.1204 16.088V11.843ZM14.0781 14.7791C14.1488 14.2485 14.432 13.9302 14.715 13.9302C15.0333 13.9302 15.2456 14.2839 15.2456 14.5669C15.2456 14.7085 15.2103 14.7438 15.104 14.7438L14.0781 14.7791ZM15.8469 15.982C15.5639 16.1944 15.3516 16.265 15.104 16.265C14.5734 16.265 14.0428 15.9113 14.0781 15.0621C14.8209 15.0268 15.7055 14.9561 15.8116 14.9207C15.9176 14.9207 15.9532 14.8854 15.9532 14.6378C15.9532 14.1424 15.4933 13.6472 14.9272 13.6472C14.0073 13.6472 13.3705 14.4962 13.3705 15.3805C13.4061 16.159 13.9365 16.7956 14.8211 16.7956C15.0334 16.7956 15.5286 16.6896 15.9176 16.0881L15.8469 15.982ZM12.1679 13.9301L12.3446 13.9654C12.4862 13.9654 12.4508 14.0362 12.3446 14.2131C12.2385 14.39 12.0969 14.5668 11.9555 14.779L11.5663 14.1778C11.4955 14.0362 11.4955 13.9654 11.6016 13.9654L11.7785 13.9301V13.7532H10.2573V13.9301C10.6466 13.9654 10.6819 14.0008 10.9296 14.3547L11.5663 15.345C11.3539 15.6282 11.1419 15.9112 11.0003 16.0879C10.7173 16.4771 10.6113 16.4771 10.222 16.5477V16.7247H11.4955V16.5477L11.2832 16.5124C11.1771 16.4771 11.1771 16.4417 11.2832 16.2648C11.4248 16.0171 11.5662 15.8049 11.7078 15.5925L12.1676 16.2648C12.2384 16.4064 12.2384 16.4771 12.1323 16.5124L11.92 16.5477V16.7247H13.5472V16.5477C13.1935 16.477 13.0873 16.477 12.8043 16.0524L12.1323 14.9911C12.3798 14.6729 12.5567 14.4252 12.6276 14.3545C12.9106 14.0005 13.0167 13.9652 13.4413 13.9299V13.753H12.1679V13.9301ZM8.45318 14.7791C8.52392 14.2485 8.80701 13.9302 9.08999 13.9302C9.37308 13.9302 9.5852 14.2839 9.5852 14.5669C9.5852 14.7085 9.5852 14.7438 9.47914 14.7438L8.45318 14.7791ZM10.1867 15.982C9.90371 16.1944 9.69137 16.265 9.47914 16.265C8.9485 16.265 8.41786 15.9113 8.41786 15.0621C9.16073 15.0268 10.0451 14.9561 10.1514 14.9207C10.2928 14.9207 10.2928 14.8854 10.2928 14.6378C10.2928 14.1424 9.83308 13.6472 9.2669 13.6472C8.34712 13.6472 7.71042 14.4962 7.74573 15.3805C7.74573 16.159 8.27637 16.7956 9.19616 16.7956C9.37308 16.7956 9.90371 16.6896 10.2928 16.0881L10.1867 15.982ZM6.57829 13.6472C6.22446 13.7533 5.76467 13.8596 5.41084 13.8949V14.0716C5.83531 14.1071 5.87062 14.1071 5.87062 14.5315V16.088C5.87062 16.4419 5.83531 16.4772 5.41084 16.5479V16.7248H7.10882V16.5479C6.61349 16.4771 6.57818 16.4418 6.57818 16.088V14.6731C6.71967 14.3901 6.89658 14.2838 7.00264 14.2838C7.10882 14.2838 7.21499 14.3547 7.32105 14.4607C7.35637 14.496 7.42711 14.496 7.53328 14.4607C7.67477 14.4254 7.78094 14.2131 7.78094 14.0362C7.78094 13.8595 7.60403 13.6471 7.35637 13.6471C7.03796 13.6471 6.75498 14.0715 6.57807 14.3547V13.6472H6.57829ZM1.97935 12.9042C1.97935 12.7273 1.97935 12.6213 2.01467 12.5859C2.08541 12.5506 2.26233 12.5151 2.47456 12.5151C3.57127 12.5151 4.31403 13.0104 4.31403 14.4962C4.31403 15.6283 3.71265 16.4419 2.58063 16.4419C2.04999 16.4419 1.97924 16.3003 1.97924 15.6636V12.9042H1.97935ZM0.635099 12.2673V12.4442C1.16574 12.4796 1.20116 12.5505 1.20116 13.2932V15.6989C1.20116 16.4418 1.16574 16.4772 0.599781 16.5479V16.7248H2.29776C3.88978 16.7248 5.19861 15.9819 5.19861 14.2837C5.19861 13.6824 4.95095 13.1871 4.63254 12.8688C4.17265 12.4089 3.46509 12.2673 2.68691 12.2673H0.635099Z" fill="#FAE17C"/>
<path fill-rule="evenodd" clip-rule="evenodd" d="M6.61361 11.4894V11.5245C6.7552 11.7014 7.03829 11.7014 7.25042 11.6661C7.42733 11.6307 7.60414 11.56 7.74573 11.4894C8.02871 11.3478 8.27637 11.1708 8.55946 11.1001C8.84244 11.0648 9.12542 11.1354 9.2669 11.4184C9.30244 11.4184 9.30244 11.4537 9.33754 11.4892C9.37308 11.5953 9.37308 11.6659 9.33754 11.772C9.30244 11.9136 9.19616 12.0197 9.08999 12.0905C9.01925 12.1256 8.91318 12.1256 8.84244 12.0905C8.94861 12.0552 9.05478 11.9845 9.08999 11.878C9.12542 11.7719 9.08999 11.6305 9.01924 11.5599C8.98382 11.5243 8.9485 11.5243 8.91318 11.4891C8.84233 11.4536 8.77158 11.4536 8.70095 11.4536L8.73616 11.4891C8.80701 11.5599 8.84233 11.6658 8.84233 11.8074C8.80701 12.0196 8.6301 12.1965 8.45329 12.2671C8.34701 12.3026 8.24095 12.2671 8.13488 12.1964C8.06414 12.1255 8.02871 12.055 7.99329 11.9842C8.02871 12.0193 8.09946 12.0903 8.20574 12.055C8.3118 12.055 8.38255 11.9842 8.41797 11.8778C8.45329 11.8073 8.45329 11.7012 8.41797 11.6304C8.38255 11.5597 8.27637 11.5241 8.20574 11.5597C7.88722 11.6304 7.81659 12.0903 7.49808 12.1609C7.10893 12.1963 6.68446 12.1609 6.25988 12.1963L4.98648 12.2318C4.91563 12.1963 4.80957 12.1609 4.77414 12.0902C4.66808 11.8776 4.8802 11.6656 4.80957 11.4889L4.70351 11.3826C4.20819 11.0643 3.71298 10.7459 3.25308 10.3214C3.00542 10.0737 2.75776 9.79061 2.54542 9.47232C2.5101 9.36626 2.43925 9.26008 2.36861 9.1538C2.0501 8.44636 1.80244 7.52668 2.1917 6.81902C2.22712 6.78381 2.26255 6.71296 2.29776 6.67753C2.58085 6.25306 3.11148 6.0054 3.64201 6.07615C4.06659 6.147 4.38499 6.43009 4.52648 6.81902C4.56191 6.85445 4.56191 6.88987 4.59733 6.92508V7.06668C4.56191 6.99593 4.49127 6.88987 4.42042 6.81902C4.27882 6.60679 4.06659 6.42998 3.81904 6.35923C3.85446 6.4653 3.81904 6.57147 3.81904 6.67753C3.74829 6.53615 3.57138 6.39466 3.39446 6.35923C3.50063 6.4653 3.57138 6.64232 3.53606 6.78381C3.42989 6.67753 3.25308 6.53615 3.07617 6.6069C3.14691 6.64232 3.21776 6.71296 3.2884 6.81913C3.32383 6.88998 3.39446 6.96073 3.39446 7.03158C3.2884 6.96073 3.07617 6.85466 2.89914 6.9253C3.04074 7.03158 3.32383 7.10233 3.32383 7.3853C3.25308 7.31445 3.14691 7.27924 3.04074 7.31445L2.93457 7.3853C3.04074 7.42062 3.21765 7.45605 3.2884 7.59754L3.35925 7.7036C3.21776 7.7036 3.04085 7.73903 2.89925 7.8452C3.07628 7.88062 3.28851 7.91594 3.39457 8.09286C3.25319 8.12828 3.07628 8.19892 3.00553 8.41115C3.18234 8.30498 3.39457 8.30498 3.53606 8.44658C3.35925 8.51743 3.18223 8.72967 3.21776 8.9419C3.39457 8.83584 3.60691 8.72967 3.81915 8.83584C3.67755 8.90647 3.53606 9.01275 3.50074 9.15413C3.46542 9.22499 3.42989 9.29573 3.42989 9.36659V9.43733C3.6068 9.26052 3.81904 9.11903 4.0667 9.18967C3.85446 9.29573 3.7484 9.50807 3.78372 9.75573L3.88978 9.64945C4.03138 9.54339 4.20819 9.43722 4.3851 9.43722C4.24361 9.61414 4.10212 9.82637 4.17287 10.0386C4.27893 9.82637 4.49127 9.61414 4.73893 9.57871C4.59733 9.75562 4.56202 9.93254 4.56202 10.1447C4.73893 9.93243 4.98659 9.64934 5.26957 9.54328C5.1634 9.7202 5.09277 10.0033 5.19883 10.2509C5.26957 9.96786 5.44649 9.68477 5.62329 9.50796C5.58798 9.75562 5.65872 9.96786 5.83564 10.1093H5.87084C5.83564 9.79094 5.97713 9.54328 6.1185 9.33105C6.0833 9.50796 6.18936 9.7202 6.36616 9.79083L6.43702 9.82626C6.36616 9.64934 6.29542 9.40168 6.33096 9.15402C6.47256 9.29562 6.68468 9.47254 6.93234 9.43711C6.82628 9.36637 6.72011 9.2603 6.61382 9.15402C6.36616 8.90636 6.18936 8.6587 6.0833 8.37583C6.2249 8.51743 6.43702 8.62349 6.68468 8.58807C6.2249 8.30498 5.83564 7.73913 5.80032 7.20839C5.90638 7.42062 6.11861 7.59754 6.33096 7.66828C6.15393 7.42062 5.97723 7.13775 5.90638 6.81924C5.83564 6.57158 5.80032 6.32392 5.87095 6.07637C5.94181 6.35945 6.08341 6.71318 6.4017 6.78403C6.2249 6.46552 6.01255 6.14722 6.04798 5.72264C6.08341 5.47509 6.15404 5.22732 6.29553 5.05063C6.18947 5.26286 6.18947 5.61658 6.4017 5.82882V5.86424C6.33096 5.22743 6.57862 4.59073 7.10915 4.30776L7.32149 4.20169C7.18 4.41393 7.03851 4.62605 7.03851 4.90914C7.28606 4.41393 7.81681 3.88318 8.45351 3.91861C8.55968 3.91861 8.63031 3.91861 8.73649 3.95403C8.45351 4.0601 8.1351 4.27233 8.09968 4.59073C8.52425 4.20169 9.12564 3.98935 9.72702 4.20169C9.86862 4.27233 10.01 4.34307 10.1163 4.44924C9.90393 4.34307 9.65638 4.41393 9.47936 4.55542C9.40861 4.59073 9.30266 4.69701 9.26712 4.76765C9.65627 4.62605 10.2932 4.51999 10.6113 4.94457L10.8236 5.26286C10.6113 5.08583 10.3637 4.97977 10.0807 5.05063C10.01 5.05063 9.97468 5.08583 9.90404 5.12137C10.3637 5.12137 10.8237 5.36903 11.0006 5.79361L11.0714 6.04127C10.93 5.79361 10.7177 5.58127 10.4347 5.58127C10.6114 5.75829 10.8237 5.89978 10.8946 6.14744C11.0006 6.35967 11.036 6.60722 11.1776 6.81946C11.2483 6.92552 11.3189 7.03191 11.4605 7.10254C11.6019 7.17329 11.7788 7.20861 11.9204 7.24403C11.7081 7.17318 11.5312 6.99637 11.4251 6.81946C11.2482 6.50116 11.1421 6.11201 11.1421 5.75829C11.2482 5.93521 11.4604 6.11201 11.6374 6.18287C11.5312 6.04138 11.4605 5.97052 11.3542 5.82893C11.0005 5.44 10.8236 4.94468 10.9299 4.41404C11.036 4.09552 11.2482 3.81255 11.4605 3.52957C11.2836 3.88329 11.2482 4.3785 11.4958 4.69712C11.6019 4.87382 11.7435 5.01542 11.8851 5.12148C11.6019 4.73233 11.4605 4.2018 11.6374 3.70659C11.8851 3.03436 12.5571 2.68063 13.1939 2.64521H13.3708C13.0523 2.68063 12.8047 2.89287 12.628 3.14042C12.4864 3.42351 12.4511 3.81254 12.628 4.06031C12.734 4.20191 12.8756 4.30787 13.0523 4.30787C13.4769 4.23701 13.7599 3.77723 14.1842 3.70659C14.4319 3.60031 14.6796 3.7418 14.8565 3.91883C14.9981 3.98957 15.2104 3.98957 15.3518 3.8834C14.8921 4.23712 14.6089 4.80319 14.5382 5.40468C14.4674 5.12159 14.3258 4.8033 14.0429 4.69723C13.7246 4.59095 13.4769 4.8033 13.2646 4.9801C13.0522 5.19255 12.9816 5.44011 12.8755 5.68777C13.0169 5.58148 13.1938 5.40468 13.4062 5.36925C13.6891 5.26319 13.9366 5.36925 14.149 5.51074C14.2551 5.58148 14.3257 5.65234 14.3612 5.79383C14.0782 5.97063 14.0074 6.28915 14.0074 6.60744C13.9366 6.35978 13.8305 6.04149 13.5121 5.93543C13.3352 5.82914 13.0875 5.86457 12.9459 6.04149C12.8046 6.18298 12.8046 6.39532 12.8399 6.57202C12.8399 6.64287 12.8754 6.74893 12.9107 6.81968C13.1231 7.20883 13.512 7.42106 13.9013 7.56255C14.3609 7.73946 14.8209 8.16382 14.8563 8.69457C14.927 8.69457 15.0686 8.62382 15.1395 8.69457C15.2102 8.44691 15.3162 8.12861 15.5991 8.05776C15.8115 7.98701 16.0237 8.05776 16.2004 8.19925C16.342 8.41148 16.4481 8.62382 16.3773 8.90669C16.3773 8.97755 16.342 9.08361 16.2713 9.15435C16.2713 9.01297 16.2713 8.87148 16.2004 8.76531C16.1299 8.65903 16.059 8.62382 15.953 8.62382C15.8821 8.5884 15.8114 8.65903 15.776 8.69457C15.7407 8.9068 15.8114 9.01297 15.9174 9.15435C16.059 9.26063 16.2004 9.40201 16.2004 9.57893C16.2004 9.79116 16.1299 9.96808 15.953 10.0742C15.7406 10.145 15.5284 10.0742 15.4221 9.93276C15.316 9.86202 15.2807 9.79116 15.2454 9.72053C15.3868 9.79127 15.6698 9.86202 15.8114 9.72053C15.8821 9.64967 15.9174 9.57893 15.9174 9.47287C15.9174 9.33138 15.8467 9.22532 15.7407 9.15435C15.7407 9.15435 15.7407 9.11914 15.7054 9.11914C15.6347 9.04829 15.5285 9.01297 15.4222 9.01297C15.4578 9.04829 15.4578 9.08372 15.4578 9.15435C15.4578 9.26063 15.4578 9.33138 15.3869 9.40201C15.2455 9.61446 14.9979 9.61446 14.7502 9.57893C14.6441 9.89722 14.3965 10.1449 14.1133 10.3219C13.8303 10.4988 13.5473 10.6049 13.2643 10.6756L12.8045 10.7109C13.0874 10.8879 13.3706 11.0292 13.6889 11.1355C13.8303 10.8879 14.0426 10.5696 14.3609 10.4988C14.6086 10.4633 14.8563 10.5339 14.9624 10.7465C15.1038 10.9586 15.1746 11.2062 15.0685 11.4538L15.0332 11.4894L14.9624 11.6661C14.9624 11.5953 14.9977 11.56 14.9624 11.4894C14.9624 11.3478 14.9269 11.2062 14.7855 11.1001C14.7148 11.0292 14.6086 11.0292 14.5025 11.0292C14.4317 11.0292 14.3256 11.1001 14.2902 11.2062C14.2549 11.3124 14.2902 11.4185 14.3255 11.4894C14.4671 11.737 14.8562 11.8077 14.8208 12.1967C14.7855 12.303 14.7501 12.409 14.6085 12.515C14.4671 12.6566 14.1488 12.6566 13.9363 12.5505C13.8302 12.515 13.6888 12.4089 13.6182 12.3029C13.441 12.4089 13.1936 12.4089 13.052 12.2673C12.8397 12.0906 12.8043 11.843 12.7337 11.5953C12.6276 11.56 12.5568 11.5245 12.4861 11.4892C11.8138 11.2061 11.2125 10.817 10.6466 10.3217C10.5403 10.2155 10.4342 10.1093 10.3281 9.96786C10.0804 9.75562 9.93903 9.47254 9.83275 9.15413C9.69137 8.80041 9.65605 8.37594 9.72669 7.98679C9.79754 7.59765 9.79754 7.17307 9.69137 6.81924C9.58509 6.53637 9.44371 6.28871 9.19616 6.11179C8.91307 5.9702 8.55935 5.89956 8.24095 6.00562C7.95808 6.14722 7.74574 6.46552 7.71042 6.81924C7.74574 7.42062 8.06414 7.95126 8.34701 8.48201C8.45329 8.69424 8.48861 8.90636 8.48861 9.15402C8.48861 9.5786 8.3118 10.0032 8.02871 10.3216H7.99329C7.63956 10.7813 7.07361 10.9229 6.68446 11.3121C6.61361 11.3478 6.61361 11.4184 6.61361 11.4894ZM12.5922 4.48467C12.6985 4.55553 12.8399 4.62616 12.9815 4.55553C13.0168 4.55553 13.0522 4.5201 13.0522 4.5201C12.9459 4.6617 12.8046 4.90925 12.5923 4.87382C12.4156 4.73233 12.4863 4.41404 12.451 4.2018C12.4508 4.30787 12.5215 4.41404 12.5922 4.48467ZM14.6793 4.02478C14.6793 4.09552 14.6442 4.2018 14.5733 4.2018C14.4317 4.23701 14.2903 4.23701 14.184 4.16627C14.1489 4.09552 14.1133 4.02478 14.184 3.95414C14.2903 3.81255 14.5733 3.84786 14.6793 4.02478ZM14.9979 9.15424C14.9625 9.0835 14.927 9.04818 14.8563 9.01286V9.15424C14.8563 9.26052 14.8563 9.33127 14.8209 9.4019C14.927 9.36669 15.0333 9.33127 15.0333 9.18967C15.0333 9.18967 15.0333 9.15424 14.9979 9.15424ZM12.2738 9.15424L12.3446 9.0835C12.5922 8.80041 12.4508 8.37605 12.3446 8.09297C12.2738 8.19903 12.0969 8.3052 11.9555 8.34063C11.6016 8.34063 11.3896 7.95148 11.2833 7.66839C11.3186 7.91605 11.3186 8.1636 11.3896 8.41126C11.4956 8.69435 11.6017 9.01275 11.8849 9.15413C11.9556 9.18956 11.9909 9.18956 12.0616 9.18956C12.1679 9.18967 12.2032 9.18967 12.2738 9.15424ZM14.3611 11.7721C14.4318 11.843 14.4673 11.9137 14.4673 12.0198C14.4673 12.1258 14.3611 12.1967 14.2904 12.2323C14.149 12.3031 13.9365 12.2674 13.7951 12.1615C13.9365 12.0199 14.0074 11.8783 14.0428 11.7016C14.1489 11.6661 14.255 11.7014 14.3611 11.7721ZM13.2998 11.8077C13.2998 11.8782 13.2645 11.949 13.1584 11.949C13.0875 11.949 13.0521 11.8782 13.0168 11.8077V11.7014L13.2998 11.8077Z" fill="#FAE17C"/>
</svg>
