<svg width="25" height="25" viewBox="0 0 25 25" fill="none" xmlns="http://www.w3.org/2000/svg">
<rect x="6" y="3" width="13" height="19" fill="white"/>
<path d="M24.1887 24.1886H0.188721L0.188721 0.188599L24.1887 0.188599V24.1886ZM8.50041 7.87691C7.46145 8.91587 7.04586 12.76 11.3056 12.76C8.8121 11.3055 9.12379 9.12366 10.1627 7.66912C10.1627 7.46133 9.43547 5.69509 9.43547 6.00678C9.43547 6.73405 8.7082 7.66912 8.50041 7.87691ZM12.0329 12.6561C10.3705 9.53925 13.903 7.35743 13.903 6.94185C13.903 5.90288 13.1757 3.82496 13.0718 4.03275C12.864 5.07172 11.5134 6.42237 11.2017 6.73405C8.7082 9.53925 9.33158 11.6172 11.929 12.6561H12.0329ZM12.4485 12.6561C12.6563 9.43535 15.7731 9.01977 15.9809 8.50029C16.3965 7.46133 15.5653 5.3834 15.4614 5.4873C15.1498 6.31847 14.5264 7.04574 14.5264 7.04574C11.929 8.91587 11.4095 10.5782 12.4485 12.5522V12.6561ZM12.7602 12.6561C17.7472 13.1756 17.5394 7.46133 17.5394 7.46133C17.2277 8.0847 16.5004 8.50029 16.5004 8.50029C15.877 9.33146 13.3835 9.53925 12.7602 12.6561ZM10.4744 14.1107H13.6952V13.0717H10.3705V14.1107H10.4744ZM11.8251 21.0717C11.8251 21.2795 12.2407 21.3834 12.3446 21.0717L13.1757 14.5263H11.0978L11.8251 21.0717Z" fill="#57068C"/>
</svg>
