<svg width="139" height="78" viewBox="0 0 139 78" fill="none" xmlns="http://www.w3.org/2000/svg">
<rect x="32.855" y="22.2" width="73.2" height="33.6" rx="16.8" fill="#F5F5F5"/>
<path d="M43.9142 32.7912H50.4614C51.9718 32.7912 53.1046 33.1176 53.8598 33.7704C54.615 34.4232 54.9926 35.332 54.9926 36.4968C54.9926 37.1496 54.8966 37.6936 54.7046 38.1288C54.5126 38.5512 54.2886 38.8968 54.0326 39.1656C53.7766 39.4216 53.5206 39.6072 53.2646 39.7224C53.0214 39.8376 52.8422 39.9144 52.727 39.9528V39.9912C52.9318 40.0168 53.1494 40.0808 53.3798 40.1832C53.623 40.2856 53.847 40.452 54.0518 40.6824C54.2566 40.9 54.423 41.188 54.551 41.5464C54.6918 41.9048 54.7622 42.3528 54.7622 42.8904C54.7622 43.6968 54.8198 44.4328 54.935 45.0984C55.063 45.7512 55.255 46.2184 55.511 46.5H52.9382C52.759 46.2056 52.6502 45.8792 52.6118 45.5208C52.5862 45.1624 52.5734 44.8168 52.5734 44.484C52.5734 43.8568 52.535 43.3192 52.4582 42.8712C52.3814 42.4104 52.2406 42.0328 52.0358 41.7384C51.831 41.4312 51.5494 41.2072 51.191 41.0664C50.8454 40.9256 50.3974 40.8552 49.847 40.8552H46.3142V46.5H43.9142V32.7912ZM46.3142 39.0312H50.2502C51.0182 39.0312 51.6006 38.852 51.9974 38.4936C52.3942 38.1224 52.5926 37.572 52.5926 36.8424C52.5926 36.4072 52.5286 36.0552 52.4006 35.7864C52.2726 35.5048 52.0934 35.2872 51.863 35.1336C51.6454 34.98 51.3894 34.8776 51.095 34.8264C50.8134 34.7752 50.519 34.7496 50.2118 34.7496H46.3142V39.0312ZM63.1737 40.6632C63.1481 40.3176 63.0713 39.9848 62.9433 39.6648C62.8281 39.3448 62.6617 39.0696 62.4441 38.8392C62.2393 38.596 61.9833 38.404 61.6761 38.2632C61.3817 38.1096 61.0489 38.0328 60.6777 38.0328C60.2937 38.0328 59.9417 38.1032 59.6217 38.244C59.3145 38.372 59.0457 38.5576 58.8153 38.8008C58.5977 39.0312 58.4185 39.3064 58.2777 39.6264C58.1497 39.9464 58.0793 40.292 58.0665 40.6632H63.1737ZM58.0665 42.1032C58.0665 42.4872 58.1177 42.8584 58.2201 43.2168C58.3353 43.5752 58.5017 43.8888 58.7193 44.1576C58.9369 44.4264 59.2121 44.644 59.5449 44.8104C59.8777 44.964 60.2745 45.0408 60.7353 45.0408C61.3753 45.0408 61.8873 44.9064 62.2713 44.6376C62.6681 44.356 62.9625 43.94 63.1545 43.3896H65.2281C65.1129 43.9272 64.9145 44.4072 64.6329 44.8296C64.3513 45.252 64.0121 45.6104 63.6153 45.9048C63.2185 46.1864 62.7705 46.3976 62.2713 46.5384C61.7849 46.692 61.2729 46.7688 60.7353 46.7688C59.9545 46.7688 59.2633 46.6408 58.6617 46.3848C58.0601 46.1288 57.5481 45.7704 57.1257 45.3096C56.7161 44.8488 56.4025 44.2984 56.1849 43.6584C55.9801 43.0184 55.8777 42.3144 55.8777 41.5464C55.8777 40.8424 55.9865 40.1768 56.2041 39.5496C56.4345 38.9096 56.7545 38.3528 57.1641 37.8792C57.5865 37.3928 58.0921 37.0088 58.6809 36.7272C59.2697 36.4456 59.9353 36.3048 60.6777 36.3048C61.4585 36.3048 62.1561 36.4712 62.7705 36.804C63.3977 37.124 63.9161 37.5528 64.3257 38.0904C64.7353 38.628 65.0297 39.2488 65.2089 39.9528C65.4009 40.644 65.4521 41.3608 65.3625 42.1032H58.0665ZM72.3641 32.7912H74.5529V34.8648H72.3641V32.7912ZM65.2793 36.5736H66.9113V35.748C66.9113 35.1208 66.9881 34.6152 67.1417 34.2312C67.2953 33.8344 67.5001 33.5336 67.7561 33.3288C68.0121 33.1112 68.3001 32.9704 68.6201 32.9064C68.9529 32.8296 69.2985 32.7912 69.6569 32.7912C70.3609 32.7912 70.8729 32.836 71.1929 32.9256V34.6344C71.0521 34.596 70.8985 34.5704 70.7321 34.5576C70.5785 34.532 70.3929 34.5192 70.1753 34.5192C69.8809 34.5192 69.6249 34.5896 69.4073 34.7304C69.2025 34.8712 69.1001 35.1464 69.1001 35.556V36.5736H70.9625V38.2056H69.1001V46.5H66.9113V38.2056H65.2793V36.5736ZM72.3641 36.5736H74.5529V46.5H72.3641V36.5736ZM76.1592 36.5736H78.2328V38.0328L78.2712 38.0712C78.604 37.5208 79.0392 37.092 79.5768 36.7848C80.1144 36.4648 80.7096 36.3048 81.3624 36.3048C82.4504 36.3048 83.308 36.5864 83.9352 37.1496C84.5624 37.7128 84.876 38.5576 84.876 39.684V46.5H82.6872V40.26C82.6616 39.4792 82.4952 38.916 82.188 38.5704C81.8808 38.212 81.4008 38.0328 80.748 38.0328C80.3768 38.0328 80.044 38.1032 79.7496 38.244C79.4552 38.372 79.2056 38.5576 79.0008 38.8008C78.796 39.0312 78.636 39.3064 78.5208 39.6264C78.4056 39.9464 78.348 40.2856 78.348 40.644V46.5H76.1592V36.5736ZM93.2322 40.6632C93.2066 40.3176 93.1298 39.9848 93.0018 39.6648C92.8866 39.3448 92.7202 39.0696 92.5026 38.8392C92.2978 38.596 92.0418 38.404 91.7346 38.2632C91.4402 38.1096 91.1074 38.0328 90.7362 38.0328C90.3522 38.0328 90.0002 38.1032 89.6802 38.244C89.373 38.372 89.1042 38.5576 88.8738 38.8008C88.6562 39.0312 88.477 39.3064 88.3362 39.6264C88.2082 39.9464 88.1378 40.292 88.125 40.6632H93.2322ZM88.125 42.1032C88.125 42.4872 88.1762 42.8584 88.2786 43.2168C88.3938 43.5752 88.5602 43.8888 88.7778 44.1576C88.9954 44.4264 89.2706 44.644 89.6034 44.8104C89.9362 44.964 90.333 45.0408 90.7938 45.0408C91.4338 45.0408 91.9458 44.9064 92.3298 44.6376C92.7266 44.356 93.021 43.94 93.213 43.3896H95.2866C95.1714 43.9272 94.973 44.4072 94.6914 44.8296C94.4098 45.252 94.0706 45.6104 93.6738 45.9048C93.277 46.1864 92.829 46.3976 92.3298 46.5384C91.8434 46.692 91.3314 46.7688 90.7938 46.7688C90.013 46.7688 89.3218 46.6408 88.7202 46.3848C88.1186 46.1288 87.6066 45.7704 87.1842 45.3096C86.7746 44.8488 86.461 44.2984 86.2434 43.6584C86.0386 43.0184 85.9362 42.3144 85.9362 41.5464C85.9362 40.8424 86.045 40.1768 86.2626 39.5496C86.493 38.9096 86.813 38.3528 87.2226 37.8792C87.645 37.3928 88.1506 37.0088 88.7394 36.7272C89.3282 36.4456 89.9938 36.3048 90.7362 36.3048C91.517 36.3048 92.2146 36.4712 92.829 36.804C93.4562 37.124 93.9746 37.5528 94.3842 38.0904C94.7938 38.628 95.0882 39.2488 95.2674 39.9528C95.4594 40.644 95.5106 41.3608 95.421 42.1032H88.125Z" fill="currentColor"/>
</svg>
