<svg  viewBox="0 0 320 200" fill="none" xmlns="http://www.w3.org/2000/svg">
<g clip-path="url(#clip0_148_208)">
<path d="M14.3592 101.874C13.5334 88.411 13.1205 81.6798 15.4251 76.3771C17.4522 71.7127 20.904 67.8098 25.2857 65.2277C30.2669 62.2923 36.9982 61.8794 50.4607 61.0536L338.916 43.3592C352.378 42.5334 359.11 42.1205 364.412 44.4251C369.077 46.4522 372.98 49.904 375.562 54.2856C378.497 59.2669 378.91 65.9982 379.736 79.4607L393.301 300.61C394.127 314.072 394.54 320.803 392.236 326.106C390.208 330.77 386.757 334.673 382.375 337.255C377.394 340.191 370.663 340.604 357.2 341.43L68.7448 359.124C55.2823 359.95 48.5511 360.363 43.2484 358.058C38.584 356.031 34.6811 352.579 32.099 348.198C29.1636 343.216 28.7507 336.485 27.9249 323.022L14.3592 101.874Z" fill="white"/>
<rect width="327.53" height="19.9611" rx="7.98444" transform="matrix(0.998122 -0.0612555 0.0508597 0.998706 32.5142 81.4667)" fill="#F4F4F4"/>
<rect width="193.734" height="19.9611" rx="7.98444" transform="matrix(0.998122 -0.0612555 0.0508597 0.998706 34.3066 109)" fill="#F4F4F4"/>
<rect width="327.53" height="19.9611" rx="7.98444" transform="matrix(0.998122 -0.0612555 0.0508597 0.998706 35.8931 136.551)" fill="#F4F4F4"/>
</g>
<g clip-path="url(#clip1_148_208)">
<path d="M89.2633 59.0529C89.8071 45.5761 90.079 38.8377 92.9095 33.796C95.3992 29.3613 99.229 25.8286 103.85 23.7042C109.103 21.2892 115.842 21.5611 129.319 22.1049L418.081 33.7569C431.558 34.3007 438.296 34.5726 443.338 37.4031C447.773 39.8928 451.305 43.7226 453.43 48.3436C455.845 53.5969 455.573 60.3353 455.029 73.8121L446.096 295.197C445.552 308.673 445.28 315.412 442.45 320.454C439.96 324.888 436.13 328.421 431.509 330.545C426.256 332.96 419.517 332.688 406.04 332.145L117.278 320.493C103.801 319.949 97.0629 319.677 92.0212 316.846C87.5865 314.357 84.0538 310.527 81.9294 305.906C79.5144 300.653 79.7863 293.914 80.3301 280.437L89.2633 59.0529Z" fill="white"/>
<rect width="327.53" height="19.9611" rx="7.98444" transform="matrix(0.999188 0.0402899 -0.0506913 0.998714 109.394 40.5925)" fill="#F4F4F4"/>
<rect width="193.734" height="19.9611" rx="7.98444" transform="matrix(0.999188 0.0402899 -0.0506913 0.998714 108.385 68.1663)" fill="#F4F4F4"/>
<rect width="327.53" height="19.9611" rx="7.98444" transform="matrix(0.999188 0.0402899 -0.0506913 0.998714 107.169 95.7354)" fill="#F4F4F4"/>
<rect width="196.645" height="19.9611" rx="7.98444" transform="matrix(0.999188 0.0402899 -0.0506913 0.998714 106.16 123.309)" fill="#F4F4F4"/>
</g>
<g clip-path="url(#clip2_148_208)">
<path d="M177.809 37.9825C180.08 24.6874 181.216 18.0398 184.671 13.4039C187.711 9.32597 191.963 6.3149 196.818 4.80221C202.339 3.08251 208.986 4.2184 222.281 6.49017L507.15 55.1665C520.445 57.4382 527.093 58.5741 531.728 62.0292C535.806 65.0684 538.817 69.3206 540.33 74.1763C542.05 79.6964 540.914 86.344 538.642 99.6391L501.324 318.038C499.052 331.333 497.916 337.981 494.461 342.617C491.422 346.695 487.17 349.706 482.314 351.219C476.794 352.938 470.146 351.802 456.851 349.531L171.982 300.854C158.687 298.583 152.04 297.447 147.404 293.992C143.326 290.952 140.315 286.7 138.802 281.845C137.083 276.324 138.218 269.677 140.49 256.382L177.809 37.9825Z" fill="white"/>
<rect width="327.53" height="19.9611" rx="7.98444" transform="matrix(0.985718 0.168403 -0.178657 0.983911 200.146 22.2631)" fill="#F4F4F4"/>
<rect width="193.734" height="19.9611" rx="7.98444" transform="matrix(0.985718 0.168403 -0.178657 0.983911 195.6 49.4783)" fill="#F4F4F4"/>
<rect width="327.53" height="19.9611" rx="7.98444" transform="matrix(0.985718 0.168403 -0.178657 0.983911 190.85 76.6625)" fill="#F4F4F4"/>
<rect width="196.645" height="19.9611" rx="7.98444" transform="matrix(0.985718 0.168403 -0.178657 0.983911 186.305 103.878)" fill="#F4F4F4"/>
</g>
<rect y="22" width="550" height="138" fill="url(#paint0_linear_148_208)"/>
<defs>
<linearGradient id="paint0_linear_148_208" x1="275" y1="22" x2="274.891" y2="169" gradientUnits="userSpaceOnUse">
<stop stop-color="#F8F8F8" stop-opacity="0"/>
<stop offset="1" stop-color="#F8F8F8"/>
</linearGradient>
<clipPath id="clip0_148_208">
<path d="M14.3592 101.874C13.5334 88.411 13.1205 81.6798 15.4251 76.3771C17.4522 71.7127 20.904 67.8098 25.2857 65.2277C30.2669 62.2923 36.9982 61.8794 50.4607 61.0536L338.916 43.3592C352.378 42.5334 359.11 42.1205 364.412 44.4251C369.077 46.4522 372.98 49.904 375.562 54.2856C378.497 59.2669 378.91 65.9982 379.736 79.4607L393.301 300.61C394.127 314.072 394.54 320.803 392.236 326.106C390.208 330.77 386.757 334.673 382.375 337.255C377.394 340.191 370.663 340.604 357.2 341.43L68.7448 359.124C55.2823 359.95 48.5511 360.363 43.2484 358.058C38.584 356.031 34.6811 352.579 32.099 348.198C29.1636 343.216 28.7507 336.485 27.9249 323.022L14.3592 101.874Z" fill="white"/>
</clipPath>
<clipPath id="clip1_148_208">
<path d="M89.2633 59.0529C89.8071 45.5761 90.079 38.8377 92.9095 33.796C95.3992 29.3613 99.229 25.8286 103.85 23.7042C109.103 21.2892 115.842 21.5611 129.319 22.1049L418.081 33.7569C431.558 34.3007 438.296 34.5726 443.338 37.4031C447.773 39.8928 451.305 43.7226 453.43 48.3436C455.845 53.5969 455.573 60.3353 455.029 73.8121L446.096 295.197C445.552 308.673 445.28 315.412 442.45 320.454C439.96 324.888 436.13 328.421 431.509 330.545C426.256 332.96 419.517 332.688 406.04 332.145L117.278 320.493C103.801 319.949 97.0629 319.677 92.0212 316.846C87.5865 314.357 84.0538 310.527 81.9294 305.906C79.5144 300.653 79.7863 293.914 80.3301 280.437L89.2633 59.0529Z" fill="white"/>
</clipPath>
<clipPath id="clip2_148_208">
<path d="M177.809 37.9825C180.08 24.6874 181.216 18.0398 184.671 13.4039C187.711 9.32597 191.963 6.3149 196.818 4.80221C202.339 3.08251 208.986 4.2184 222.281 6.49017L507.15 55.1665C520.445 57.4382 527.093 58.5741 531.728 62.0292C535.806 65.0684 538.817 69.3206 540.33 74.1763C542.05 79.6964 540.914 86.344 538.642 99.6391L501.324 318.038C499.052 331.333 497.916 337.981 494.461 342.617C491.422 346.695 487.17 349.706 482.314 351.219C476.794 352.938 470.146 351.802 456.851 349.531L171.982 300.854C158.687 298.583 152.04 297.447 147.404 293.992C143.326 290.952 140.315 286.7 138.802 281.845C137.083 276.324 138.218 269.677 140.49 256.382L177.809 37.9825Z" fill="white"/>
</clipPath>
</defs>
</svg>
