<svg width="379" height="140" viewBox="0 0 379 140" fill="none" xmlns="http://www.w3.org/2000/svg">
<rect x="138" y="91.3381" width="261.851" height="48.5552" rx="24.2776" transform="rotate(-3.57728 138 91.3381)" fill="white"/>
<path d="M154.968 105.775L163.691 105.229C165.094 105.142 166.251 105.273 167.163 105.624C168.074 105.975 168.789 106.44 169.307 107.019C169.825 107.598 170.19 108.242 170.401 108.952C170.631 109.66 170.765 110.319 170.803 110.929C170.841 111.538 170.79 112.208 170.65 112.94C170.528 113.652 170.246 114.327 169.804 114.966C169.362 115.606 168.711 116.156 167.85 116.617C166.988 117.061 165.856 117.326 164.453 117.414L159.191 117.743L159.666 125.33L156.204 125.547L154.968 105.775ZM159.015 114.918L164.082 114.601C164.47 114.577 164.863 114.497 165.263 114.361C165.662 114.224 166.02 114.026 166.337 113.765C166.672 113.485 166.928 113.135 167.106 112.716C167.301 112.278 167.379 111.745 167.339 111.117C167.299 110.471 167.173 109.941 166.962 109.528C166.751 109.115 166.481 108.799 166.152 108.578C165.822 108.339 165.451 108.187 165.039 108.12C164.627 108.053 164.191 108.034 163.729 108.063L158.606 108.383L159.015 114.918ZM182.428 115.456C182.36 114.96 182.219 114.487 182.006 114.037C181.811 113.586 181.546 113.204 181.211 112.891C180.894 112.559 180.507 112.305 180.052 112.129C179.613 111.935 179.126 111.854 178.591 111.887C178.037 111.922 177.536 112.055 177.087 112.287C176.655 112.499 176.284 112.791 175.974 113.163C175.681 113.515 175.447 113.928 175.273 114.402C175.117 114.875 175.047 115.38 175.062 115.916L182.428 115.456ZM175.192 117.993C175.226 118.547 175.334 119.078 175.514 119.586C175.712 120.092 175.98 120.529 176.318 120.897C176.657 121.266 177.073 121.555 177.568 121.765C178.062 121.956 178.641 122.031 179.306 121.99C180.229 121.932 180.955 121.692 181.485 121.269C182.032 120.828 182.419 120.201 182.646 119.39L185.637 119.203C185.519 119.989 185.276 120.699 184.908 121.333C184.54 121.968 184.083 122.516 183.537 122.976C182.991 123.418 182.363 123.763 181.656 124.011C180.968 124.276 180.237 124.433 179.462 124.482C178.335 124.552 177.327 124.43 176.436 124.115C175.545 123.8 174.775 123.329 174.124 122.703C173.492 122.075 172.99 121.309 172.618 120.406C172.265 119.501 172.054 118.495 171.985 117.388C171.921 116.372 172.018 115.402 172.275 114.478C172.55 113.534 172.961 112.702 173.509 111.982C174.075 111.243 174.769 110.643 175.593 110.184C176.417 109.725 177.364 109.462 178.435 109.395C179.561 109.325 180.582 109.502 181.498 109.926C182.432 110.331 183.218 110.903 183.857 111.641C184.497 112.38 184.977 113.249 185.299 114.248C185.638 115.227 185.777 116.257 185.715 117.335L175.192 117.993ZM186.508 109.279L189.471 109.094L189.644 111.863L189.7 111.86C189.768 111.466 189.92 111.077 190.155 110.692C190.409 110.305 190.711 109.953 191.062 109.634C191.43 109.296 191.839 109.02 192.289 108.807C192.739 108.593 193.204 108.472 193.684 108.442C194.053 108.419 194.303 108.412 194.433 108.423C194.582 108.432 194.731 108.441 194.88 108.45L195.07 111.496C194.846 111.473 194.614 111.46 194.373 111.457C194.149 111.434 193.926 111.429 193.705 111.443C193.169 111.476 192.669 111.619 192.202 111.87C191.754 112.102 191.367 112.441 191.043 112.888C190.717 113.316 190.472 113.841 190.307 114.463C190.142 115.085 190.085 115.793 190.134 116.587L190.56 123.399L187.403 123.596L186.508 109.279ZM198.125 118.311C198.275 119.228 198.666 119.852 199.299 120.184C199.931 120.515 200.672 120.654 201.521 120.601C201.816 120.582 202.147 120.543 202.514 120.483C202.898 120.403 203.253 120.289 203.577 120.139C203.901 119.989 204.157 119.787 204.345 119.535C204.551 119.262 204.631 118.924 204.588 118.519C204.544 118.114 204.375 117.791 204.082 117.549C203.789 117.308 203.416 117.128 202.964 117.008C202.529 116.868 202.031 116.76 201.471 116.684C200.91 116.608 200.339 116.523 199.759 116.43C199.16 116.337 198.578 116.216 198.013 116.066C197.466 115.915 196.961 115.696 196.498 115.41C196.054 115.123 195.688 114.747 195.399 114.284C195.109 113.801 194.942 113.2 194.897 112.48C194.849 111.705 194.993 111.047 195.33 110.507C195.684 109.948 196.137 109.493 196.69 109.143C197.26 108.774 197.892 108.503 198.585 108.33C199.297 108.156 199.976 108.048 200.622 108.008C201.361 107.962 202.068 108.001 202.742 108.126C203.435 108.231 204.06 108.442 204.617 108.759C205.193 109.075 205.674 109.508 206.06 110.059C206.464 110.589 206.737 111.249 206.879 112.037L203.584 112.243C203.389 111.495 203.006 111.01 202.436 110.786C201.885 110.561 201.258 110.47 200.557 110.514C200.335 110.528 200.069 110.563 199.757 110.62C199.464 110.675 199.182 110.767 198.912 110.895C198.66 111.003 198.447 111.165 198.276 111.379C198.102 111.576 198.026 111.831 198.045 112.144C198.07 112.532 198.218 112.838 198.492 113.062C198.784 113.284 199.147 113.465 199.582 113.605C200.035 113.725 200.541 113.823 201.102 113.899C201.663 113.975 202.242 114.06 202.841 114.152C203.422 114.245 203.995 114.367 204.56 114.517C205.125 114.667 205.63 114.886 206.074 115.173C206.537 115.459 206.913 115.834 207.201 116.298C207.508 116.761 207.683 117.343 207.727 118.044C207.78 118.894 207.631 119.626 207.281 120.241C206.93 120.856 206.452 121.367 205.848 121.776C205.262 122.183 204.595 122.493 203.849 122.707C203.102 122.92 202.36 123.05 201.621 123.096C200.717 123.153 199.87 123.104 199.082 122.949C198.313 122.794 197.629 122.531 197.031 122.16C196.451 121.77 195.976 121.281 195.605 120.693C195.252 120.084 195.04 119.356 194.968 118.508L198.125 118.311ZM215.87 122.206C214.726 122.277 213.689 122.157 212.762 121.844C211.851 121.512 211.062 121.033 210.392 120.407C209.742 119.781 209.221 119.017 208.831 118.114C208.46 117.211 208.239 116.205 208.17 115.098C208.102 114.008 208.196 112.992 208.452 112.05C208.727 111.106 209.148 110.283 209.715 109.58C210.302 108.876 211.026 108.312 211.889 107.887C212.77 107.443 213.782 107.185 214.927 107.114C216.071 107.042 217.099 107.172 218.009 107.505C218.937 107.817 219.726 108.287 220.377 108.914C221.046 109.539 221.566 110.303 221.938 111.207C222.328 112.109 222.557 113.105 222.625 114.194C222.694 115.302 222.592 116.327 222.317 117.271C222.061 118.214 221.64 119.037 221.054 119.741C220.486 120.444 219.762 121.017 218.882 121.461C218.019 121.886 217.015 122.134 215.87 122.206ZM215.714 119.713C216.416 119.67 217.016 119.484 217.514 119.156C218.013 118.828 218.413 118.414 218.715 117.913C219.018 117.413 219.224 116.862 219.335 116.262C219.463 115.643 219.507 115.019 219.468 114.391C219.43 113.782 219.309 113.178 219.105 112.579C218.919 111.979 218.645 111.459 218.284 111.018C217.922 110.559 217.473 110.198 216.938 109.935C216.402 109.672 215.784 109.562 215.082 109.606C214.381 109.65 213.781 109.836 213.282 110.163C212.784 110.491 212.384 110.905 212.081 111.406C211.778 111.888 211.562 112.439 211.434 113.059C211.325 113.677 211.289 114.291 211.327 114.9C211.366 115.528 211.479 116.142 211.664 116.742C211.867 117.322 212.15 117.842 212.512 118.301C212.875 118.76 213.324 119.121 213.859 119.385C214.394 119.648 215.013 119.757 215.714 119.713ZM223.695 106.955L226.686 106.768L226.817 108.872L226.876 108.924C227.307 108.1 227.896 107.443 228.643 106.951C229.39 106.441 230.234 106.157 231.175 106.098C232.745 106 234.007 106.329 234.962 107.084C235.918 107.84 236.446 109.03 236.548 110.655L237.162 120.485L234.005 120.683L233.443 111.683C233.335 110.559 233.045 109.762 232.57 109.291C232.095 108.802 231.387 108.587 230.445 108.645C229.91 108.679 229.436 108.81 229.024 109.04C228.611 109.251 228.268 109.541 227.994 109.911C227.72 110.261 227.514 110.673 227.377 111.145C227.239 111.617 227.187 112.111 227.219 112.628L227.747 121.074L224.59 121.271L223.695 106.955ZM251.175 116.412C251.199 116.8 251.263 117.074 251.366 117.234C251.487 117.394 251.695 117.464 251.99 117.446C252.083 117.44 252.193 117.433 252.323 117.425C252.452 117.417 252.598 117.389 252.762 117.342L252.899 119.529C252.791 119.573 252.645 119.619 252.463 119.668C252.3 119.734 252.128 119.791 251.945 119.839C251.763 119.888 251.58 119.927 251.397 119.957C251.213 119.987 251.057 120.006 250.928 120.014C250.282 120.054 249.738 119.959 249.297 119.727C248.857 119.495 248.551 119.06 248.382 118.422C247.792 119.07 247.044 119.562 246.139 119.896C245.251 120.23 244.383 120.423 243.534 120.476C242.888 120.517 242.264 120.463 241.661 120.315C241.06 120.186 240.518 119.97 240.036 119.666C239.571 119.343 239.184 118.932 238.875 118.432C238.583 117.913 238.415 117.303 238.371 116.601C238.316 115.715 238.428 114.985 238.707 114.412C239.005 113.837 239.402 113.377 239.899 113.031C240.415 112.683 240.992 112.425 241.63 112.255C242.285 112.066 242.943 111.914 243.603 111.798C244.168 111.652 244.708 111.544 245.223 111.475C245.736 111.387 246.184 111.276 246.564 111.141C246.964 111.004 247.267 110.819 247.475 110.583C247.7 110.328 247.798 109.97 247.769 109.508C247.744 109.102 247.621 108.776 247.402 108.531C247.201 108.284 246.949 108.105 246.646 107.994C246.359 107.864 246.04 107.791 245.687 107.776C245.333 107.743 244.999 107.736 244.685 107.755C243.799 107.811 243.081 108.041 242.532 108.446C241.982 108.851 241.695 109.443 241.67 110.223L238.513 110.421C238.511 109.494 238.684 108.714 239.034 108.081C239.383 107.447 239.842 106.927 240.41 106.521C240.996 106.114 241.663 105.813 242.41 105.618C243.158 105.423 243.929 105.301 244.723 105.251C245.424 105.207 246.121 105.238 246.813 105.343C247.506 105.448 248.13 105.649 248.686 105.948C249.261 106.246 249.731 106.652 250.097 107.167C250.461 107.663 250.667 108.289 250.715 109.046L251.175 116.412ZM247.769 112.622C247.309 112.966 246.73 113.197 246.033 113.314C245.335 113.414 244.639 113.55 243.946 113.723C243.617 113.799 243.299 113.902 242.992 114.033C242.684 114.145 242.416 114.3 242.187 114.5C241.958 114.681 241.778 114.924 241.649 115.229C241.537 115.514 241.494 115.859 241.519 116.265C241.541 116.616 241.661 116.905 241.879 117.132C242.097 117.36 242.35 117.539 242.636 117.669C242.939 117.78 243.259 117.852 243.595 117.887C243.949 117.92 244.264 117.929 244.541 117.911C244.892 117.889 245.268 117.819 245.668 117.702C246.068 117.584 246.437 117.403 246.774 117.16C247.129 116.915 247.417 116.619 247.636 116.272C247.854 115.906 247.947 115.474 247.916 114.976L247.769 112.622ZM252.51 99.6766L255.667 99.4793L256.903 119.251L253.746 119.449L252.51 99.6766ZM268.136 111.933C268.184 112.689 268.353 113.327 268.645 113.847C268.937 114.366 269.325 114.786 269.808 115.108C270.291 115.412 270.832 115.628 271.434 115.757C272.052 115.867 272.712 115.9 273.414 115.856C274.17 115.809 274.811 115.685 275.336 115.486C275.86 115.268 276.28 115.01 276.595 114.712C276.91 114.414 277.13 114.085 277.256 113.725C277.38 113.347 277.431 112.973 277.408 112.604C277.361 111.847 277.151 111.304 276.778 110.975C276.423 110.627 276.037 110.391 275.622 110.269C274.904 110.055 274.068 109.866 273.112 109.703C272.174 109.521 271.011 109.288 269.621 109.004C268.758 108.836 268.03 108.594 267.435 108.279C266.859 107.944 266.39 107.566 266.03 107.144C265.67 106.721 265.401 106.266 265.222 105.776C265.061 105.286 264.965 104.782 264.933 104.265C264.87 103.269 265.02 102.397 265.381 101.652C265.759 100.887 266.275 100.243 266.928 99.7205C267.581 99.1978 268.335 98.7985 269.189 98.5228C270.041 98.2285 270.911 98.0537 271.797 97.9983C272.831 97.9337 273.808 98.0115 274.73 98.2319C275.67 98.4327 276.497 98.7794 277.214 99.272C277.949 99.7636 278.544 100.394 279 101.162C279.455 101.912 279.714 102.804 279.779 103.838L276.318 104.054C276.146 102.786 275.656 101.918 274.848 101.449C274.039 100.962 273.035 100.757 271.835 100.832C271.429 100.857 271.016 100.929 270.597 101.048C270.177 101.148 269.798 101.311 269.46 101.536C269.121 101.743 268.842 102.019 268.623 102.367C268.422 102.713 268.337 103.135 268.368 103.634C268.412 104.335 268.659 104.876 269.109 105.255C269.576 105.615 270.167 105.875 270.881 106.034C270.956 106.048 271.248 106.113 271.755 106.23C272.28 106.327 272.862 106.439 273.5 106.565C274.138 106.692 274.758 106.82 275.359 106.95C275.977 107.059 276.418 107.143 276.681 107.201C277.34 107.363 277.92 107.605 278.422 107.926C278.924 108.246 279.346 108.628 279.689 109.07C280.049 109.492 280.319 109.957 280.499 110.465C280.698 110.971 280.813 111.483 280.845 112C280.915 113.107 280.743 114.073 280.331 114.895C279.937 115.698 279.386 116.372 278.678 116.917C277.971 117.461 277.154 117.874 276.226 118.154C275.3 118.453 274.347 118.633 273.369 118.694C272.242 118.765 271.172 118.693 270.158 118.478C269.144 118.264 268.25 117.893 267.475 117.367C266.701 116.841 266.065 116.149 265.566 115.29C265.067 114.413 264.77 113.366 264.675 112.149L268.136 111.933ZM280.348 103.413L282.73 103.264L282.462 98.9718L285.618 98.7744L285.887 103.067L288.739 102.888L288.886 105.242L286.034 105.42L286.512 113.063C286.532 113.396 286.56 113.681 286.593 113.92C286.645 114.158 286.722 114.357 286.825 114.517C286.946 114.676 287.111 114.796 287.32 114.875C287.528 114.937 287.807 114.956 288.158 114.934C288.379 114.92 288.601 114.907 288.822 114.893C289.043 114.86 289.262 114.81 289.48 114.74L289.632 117.177C289.284 117.236 288.945 117.294 288.615 117.352C288.285 117.41 287.944 117.45 287.593 117.472C286.763 117.523 286.084 117.492 285.558 117.376C285.049 117.241 284.638 117.035 284.324 116.759C284.028 116.462 283.81 116.086 283.67 115.632C283.549 115.176 283.46 114.653 283.405 114.064L282.877 105.618L280.496 105.767L280.348 103.413ZM302.589 113.198C302.613 113.586 302.676 113.86 302.779 114.02C302.9 114.179 303.109 114.25 303.404 114.231C303.496 114.226 303.607 114.219 303.736 114.211C303.865 114.202 304.012 114.175 304.176 114.127L304.313 116.315C304.204 116.359 304.059 116.405 303.876 116.454C303.714 116.519 303.541 116.576 303.359 116.625C303.177 116.673 302.994 116.713 302.81 116.743C302.627 116.773 302.471 116.792 302.341 116.8C301.695 116.84 301.152 116.744 300.711 116.512C300.27 116.281 299.965 115.846 299.795 115.208C299.206 115.856 298.458 116.348 297.552 116.682C296.665 117.016 295.797 117.209 294.948 117.262C294.301 117.302 293.677 117.249 293.075 117.101C292.474 116.972 291.932 116.755 291.45 116.452C290.985 116.129 290.598 115.718 290.288 115.218C289.997 114.699 289.829 114.088 289.785 113.387C289.729 112.501 289.841 111.771 290.12 111.198C290.418 110.623 290.816 110.163 291.313 109.816C291.829 109.469 292.406 109.211 293.044 109.041C293.699 108.852 294.357 108.699 295.017 108.584C295.582 108.438 296.122 108.33 296.637 108.26C297.15 108.173 297.597 108.061 297.978 107.926C298.377 107.79 298.681 107.604 298.888 107.369C299.113 107.114 299.211 106.756 299.183 106.294C299.157 105.888 299.035 105.562 298.816 105.316C298.615 105.069 298.363 104.891 298.059 104.78C297.773 104.649 297.454 104.577 297.1 104.562C296.746 104.528 296.412 104.521 296.098 104.541C295.212 104.596 294.495 104.827 293.945 105.232C293.396 105.637 293.109 106.229 293.083 107.009L289.927 107.206C289.924 106.28 290.098 105.5 290.447 104.867C290.797 104.233 291.256 103.713 291.823 103.307C292.41 102.9 293.076 102.599 293.824 102.404C294.572 102.209 295.343 102.086 296.136 102.037C296.838 101.993 297.535 102.023 298.227 102.128C298.919 102.233 299.544 102.435 300.1 102.734C300.674 103.032 301.145 103.438 301.51 103.953C301.875 104.449 302.081 105.075 302.128 105.832L302.589 113.198ZM299.183 109.408C298.722 109.752 298.144 109.982 297.447 110.1C296.749 110.199 296.053 110.336 295.359 110.509C295.031 110.585 294.713 110.688 294.406 110.818C294.098 110.93 293.829 111.086 293.601 111.286C293.371 111.467 293.192 111.71 293.063 112.014C292.951 112.299 292.908 112.645 292.933 113.051C292.955 113.402 293.075 113.691 293.293 113.918C293.511 114.146 293.763 114.324 294.049 114.455C294.353 114.565 294.672 114.638 295.008 114.673C295.362 114.706 295.678 114.714 295.955 114.697C296.306 114.675 296.681 114.605 297.082 114.488C297.482 114.37 297.851 114.189 298.187 113.946C298.543 113.701 298.83 113.405 299.049 113.058C299.267 112.692 299.361 112.26 299.33 111.762L299.183 109.408ZM302.742 102.013L305.123 101.864L304.855 97.5718L308.012 97.3745L308.28 101.667L311.133 101.488L311.28 103.842L308.427 104.02L308.905 111.663C308.926 111.996 308.953 112.281 308.987 112.52C309.039 112.758 309.116 112.957 309.219 113.117C309.34 113.276 309.505 113.396 309.714 113.475C309.921 113.537 310.2 113.556 310.551 113.534C310.773 113.52 310.994 113.507 311.216 113.493C311.436 113.46 311.655 113.41 311.873 113.34L312.026 115.777C311.677 115.836 311.338 115.894 311.008 115.952C310.678 116.01 310.338 116.05 309.987 116.072C309.156 116.124 308.478 116.092 307.952 115.976C307.443 115.841 307.032 115.635 306.718 115.359C306.421 115.062 306.203 114.686 306.063 114.232C305.942 113.776 305.854 113.253 305.799 112.664L305.271 104.218L302.889 104.367L302.742 102.013ZM322.495 106.699C322.427 106.203 322.286 105.73 322.073 105.28C321.878 104.829 321.613 104.447 321.278 104.134C320.961 103.802 320.575 103.548 320.119 103.373C319.68 103.178 319.193 103.097 318.658 103.131C318.104 103.165 317.603 103.299 317.154 103.531C316.722 103.743 316.352 104.035 316.041 104.406C315.748 104.758 315.514 105.171 315.34 105.646C315.184 106.119 315.114 106.623 315.129 107.16L322.495 106.699ZM315.259 109.237C315.294 109.791 315.401 110.321 315.581 110.829C315.779 111.336 316.048 111.773 316.386 112.141C316.724 112.509 317.14 112.798 317.635 113.008C318.129 113.2 318.708 113.275 319.373 113.233C320.296 113.175 321.022 112.935 321.552 112.513C322.099 112.071 322.486 111.445 322.713 110.633L325.704 110.446C325.586 111.232 325.343 111.942 324.975 112.577C324.607 113.212 324.15 113.759 323.605 114.219C323.058 114.661 322.431 115.006 321.723 115.254C321.036 115.52 320.304 115.677 319.529 115.725C318.403 115.796 317.394 115.673 316.503 115.358C315.613 115.043 314.842 114.573 314.191 113.946C313.559 113.318 313.057 112.553 312.685 111.649C312.332 110.745 312.121 109.739 312.052 108.631C311.988 107.616 312.085 106.646 312.343 105.722C312.617 104.778 313.029 103.946 313.577 103.226C314.142 102.486 314.837 101.887 315.66 101.428C316.484 100.968 317.431 100.705 318.502 100.638C319.628 100.568 320.649 100.745 321.566 101.17C322.499 101.575 323.285 102.146 323.925 102.885C324.564 103.623 325.044 104.492 325.366 105.491C325.706 106.471 325.844 107.5 325.782 108.579L315.259 109.237ZM326.575 100.523L329.566 100.336L329.691 102.33L329.774 102.325C329.992 101.959 330.23 101.62 330.489 101.307C330.747 100.994 331.036 100.726 331.356 100.502C331.694 100.277 332.081 100.095 332.517 99.9569C332.952 99.8 333.456 99.7036 334.028 99.6678C334.896 99.6136 335.711 99.7572 336.474 100.099C337.255 100.439 337.828 101.006 338.192 101.798C338.681 101.026 339.263 100.406 339.938 99.9377C340.613 99.4693 341.477 99.2021 342.529 99.1363C344.043 99.0417 345.239 99.3376 346.115 100.024C347.011 100.71 347.513 101.92 347.621 103.655L348.239 113.541L345.082 113.739L344.56 105.376C344.524 104.803 344.473 104.288 344.407 103.828C344.34 103.351 344.204 102.951 343.999 102.631C343.811 102.29 343.536 102.039 343.173 101.876C342.811 101.713 342.325 101.651 341.716 101.689C340.645 101.756 339.891 102.137 339.452 102.832C339.014 103.526 338.833 104.483 338.909 105.701L339.433 114.092L336.276 114.289L335.702 105.095C335.639 104.098 335.408 103.362 335.008 102.887C334.625 102.392 333.953 102.175 332.993 102.235C332.587 102.26 332.195 102.368 331.818 102.558C331.459 102.747 331.142 103.008 330.866 103.34C330.609 103.672 330.402 104.074 330.246 104.547C330.109 105.019 330.059 105.55 330.096 106.141L330.627 114.642L327.47 114.84L326.575 100.523ZM359.762 104.37C359.694 103.873 359.553 103.4 359.34 102.95C359.145 102.499 358.88 102.117 358.545 101.805C358.228 101.472 357.842 101.219 357.386 101.043C356.947 100.848 356.46 100.767 355.925 100.801C355.371 100.836 354.87 100.969 354.421 101.201C353.99 101.413 353.619 101.705 353.308 102.076C353.015 102.428 352.781 102.841 352.607 103.316C352.452 103.789 352.381 104.294 352.396 104.83L359.762 104.37ZM352.526 106.907C352.561 107.461 352.668 107.992 352.848 108.499C353.046 109.006 353.315 109.443 353.653 109.811C353.991 110.179 354.407 110.468 354.902 110.678C355.396 110.87 355.975 110.945 356.64 110.903C357.563 110.845 358.289 110.605 358.819 110.183C359.366 109.741 359.753 109.115 359.98 108.304L362.971 108.117C362.853 108.902 362.61 109.613 362.242 110.247C361.874 110.882 361.417 111.429 360.872 111.89C360.325 112.332 359.698 112.677 358.99 112.925C358.303 113.19 357.571 113.347 356.796 113.395C355.67 113.466 354.661 113.344 353.77 113.029C352.88 112.714 352.109 112.243 351.458 111.616C350.826 110.989 350.324 110.223 349.952 109.32C349.599 108.415 349.388 107.409 349.319 106.301C349.255 105.286 349.352 104.316 349.61 103.392C349.884 102.448 350.296 101.616 350.844 100.896C351.409 100.157 352.104 99.5571 352.927 99.0979C353.751 98.6387 354.699 98.3756 355.769 98.3086C356.895 98.2382 357.917 98.4153 358.833 98.8399C359.766 99.2449 360.552 99.8166 361.192 100.555C361.831 101.293 362.311 102.162 362.633 103.162C362.973 104.141 363.111 105.17 363.049 106.249L352.526 106.907ZM363.842 98.1931L366.833 98.0062L366.965 100.111L367.024 100.163C367.454 99.3388 368.043 98.6811 368.791 98.1896C369.537 97.6796 370.381 97.3951 371.323 97.3363C372.892 97.2382 374.154 97.567 375.11 98.3227C376.065 99.0785 376.593 100.269 376.695 101.893L377.31 111.724L374.153 111.921L373.59 102.921C373.483 101.798 373.192 101 372.718 100.529C372.242 100.04 371.534 99.8251 370.592 99.8839C370.057 99.9174 369.583 100.049 369.171 100.279C368.758 100.49 368.415 100.78 368.142 101.149C367.867 101.5 367.661 101.911 367.524 102.383C367.387 102.855 367.334 103.35 367.366 103.866L367.894 112.312L364.738 112.51L363.842 98.1931ZM377.196 97.3583L379.577 97.2094L379.309 92.9172L382.466 92.7198L382.734 97.0121L385.587 96.8338L385.734 99.1876L382.881 99.3659L383.359 107.009C383.38 107.341 383.407 107.627 383.441 107.866C383.493 108.103 383.57 108.302 383.673 108.463C383.794 108.622 383.959 108.741 384.168 108.821C384.375 108.882 384.654 108.902 385.005 108.88C385.227 108.866 385.448 108.852 385.67 108.838C385.89 108.806 386.109 108.755 386.327 108.686L386.48 111.123C386.131 111.182 385.792 111.24 385.462 111.298C385.132 111.355 384.792 111.395 384.441 111.417C383.61 111.469 382.932 111.437 382.406 111.322C381.897 111.187 381.486 110.981 381.172 110.704C380.875 110.407 380.657 110.032 380.517 109.577C380.396 109.121 380.308 108.599 380.253 108.009L379.725 99.5632L377.343 99.7121L377.196 97.3583Z" fill="#A3A3A3"/>
<rect x="-0.144287" width="238.746" height="48.5552" rx="24.2776" transform="rotate(8.11693 -0.144287 0)" fill="white"/>
<path d="M13.4383 17.5608L18.2727 18.2503L21.4939 34.3766L21.5489 34.3844L29.0126 19.782L33.792 20.4637L30.9949 40.0757L27.7262 39.6096L29.8848 24.4748L29.8298 24.4669L22.2326 38.826L19.4035 38.4225L16.1234 22.5121L16.0684 22.5042L13.9099 37.639L10.6412 37.1728L13.4383 17.5608ZM40.0229 41.7557C38.8875 41.5938 37.8974 41.2657 37.0523 40.7715C36.2282 40.2616 35.5518 39.6326 35.0232 38.8846C34.513 38.1392 34.1583 37.2852 33.9593 36.3226C33.7786 35.3626 33.7666 34.3332 33.9233 33.2345C34.0774 32.1541 34.3753 31.1783 34.8172 30.3071C35.2774 29.4385 35.8567 28.7177 36.555 28.1447C37.2716 27.5742 38.0955 27.1686 39.0267 26.9277C39.9789 26.6711 41.0226 26.6238 42.1579 26.7857C43.2933 26.9477 44.273 27.2836 45.0971 27.7935C45.9422 28.2877 46.6198 28.9075 47.1301 29.6529C47.6587 30.4009 48.0134 31.255 48.1941 32.2149C48.3931 33.1776 48.4156 34.1991 48.2615 35.2795C48.1048 36.3782 47.7963 37.3618 47.3361 38.2304C46.8942 39.1016 46.315 39.8224 45.5984 40.3928C44.9001 40.9659 44.0748 41.3807 43.1227 41.6373C42.1915 41.8782 41.1582 41.9176 40.0229 41.7557ZM40.3755 39.2836C41.0713 39.3828 41.6965 39.3225 42.251 39.1027C42.8055 38.8828 43.2816 38.5583 43.6791 38.1292C44.0766 37.7001 44.3904 37.203 44.6205 36.6379C44.8715 36.0572 45.0414 35.4555 45.1301 34.8329C45.2163 34.2286 45.2201 33.6125 45.1415 32.9847C45.0812 32.3595 44.9189 31.7945 44.6545 31.2897C44.3928 30.7666 44.0265 30.322 43.5556 29.9559C43.0846 29.5898 42.5012 29.3571 41.8054 29.2578C41.1095 29.1586 40.4843 29.2189 39.9298 29.4388C39.3753 29.6586 38.8993 29.9831 38.5017 30.4122C38.1068 30.823 37.7839 31.3188 37.5329 31.8996C37.3002 32.483 37.1408 33.0768 37.0546 33.6811C36.9658 34.3037 36.9516 34.9276 37.0119 35.5528C37.0931 36.1623 37.2646 36.7286 37.5263 37.2517C37.788 37.7748 38.1543 38.2194 38.6253 38.5856C39.0962 38.9517 39.6796 39.1844 40.3755 39.2836ZM49.3484 28.2036L51.7106 28.5405L52.3178 24.283L55.4492 24.7296L54.842 28.9871L57.6711 29.3906L57.3382 31.7254L54.509 31.3219L53.4277 38.903C53.3807 39.2326 53.3494 39.5178 53.3338 39.7584C53.3364 40.0017 53.3718 40.2123 53.4398 40.3902C53.5262 40.5706 53.6636 40.721 53.8519 40.8413C54.0429 40.9433 54.3124 41.0191 54.6603 41.0687C54.8801 41.1 55.0998 41.1314 55.3195 41.1627C55.5419 41.1758 55.7669 41.1705 55.9944 41.1469L55.6497 43.564C55.2965 43.551 54.9526 43.5394 54.6177 43.529C54.2829 43.5186 53.9415 43.4886 53.5936 43.439C52.7695 43.3214 52.1116 43.1529 51.6198 42.9332C51.1488 42.6979 50.7878 42.4129 50.5366 42.0781C50.3063 41.7276 50.1689 41.3156 50.1243 40.8422C50.098 40.3713 50.1175 39.8416 50.1828 39.253L51.3776 30.8753L49.0154 30.5384L49.3484 28.2036ZM59.6792 24.1558L62.8105 24.6024L62.3874 27.5689L59.2561 27.1223L59.6792 24.1558ZM58.9074 29.567L62.0387 30.0135L60.0134 44.2144L56.882 43.7678L58.9074 29.567ZM62.951 30.1437L66.357 30.6294L68.4 42.0474L68.455 42.0552L73.4712 31.6441L76.7124 32.1063L69.6055 45.5825L66.0896 45.081L62.951 30.1437ZM87.8154 44.9566C87.7606 45.3411 87.7672 45.6223 87.8353 45.8002C87.9216 45.9807 88.1113 46.0918 88.4043 46.1336C88.4959 46.1466 88.6057 46.1623 88.7339 46.1806C88.8621 46.1989 89.0112 46.2015 89.1812 46.1883L88.8717 48.3583C88.7566 48.3793 88.6049 48.395 88.4166 48.4055C88.2439 48.4369 88.0634 48.4579 87.8751 48.4684C87.6868 48.4789 87.4997 48.4803 87.314 48.4725C87.1283 48.4647 86.9713 48.4516 86.8431 48.4333C86.2022 48.3419 85.6894 48.138 85.3048 47.8216C84.9202 47.5051 84.7095 47.0173 84.6728 46.3581C83.964 46.8736 83.1322 47.2034 82.1774 47.3475C81.241 47.4942 80.3516 47.5075 79.5092 47.3873C78.8683 47.2959 78.2679 47.1169 77.708 46.8502C77.1456 46.6018 76.6589 46.2802 76.2481 45.8853C75.8583 45.4747 75.5626 44.9934 75.361 44.4415C75.1804 43.8739 75.1397 43.2421 75.2389 42.5463C75.3643 41.6673 75.6218 40.9754 76.0115 40.4704C76.4194 39.9681 76.902 39.5978 77.4591 39.3596C78.0346 39.1241 78.6519 38.9879 79.3111 38.9511C79.9912 38.8986 80.6661 38.8828 81.3358 38.9036C81.9191 38.8747 82.4698 38.8784 82.9877 38.915C83.5083 38.9331 83.9687 38.9147 84.3689 38.8597C84.7874 38.8073 85.1222 38.6869 85.3733 38.4985C85.6453 38.2944 85.814 37.9634 85.8793 37.5056C85.9367 37.1028 85.883 36.7588 85.7182 36.4737C85.5716 36.1912 85.361 35.965 85.0863 35.795C84.8325 35.6093 84.5342 35.4734 84.1915 35.3871C83.8514 35.2826 83.5257 35.2081 83.2144 35.1637C82.3355 35.0383 81.586 35.1183 80.9661 35.4036C80.3462 35.6888 79.9448 36.2108 79.7619 36.9695L76.6305 36.5229C76.8161 35.6151 77.1442 34.8865 77.6149 34.3371C78.0856 33.7876 78.6401 33.3716 79.2783 33.0889C79.9349 32.8088 80.649 32.6491 81.4207 32.6097C82.1923 32.5703 82.9719 32.6067 83.7593 32.719C84.4551 32.8183 85.1314 32.9894 85.788 33.2326C86.4447 33.4757 87.015 33.7999 87.4991 34.2053C88.0014 34.6133 88.3795 35.1063 88.6334 35.6843C88.8899 36.2441 88.9646 36.8993 88.8575 37.6501L87.8154 44.9566ZM85.2482 40.5546C84.7277 40.798 84.1143 40.9067 83.408 40.8807C82.7043 40.8364 81.9954 40.8287 81.2813 40.8576C80.9438 40.8656 80.6116 40.9023 80.2847 40.9677C79.9603 41.0149 79.666 41.1131 79.4019 41.2622C79.1403 41.3931 78.9154 41.5946 78.7271 41.8667C78.5597 42.1231 78.4473 42.4527 78.3899 42.8556C78.3402 43.2035 78.3992 43.5108 78.5667 43.7776C78.7341 44.0444 78.9448 44.2706 79.1986 44.4563C79.4733 44.6263 79.7715 44.7622 80.0933 44.8642C80.4334 44.9687 80.7408 45.0406 81.0154 45.0798C81.3634 45.1294 81.7453 45.1372 82.1612 45.1031C82.5771 45.069 82.9747 44.9668 83.354 44.7967C83.7516 44.6292 84.0929 44.3976 84.378 44.102C84.6656 43.788 84.8447 43.3838 84.9152 42.8894L85.2482 40.5546ZM90.2326 34.0346L92.5948 34.3715L93.202 30.114L96.3333 30.5606L95.7261 34.8181L98.5553 35.2216L98.2223 37.5564L95.3931 37.1529L94.3119 44.734C94.2649 45.0636 94.2336 45.3488 94.2179 45.5894C94.2206 45.8327 94.256 46.0433 94.324 46.2212C94.4104 46.4016 94.5478 46.552 94.7361 46.6723C94.9271 46.7743 95.1966 46.8501 95.5445 46.8997C95.7642 46.931 95.984 46.9624 96.2037 46.9937C96.4261 47.0068 96.651 47.0015 96.8786 46.9779L96.5339 49.395C96.1807 49.382 95.8367 49.3704 95.5019 49.36C95.1671 49.3496 94.8257 49.3196 94.4777 49.27C93.6537 49.1524 92.9958 48.9839 92.5039 48.7642C92.033 48.5289 91.672 48.2439 91.4208 47.9091C91.1905 47.5586 91.053 47.1466 91.0085 46.6732C90.9822 46.2023 91.0017 45.6726 91.067 45.084L92.2618 36.7063L89.8996 36.3694L90.2326 34.0346ZM100.563 29.9868L103.695 30.4334L103.272 33.3999L100.14 32.9533L100.563 29.9868ZM99.7916 35.398L102.923 35.8446L100.898 50.0454L97.7662 49.5988L99.7916 35.398ZM109.666 51.6883C108.53 51.5264 107.54 51.1983 106.695 50.7041C105.871 50.1942 105.195 49.5653 104.666 48.8172C104.156 48.0718 103.801 47.2178 103.602 46.2552C103.421 45.2952 103.409 44.2659 103.566 43.1671C103.72 42.0867 104.018 41.1109 104.46 40.2397C104.92 39.3712 105.499 38.6503 106.198 38.0773C106.914 37.5069 107.738 37.1012 108.67 36.8603C109.622 36.6038 110.665 36.5564 111.801 36.7184C112.936 36.8803 113.916 37.2162 114.74 37.7261C115.585 38.2203 116.263 38.8401 116.773 39.5855C117.302 40.3336 117.656 41.1876 117.837 42.1476C118.036 43.1102 118.058 44.1317 117.904 45.2121C117.748 46.3108 117.439 47.2945 116.979 48.163C116.537 49.0342 115.958 49.755 115.241 50.3255C114.543 50.8985 113.718 51.3133 112.766 51.5699C111.834 51.8108 110.801 51.8503 109.666 51.6883ZM110.018 49.2162C110.714 49.3155 111.339 49.2552 111.894 49.0353C112.448 48.8154 112.924 48.491 113.322 48.0619C113.719 47.6328 114.033 47.1357 114.263 46.5706C114.514 45.9898 114.684 45.3881 114.773 44.7655C114.859 44.1612 114.863 43.5452 114.784 42.9174C114.724 42.2922 114.562 41.7272 114.297 41.2224C114.036 40.6992 113.669 40.2546 113.198 39.8885C112.727 39.5224 112.144 39.2897 111.448 39.1905C110.752 39.0912 110.127 39.1515 109.573 39.3714C109.018 39.5913 108.542 39.9157 108.145 40.3448C107.75 40.7556 107.427 41.2514 107.176 41.8322C106.943 42.4156 106.784 43.0094 106.697 43.6137C106.609 44.2363 106.594 44.8602 106.655 45.4854C106.736 46.0949 106.907 46.6612 107.169 47.1843C107.431 47.7075 107.797 48.1521 108.268 48.5182C108.739 48.8843 109.322 49.117 110.018 49.2162ZM120.42 38.34L123.386 38.7631L123.088 40.8506L123.135 40.9134C123.724 40.1939 124.434 39.6692 125.266 39.3394C126.1 38.9913 126.984 38.8839 127.918 39.0171C129.475 39.2391 130.644 39.8169 131.426 40.7506C132.209 41.6843 132.485 42.9569 132.255 44.5683L130.865 54.3194L127.733 53.8728L129.006 44.9457C129.129 43.8235 129.006 42.9838 128.637 42.4267C128.271 41.8513 127.621 41.497 126.687 41.3638C126.156 41.2881 125.665 41.3209 125.215 41.4622C124.768 41.5853 124.373 41.7999 124.03 42.106C123.69 42.3939 123.405 42.7549 123.175 43.1892C122.945 43.6235 122.793 44.097 122.72 44.6097L121.525 52.9874L118.394 52.5408L120.42 38.34ZM145.412 53.1711C145.357 53.5557 145.364 53.8369 145.432 54.0148C145.518 54.1952 145.708 54.3064 146.001 54.3482C146.092 54.3612 146.202 54.3769 146.331 54.3952C146.459 54.4135 146.608 54.416 146.778 54.4029L146.468 56.5729C146.353 56.5938 146.202 56.6096 146.013 56.6201C145.841 56.6515 145.66 56.6725 145.472 56.683C145.283 56.6935 145.096 56.6948 144.911 56.687C144.725 56.6792 144.568 56.6662 144.44 56.6479C143.799 56.5565 143.286 56.3526 142.901 56.0361C142.517 55.7197 142.306 55.2319 142.269 54.5727C141.561 55.0882 140.729 55.418 139.774 55.5621C138.838 55.7088 137.948 55.7221 137.106 55.6019C136.465 55.5105 135.865 55.3315 135.305 55.0648C134.742 54.8164 134.256 54.4947 133.845 54.0998C133.455 53.6892 133.159 53.208 132.958 52.6561C132.777 52.0885 132.736 51.4567 132.836 50.7609C132.961 49.8819 133.218 49.1899 133.608 48.685C134.016 48.1826 134.499 47.8124 135.056 47.5742C135.631 47.3386 136.249 47.2025 136.908 47.1657C137.588 47.1132 138.263 47.0974 138.932 47.1181C139.516 47.0892 140.066 47.093 140.584 47.1295C141.105 47.1477 141.565 47.1293 141.966 47.0743C142.384 47.0219 142.719 46.9015 142.97 46.7131C143.242 46.5089 143.411 46.178 143.476 45.7202C143.533 45.3173 143.48 44.9734 143.315 44.6883C143.168 44.4058 142.958 44.1796 142.683 44.0096C142.429 43.8239 142.131 43.688 141.788 43.6017C141.448 43.4972 141.122 43.4227 140.811 43.3783C139.932 43.2529 139.183 43.3329 138.563 43.6181C137.943 43.9034 137.541 44.4254 137.359 45.184L134.227 44.7374C134.413 43.8297 134.741 43.1011 135.212 42.5516C135.682 42.0022 136.237 41.5861 136.875 41.3035C137.532 41.0234 138.246 40.8637 139.017 40.8243C139.789 40.7848 140.569 40.8213 141.356 40.9336C142.052 41.0328 142.728 41.204 143.385 41.4472C144.041 41.6903 144.612 42.0145 145.096 42.4199C145.598 42.8278 145.976 43.3208 146.23 43.8989C146.487 44.4586 146.561 45.1139 146.454 45.8647L145.412 53.1711ZM142.845 48.7692C142.324 49.0126 141.711 49.1213 141.005 49.0953C140.301 49.051 139.592 49.0433 138.878 49.0722C138.54 49.0802 138.208 49.1169 137.881 49.1823C137.557 49.2295 137.263 49.3276 136.999 49.4768C136.737 49.6077 136.512 49.8091 136.324 50.0812C136.156 50.3376 136.044 50.6673 135.987 51.0701C135.937 51.4181 135.996 51.7254 136.163 51.9922C136.331 52.259 136.541 52.4852 136.795 52.6709C137.07 52.8408 137.368 52.9768 137.69 53.0788C138.03 53.1833 138.337 53.2552 138.612 53.2944C138.96 53.344 139.342 53.3517 139.758 53.3176C140.174 53.2835 140.571 53.1814 140.951 53.0113C141.348 52.8438 141.69 52.6122 141.975 52.3165C142.262 52.0026 142.441 51.5984 142.512 51.1039L142.845 48.7692ZM150.112 37.0535L153.243 37.5001L150.446 57.1121L147.315 56.6655L150.112 37.0535ZM162.185 38.7754L165.316 39.222L162.519 58.834L159.388 58.3874L162.185 38.7754ZM175.774 52.2044C175.808 51.7048 175.766 51.213 175.648 50.7291C175.549 50.2478 175.367 49.8201 175.102 49.4461C174.859 49.0564 174.532 48.7295 174.121 48.4654C173.731 48.1856 173.271 48.0078 172.74 47.932C172.191 47.8537 171.673 47.8826 171.186 48.0187C170.72 48.1392 170.298 48.3498 169.919 48.6508C169.56 48.936 169.248 49.2931 168.981 49.7222C168.733 50.1539 168.562 50.6339 168.468 51.1624L175.774 52.2044ZM168.174 53.2224C168.095 53.7718 168.093 54.3133 168.166 54.8469C168.258 55.3832 168.432 55.8657 168.688 56.2947C168.945 56.7236 169.294 57.0911 169.736 57.3971C170.181 57.6847 170.733 57.8755 171.392 57.9696C172.308 58.1001 173.068 58.0123 173.672 57.7061C174.297 57.3842 174.803 56.8492 175.19 56.1009L178.157 56.524C177.882 57.2696 177.5 57.9158 177.011 58.4627C176.522 59.0095 175.964 59.453 175.336 59.7932C174.711 60.1151 174.027 60.3259 173.284 60.4255C172.557 60.546 171.809 60.5514 171.04 60.4417C169.923 60.2824 168.96 59.9582 168.152 59.4692C167.343 58.9802 166.684 58.363 166.174 57.6176C165.682 56.8748 165.345 56.0234 165.165 55.0634C165.002 54.106 164.999 53.078 165.156 51.9793C165.3 50.9721 165.591 50.0421 166.03 49.1892C166.491 48.3206 167.062 47.5894 167.745 46.9954C168.448 46.3857 169.25 45.9395 170.15 45.6568C171.049 45.3741 172.03 45.3085 173.092 45.4599C174.209 45.6192 175.174 45.9996 175.985 46.6011C176.817 47.1869 177.471 47.9061 177.947 48.7588C178.423 49.6114 178.718 50.5596 178.831 51.6034C178.964 52.6314 178.891 53.6673 178.612 54.7111L168.174 53.2224ZM179.593 46.7795L181.955 47.1164L182.563 42.8589L185.694 43.3054L185.087 47.563L187.916 47.9665L187.583 50.3012L184.754 49.8977L183.673 57.4789C183.626 57.8085 183.594 58.0936 183.579 58.3343C183.581 58.5776 183.617 58.7881 183.685 58.966C183.771 59.1465 183.908 59.2969 184.097 59.4171C184.288 59.5191 184.557 59.5949 184.905 59.6445C185.125 59.6759 185.345 59.7072 185.564 59.7386C185.787 59.7516 186.012 59.7463 186.239 59.7227L185.895 62.1399C185.541 62.1269 185.197 62.1152 184.863 62.1048C184.528 62.0944 184.186 62.0644 183.838 62.0148C183.014 61.8973 182.356 61.7287 181.865 61.5091C181.394 61.2737 181.033 60.9887 180.781 60.6539C180.551 60.3034 180.414 59.8915 180.369 59.418C180.343 58.9471 180.362 58.4174 180.428 57.8288L181.622 49.4511L179.26 49.1142L179.593 46.7795ZM187.641 47.9273L190.004 48.2642L190.611 44.0067L193.742 44.4533L193.135 48.7108L195.964 49.1143L195.631 51.4491L192.802 51.0456L191.721 58.6267C191.674 58.9563 191.643 59.2415 191.627 59.4821C191.63 59.7254 191.665 59.936 191.733 60.1139C191.819 60.2943 191.957 60.4447 192.145 60.565C192.336 60.667 192.605 60.7428 192.953 60.7924C193.173 60.8237 193.393 60.8551 193.613 60.8864C193.835 60.8995 194.06 60.8942 194.288 60.8706L193.943 63.2878C193.59 63.2748 193.246 63.2631 192.911 63.2527C192.576 63.2423 192.235 63.2123 191.887 63.1627C191.063 63.0451 190.405 62.8766 189.913 62.6569C189.442 62.4216 189.081 62.1366 188.83 61.8018C188.599 61.4513 188.462 61.0393 188.417 60.5659C188.391 60.095 188.411 59.5653 188.476 58.9767L189.671 50.599L187.309 50.2621L187.641 47.9273ZM206.035 56.5203C206.069 56.0206 206.027 55.5289 205.909 55.0449C205.809 54.5636 205.627 54.136 205.363 53.762C205.12 53.3723 204.793 53.0453 204.382 52.7812C203.992 52.5014 203.532 52.3236 203.001 52.2479C202.451 52.1696 201.933 52.1985 201.447 52.3346C200.981 52.455 200.559 52.6657 200.18 52.9666C199.821 53.2518 199.509 53.609 199.242 54.038C198.994 54.4697 198.822 54.9498 198.728 55.4782L206.035 56.5203ZM198.435 57.5383C198.356 58.0877 198.354 58.6292 198.427 59.1628C198.519 59.699 198.693 60.1816 198.949 60.6106C199.206 61.0395 199.555 61.407 199.997 61.7129C200.442 62.0006 200.994 62.1914 201.653 62.2854C202.569 62.416 203.329 62.3282 203.933 62.022C204.558 61.7001 205.064 61.165 205.451 60.4168L208.418 60.8399C208.143 61.5855 207.761 62.2317 207.272 62.7785C206.783 63.3254 206.225 63.7689 205.597 64.1091C204.972 64.431 204.288 64.6417 203.545 64.7413C202.818 64.8618 202.07 64.8672 201.301 64.7575C200.184 64.5982 199.221 64.2741 198.412 63.7851C197.604 63.2961 196.945 62.6789 196.434 61.9335C195.942 61.1907 195.606 60.3393 195.425 59.3793C195.263 58.4219 195.26 57.3939 195.417 56.2951C195.56 55.288 195.852 54.358 196.291 53.5051C196.751 52.6365 197.323 51.9052 198.005 51.3113C198.709 50.7016 199.511 50.2554 200.41 49.9727C201.31 49.6899 202.291 49.6243 203.353 49.7758C204.47 49.9351 205.434 50.3155 206.245 50.917C207.077 51.5027 207.732 52.222 208.208 53.0746C208.684 53.9273 208.979 54.8755 209.091 55.9192C209.225 56.9473 209.152 57.9832 208.872 59.027L198.435 57.5383ZM211.282 51.299L214.221 51.7182L213.83 54.465L213.885 54.4728C214.031 54.1013 214.258 53.7508 214.567 53.4211C214.894 53.094 215.261 52.8101 215.669 52.5694C216.098 52.3129 216.555 52.1258 217.039 52.0079C217.523 51.8901 218.003 51.8651 218.479 51.933C218.845 51.9853 219.091 52.0297 219.217 52.0663C219.36 52.1055 219.504 52.1447 219.648 52.1839L219.217 55.2054C219.003 55.1374 218.778 55.0773 218.542 55.025C218.328 54.9571 218.111 54.9074 217.891 54.8761C217.36 54.8003 216.841 54.8384 216.333 54.9902C215.847 55.1264 215.399 55.3802 214.991 55.7518C214.586 56.105 214.239 56.5694 213.952 57.145C213.664 57.7205 213.464 58.402 213.352 59.1894L212.388 65.9465L209.257 65.4999L211.282 51.299Z" fill="#A3A3A3"/>
<rect x="-8" y="92.0613" width="139.018" height="48.5552" rx="24.2776" transform="rotate(-10.805 -8 92.0613)" fill="white"/>
<path d="M15.4422 116.779C15.5844 117.524 15.833 118.136 16.1879 118.614C16.5428 119.092 16.9803 119.461 17.5005 119.719C18.0171 119.96 18.5817 120.106 19.1944 120.159C19.8217 120.19 20.4806 120.139 21.171 120.007C21.916 119.865 22.5363 119.662 23.032 119.398C23.5242 119.116 23.9078 118.807 24.1829 118.472C24.4579 118.137 24.6352 117.783 24.7146 117.41C24.7906 117.019 24.794 116.642 24.7246 116.279C24.5824 115.534 24.3058 115.021 23.8947 114.742C23.4983 114.441 23.0864 114.256 22.6589 114.187C21.9199 114.064 21.0663 113.983 20.0981 113.941C19.1445 113.879 17.9608 113.794 16.5469 113.687C15.6695 113.628 14.9163 113.48 14.2871 113.243C13.6727 112.983 13.1604 112.667 12.7501 112.293C12.3398 111.919 12.0152 111.501 11.7762 111.038C11.5554 110.572 11.3965 110.085 11.2994 109.576C11.1121 108.595 11.1507 107.712 11.4152 106.927C11.6944 106.12 12.1251 105.417 12.7072 104.816C13.2893 104.215 13.9865 103.724 14.7988 103.343C15.6077 102.944 16.4482 102.661 17.3203 102.495C18.3378 102.301 19.3177 102.255 20.26 102.358C21.217 102.439 22.0819 102.678 22.8548 103.077C23.6458 103.472 24.3157 104.022 24.8645 104.727C25.4099 105.414 25.7796 106.266 25.9738 107.284L22.5671 107.934C22.237 106.697 21.6418 105.898 20.7816 105.535C19.9179 105.153 18.8956 105.075 17.7146 105.301C17.3149 105.377 16.9147 105.501 16.5142 105.671C16.1102 105.824 15.7546 106.033 15.4475 106.298C15.137 106.546 14.8948 106.856 14.7211 107.228C14.5654 107.597 14.5345 108.026 14.6281 108.517C14.7598 109.207 15.0728 109.712 15.567 110.032C16.0759 110.331 16.6946 110.514 17.4232 110.582C17.4993 110.586 17.7966 110.614 18.3149 110.666C18.8479 110.696 19.4389 110.734 20.0878 110.78C20.7368 110.825 21.3676 110.874 21.9802 110.927C22.6075 110.958 23.0553 110.985 23.3236 111.01C23.9976 111.088 24.6038 111.255 25.1421 111.51C25.6804 111.765 26.1473 112.09 26.5429 112.485C26.9531 112.859 27.2795 113.286 27.522 113.767C27.7826 114.245 27.9614 114.738 28.0585 115.247C28.2666 116.337 28.218 117.316 27.9129 118.184C27.6225 119.03 27.1607 119.768 26.5276 120.397C25.8944 121.027 25.1353 121.539 24.2503 121.934C23.3688 122.347 22.4465 122.645 21.4835 122.829C20.3752 123.04 19.3045 123.103 18.2713 123.018C17.2381 122.933 16.3044 122.678 15.4702 122.253C14.6359 121.829 13.9175 121.222 13.315 120.433C12.709 119.626 12.2825 118.625 12.0355 117.429L15.4422 116.779ZM32.5193 100.074L36.1441 99.3826L47.3527 117.412L43.7007 118.109L40.8916 113.306L33.1243 114.788L32.2813 120.288L28.7656 120.959L32.5193 100.074ZM33.5568 112.022L39.4981 110.889L34.9851 103.078L34.9034 103.094L33.5568 112.022ZM40.0467 98.6378L55.7995 95.6314L56.3613 98.5748L50.1746 99.7555L53.3267 116.271L49.9199 116.922L46.7679 100.406L40.6085 101.581L40.0467 98.6378ZM63.4604 94.1693L72.0454 92.5309C73.4262 92.2673 74.5909 92.2522 75.5393 92.4855C76.4877 92.7188 77.2553 93.0901 77.8422 93.5995C78.429 94.109 78.8718 94.7024 79.1706 95.3798C79.4875 96.0537 79.7032 96.6905 79.8176 97.29C79.932 97.8896 79.966 98.5611 79.9196 99.3043C79.8878 100.026 79.6929 100.732 79.335 101.421C78.977 102.111 78.4001 102.739 77.6043 103.305C76.805 103.853 75.7149 104.259 74.334 104.523L69.1558 105.511L70.5809 112.978L67.1742 113.629L63.4604 94.1693ZM68.6252 102.731L73.6127 101.779C73.9942 101.706 74.3745 101.577 74.7534 101.392C75.1323 101.207 75.4628 100.965 75.7447 100.666C76.0414 100.346 76.2515 99.9667 76.3751 99.5289C76.5134 99.0693 76.5236 98.5307 76.4057 97.913C76.2843 97.277 76.0929 96.7675 75.8314 96.3843C75.57 96.001 75.2623 95.7208 74.9083 95.5435C74.5509 95.3481 74.1637 95.2431 73.7466 95.2286C73.3295 95.214 72.8939 95.2501 72.4397 95.3368L67.3977 96.299L68.6252 102.731ZM81.137 96.3603L84.0532 95.8038L84.5733 98.5292L84.6278 98.5188C84.6458 98.1199 84.7474 97.7144 84.9324 97.3025C85.1356 96.8871 85.3911 96.4994 85.699 96.1393C86.0216 95.7576 86.3927 95.4326 86.8123 95.1642C87.2318 94.8958 87.6778 94.7166 88.1502 94.6264C88.5136 94.557 88.7606 94.5193 88.8913 94.5132C89.0401 94.5036 89.1889 94.4941 89.3377 94.4845L89.9099 97.4824C89.6849 97.4877 89.4526 97.5038 89.2129 97.5307C88.988 97.536 88.7665 97.5594 88.5484 97.601C88.0215 97.7016 87.5427 97.906 87.1119 98.2141C86.6958 98.5007 86.355 98.8859 86.0896 99.3696C85.8206 99.8353 85.6434 100.387 85.558 101.025C85.4726 101.662 85.5044 102.372 85.6535 103.153L86.9331 109.858L83.8261 110.451L81.137 96.3603ZM99.9323 98.7898C99.8023 98.3061 99.6031 97.8545 99.3347 97.435C99.0845 97.012 98.7738 96.6664 98.4025 96.3983C98.0459 96.1086 97.6305 95.9054 97.1563 95.7887C96.6968 95.6505 96.2036 95.6316 95.6767 95.7322C95.1316 95.8362 94.651 96.0315 94.2349 96.318C93.8335 96.5829 93.5022 96.9192 93.2411 97.3269C92.9946 97.7129 92.8148 98.152 92.7016 98.6444C92.6066 99.1333 92.6003 99.643 92.6827 100.173L99.9323 98.7898ZM93.0728 102.217C93.1768 102.762 93.3501 103.275 93.5925 103.756C93.8532 104.234 94.1743 104.634 94.556 104.957C94.9377 105.279 95.3873 105.514 95.9048 105.66C96.4188 105.788 97.0028 105.789 97.6569 105.664C98.5654 105.491 99.2558 105.161 99.728 104.676C100.215 104.169 100.52 103.498 100.644 102.665L103.587 102.103C103.569 102.898 103.418 103.633 103.132 104.309C102.847 104.984 102.463 105.585 101.979 106.11C101.492 106.618 100.913 107.039 100.243 107.374C99.5941 107.724 98.8882 107.971 98.1251 108.117C97.0167 108.329 96.0009 108.334 95.0776 108.134C94.1543 107.933 93.3304 107.563 92.606 107.024C91.8998 106.481 91.3055 105.784 90.8233 104.935C90.3592 104.082 90.0231 103.11 89.815 102.02C89.6243 101.021 89.5984 100.046 89.7374 99.0971C89.8911 98.1263 90.1945 97.2492 90.6476 96.466C91.1154 95.6611 91.7291 94.9791 92.4886 94.4198C93.2481 93.8606 94.1547 93.4804 95.2085 93.2793C96.3169 93.0678 97.3522 93.115 98.3144 93.421C99.2914 93.7053 100.143 94.1735 100.87 94.8257C101.598 95.4778 102.184 96.2793 102.629 97.23C103.089 98.1591 103.355 99.1628 103.429 100.241L93.0728 102.217ZM103.285 92.1334L106.228 91.5716L106.592 93.4794L106.647 93.469C106.927 92.5682 107.425 91.8706 108.14 91.3763C108.852 90.8638 109.662 90.5208 110.571 90.3475C111.679 90.1359 112.68 90.152 113.574 90.3957C114.483 90.6177 115.275 91.022 115.952 91.6084C116.625 92.1766 117.185 92.889 117.631 93.7454C118.077 94.6019 118.399 95.5479 118.596 96.5835C118.777 97.5284 118.825 98.4702 118.74 99.409C118.674 100.344 118.452 101.206 118.075 101.993C117.713 102.759 117.19 103.424 116.507 103.987C115.82 104.533 114.959 104.904 113.923 105.102C113.469 105.189 113.006 105.23 112.534 105.226C112.066 105.24 111.606 105.196 111.153 105.094C110.701 104.992 110.267 104.839 109.852 104.636C109.451 104.411 109.096 104.131 108.787 103.794L108.732 103.805L110.074 110.836L106.967 111.429L103.285 92.1334ZM115.479 97.122C115.358 96.4861 115.158 95.8839 114.88 95.3155C114.602 94.7472 114.256 94.2671 113.843 93.8753C113.425 93.4653 112.945 93.1708 112.403 92.9919C111.857 92.7948 111.266 92.757 110.63 92.8783C109.322 93.128 108.418 93.7712 107.919 94.808C107.439 95.8413 107.342 97.112 107.63 98.62C107.765 99.3286 107.973 99.9762 108.255 100.563C108.551 101.128 108.913 101.595 109.342 101.965C109.77 102.336 110.245 102.603 110.766 102.767C111.305 102.928 111.892 102.947 112.528 102.826C113.237 102.691 113.809 102.431 114.244 102.047C114.679 101.662 115.008 101.214 115.23 100.7C115.467 100.166 115.593 99.5953 115.61 98.9896C115.64 98.3623 115.597 97.7398 115.479 97.122Z" fill="#A3A3A3"/>
<rect x="240" y="26.6995" width="157.804" height="48.5552" rx="24.2776" transform="rotate(-6.8054 240 26.6995)" fill="white"/>
<path d="M271.756 44.8296C271.541 44.2777 271.277 43.7784 270.963 43.3315C270.649 42.8847 270.269 42.5109 269.823 42.2101C269.377 41.9094 268.868 41.7 268.295 41.5821C267.738 41.4437 267.102 41.4172 266.386 41.5026C265.339 41.6276 264.455 41.9473 263.734 42.4618C263.031 42.9741 262.484 43.6169 262.092 44.3902C261.697 45.1451 261.435 45.9868 261.303 46.9153C261.19 47.8416 261.19 48.7731 261.301 49.7098C261.413 50.6465 261.633 51.5517 261.961 52.4254C262.307 53.2968 262.762 54.0622 263.325 54.7216C263.885 55.3625 264.568 55.8493 265.371 56.1819C266.193 56.5122 267.127 56.615 268.174 56.49C268.946 56.398 269.61 56.1883 270.167 55.861C270.722 55.5154 271.183 55.0878 271.551 54.5782C271.916 54.0502 272.181 53.4598 272.345 52.8068C272.509 52.1538 272.585 51.4648 272.573 50.7397L275.935 50.3386C276.001 51.5229 275.872 52.628 275.548 53.6541C275.242 54.6779 274.764 55.5918 274.115 56.3958C273.463 57.1814 272.665 57.8263 271.719 58.3303C270.773 58.8344 269.703 59.1577 268.509 59.3001C267.04 59.4755 265.686 59.367 264.447 58.9746C263.224 58.5617 262.153 57.9351 261.233 57.0949C260.313 56.2546 259.558 55.2363 258.968 54.0399C258.397 52.8414 258.026 51.535 257.858 50.1208C257.691 48.7249 257.744 47.3773 258.018 46.0779C258.31 44.7763 258.804 43.609 259.5 42.5758C260.196 41.5427 261.09 40.6816 262.182 39.9925C263.291 39.3012 264.581 38.8679 266.05 38.6925C267.152 38.561 268.209 38.5933 269.219 38.7893C270.228 38.967 271.134 39.3059 271.939 39.806C272.76 40.2855 273.45 40.9111 274.007 41.6828C274.565 42.4545 274.963 43.3665 275.2 44.4186L271.756 44.8296ZM284.993 57.2492C283.855 57.385 282.813 57.323 281.87 57.0631C280.942 56.7826 280.126 56.349 279.423 55.7623C278.738 55.1734 278.175 54.4396 277.735 53.5607C277.313 52.6796 277.037 51.688 276.905 50.586C276.776 49.5024 276.813 48.4828 277.015 47.5272C277.236 46.5694 277.61 45.7237 278.137 44.9902C278.683 44.2544 279.375 43.6503 280.213 43.1777C281.066 42.6846 282.063 42.3701 283.202 42.2342C284.34 42.0983 285.373 42.1706 286.301 42.4511C287.245 42.7111 288.059 43.1355 288.744 43.7243C289.448 44.311 290.01 45.0449 290.432 45.926C290.872 46.8049 291.157 47.7861 291.286 48.8698C291.418 49.9718 291.373 51.0017 291.152 51.9595C290.95 52.9151 290.575 53.7608 290.03 54.4965C289.503 55.2301 288.812 55.8434 287.958 56.3365C287.12 56.809 286.132 57.1133 284.993 57.2492ZM284.698 54.7696C285.395 54.6863 285.984 54.4671 286.463 54.1118C286.942 53.7566 287.319 53.3205 287.592 52.8035C287.866 52.2865 288.041 51.7253 288.118 51.1201C288.211 50.4942 288.22 49.8691 288.146 49.2446C288.073 48.6385 287.918 48.0423 287.681 47.4559C287.462 46.8673 287.159 46.3632 286.774 45.9434C286.386 45.5054 285.918 45.1701 285.368 44.9376C284.819 44.7051 284.195 44.6305 283.497 44.7138C282.8 44.797 282.211 45.0163 281.732 45.3716C281.253 45.7268 280.876 46.1629 280.603 46.6799C280.327 47.1785 280.142 47.7408 280.049 48.3666C279.975 48.9902 279.974 49.6051 280.046 50.2112C280.12 50.8357 280.267 51.4422 280.487 52.0308C280.722 52.5988 281.034 53.1019 281.421 53.5399C281.809 53.978 282.277 54.3133 282.827 54.5458C283.376 54.7783 284 54.8529 284.698 54.7696ZM291.382 36.1445L294.523 35.7696L296.87 55.4406L293.73 55.8154L291.382 36.1445ZM296.926 35.4829L300.066 35.1081L302.414 54.779L299.273 55.1538L296.926 35.4829ZM313.515 44.9597C313.419 44.4682 313.252 44.0038 313.013 43.5665C312.793 43.1271 312.507 42.7607 312.156 42.4673C311.82 42.1534 311.42 41.9218 310.955 41.7723C310.506 41.6024 310.015 41.5491 309.483 41.6127C308.932 41.6785 308.439 41.8398 308.004 42.0966C307.585 42.3329 307.231 42.6452 306.942 43.0336C306.669 43.4015 306.459 43.8271 306.312 44.3104C306.183 44.7915 306.141 45.2994 306.186 45.8342L313.515 44.9597ZM306.433 47.9005C306.499 48.4515 306.636 48.9754 306.844 49.4721C307.071 49.9667 307.363 50.3882 307.721 50.7366C308.08 51.0851 308.512 51.3502 309.018 51.532C309.522 51.6954 310.104 51.7376 310.765 51.6587C311.684 51.5491 312.395 51.2686 312.9 50.8171C313.422 50.3451 313.773 49.6978 313.954 48.8751L316.93 48.52C316.856 49.3112 316.654 50.0339 316.322 50.6882C315.99 51.3426 315.565 51.9149 315.046 52.4053C314.525 52.8773 313.918 53.2571 313.226 53.5446C312.554 53.8483 311.833 54.0462 311.061 54.1382C309.941 54.2719 308.927 54.2066 308.02 53.9423C307.113 53.678 306.317 53.2514 305.632 52.6625C304.965 52.0715 304.421 51.3354 303.999 50.4543C303.596 49.571 303.328 48.5784 303.197 47.4764C303.076 46.4662 303.118 45.4925 303.323 44.5552C303.544 43.5974 303.908 42.7437 304.415 41.994C304.938 41.2237 305.597 40.5861 306.394 40.0812C307.191 39.5763 308.122 39.2603 309.187 39.1332C310.307 38.9995 311.337 39.1188 312.275 39.4911C313.23 39.8429 314.047 40.3694 314.727 41.0707C315.407 41.7719 315.936 42.6123 316.313 43.5918C316.707 44.5507 316.904 45.5705 316.902 46.6511L306.433 47.9005ZM332.021 50.4913C332.277 52.6402 331.862 54.3105 330.775 55.5021C329.708 56.7098 328.045 57.4485 325.786 57.7181C325.07 57.8036 324.335 57.8167 323.583 57.7574C322.849 57.696 322.158 57.5269 321.511 57.2503C320.881 56.9715 320.331 56.5715 319.859 56.0503C319.387 55.5292 319.065 54.8597 318.892 54.042L322.033 53.6672C322.178 54.097 322.376 54.4365 322.63 54.6857C322.883 54.9349 323.165 55.1155 323.477 55.2273C323.809 55.3554 324.161 55.4158 324.532 55.4087C324.906 55.42 325.295 55.4015 325.699 55.3533C326.967 55.2021 327.857 54.7791 328.37 54.0845C328.883 53.3899 329.07 52.4549 328.929 51.2794L328.67 49.1029L328.615 49.1095C328.268 49.9519 327.735 50.6395 327.017 51.1723C326.316 51.703 325.525 52.021 324.644 52.1262C323.505 52.2621 322.508 52.1854 321.654 51.8961C320.816 51.5863 320.09 51.1234 319.477 50.5074C318.879 49.8708 318.407 49.1168 318.061 48.2453C317.715 47.3738 317.48 46.4238 317.358 45.3953C317.244 44.4402 317.282 43.5135 317.473 42.6152C317.664 41.7169 317.996 40.9134 318.471 40.2048C318.943 39.4778 319.551 38.8744 320.294 38.3944C321.056 37.9123 321.943 37.6109 322.953 37.4904C323.853 37.383 324.702 37.4772 325.501 37.773C326.298 38.0505 326.947 38.5692 327.447 39.3291L327.503 39.3225L327.269 37.3665L330.41 36.9917L332.021 50.4913ZM324.844 49.5875C325.541 49.5042 326.113 49.2963 326.557 48.9638C327.018 48.6107 327.368 48.1871 327.607 47.6928C327.863 47.178 328.019 46.6191 328.078 46.016C328.152 45.3924 328.154 44.7775 328.081 44.1714C328.009 43.5653 327.865 42.9863 327.65 42.4345C327.435 41.8826 327.146 41.405 326.781 41.0014C326.434 40.5957 325.998 40.2938 325.471 40.0959C324.963 39.8957 324.369 39.8362 323.689 39.9173C322.992 40.0006 322.421 40.2177 321.979 40.5685C321.536 40.9194 321.197 41.3511 320.96 41.8637C320.721 42.358 320.573 42.9158 320.517 43.5373C320.458 44.1403 320.464 44.7358 320.534 45.3235C320.605 45.9112 320.747 46.481 320.962 47.0329C321.175 47.5663 321.454 48.0359 321.801 48.4417C322.166 48.8452 322.594 49.1573 323.086 49.3781C323.596 49.5966 324.182 49.6664 324.844 49.5875ZM342.951 41.4469C342.855 40.9553 342.687 40.491 342.449 40.0537C342.229 39.6143 341.943 39.2479 341.591 38.9545C341.256 38.6406 340.856 38.409 340.391 38.2595C339.942 38.0895 339.451 38.0363 338.919 38.0999C338.368 38.1656 337.875 38.3269 337.439 38.5838C337.021 38.82 336.667 39.1324 336.378 39.5208C336.105 39.8887 335.895 40.3143 335.748 40.7975C335.619 41.2786 335.577 41.7866 335.622 42.3214L342.951 41.4469ZM335.869 44.3877C335.935 44.9387 336.072 45.4626 336.28 45.9593C336.507 46.4539 336.799 46.8754 337.157 47.2238C337.516 47.5722 337.948 47.8373 338.454 48.0191C338.958 48.1825 339.54 48.2248 340.201 48.1459C341.12 48.0363 341.831 47.7558 342.336 47.3043C342.857 46.8323 343.209 46.185 343.39 45.3623L346.365 45.0072C346.292 45.7983 346.09 46.5211 345.758 47.1754C345.426 47.8297 345.001 48.4021 344.482 48.8925C343.961 49.3645 343.354 49.7443 342.662 50.0318C341.99 50.3355 341.269 50.5334 340.497 50.6254C339.377 50.7591 338.363 50.6938 337.456 50.4295C336.549 50.1652 335.753 49.7386 335.068 49.1497C334.401 48.5586 333.857 47.8226 333.435 46.9415C333.032 46.0582 332.764 45.0656 332.633 43.9635C332.512 42.9534 332.554 41.9797 332.759 41.0424C332.98 40.0846 333.344 39.2309 333.851 38.4812C334.373 37.7109 335.033 37.0733 335.83 36.5684C336.626 36.0635 337.557 35.7475 338.623 35.6204C339.743 35.4867 340.773 35.606 341.711 35.9783C342.666 36.3301 343.483 36.8566 344.163 37.5579C344.843 38.2591 345.372 39.0995 345.749 40.079C346.143 41.0379 346.339 42.0577 346.338 43.1383L335.869 44.3877ZM352.677 28.8296L355.818 28.4548L358.166 48.1257L355.025 48.5005L352.677 28.8296ZM358.221 28.168L361.362 27.7932L361.717 30.7687L358.576 31.1435L358.221 28.168ZM358.868 33.5955L362.009 33.2206L363.709 47.4642L360.568 47.839L358.868 33.5955ZM367.853 42.3312C368.054 43.2386 368.48 43.8398 369.13 44.1348C369.78 44.4298 370.527 44.5269 371.372 44.426C371.666 44.391 371.994 44.3331 372.357 44.2526C372.736 44.1514 373.083 44.0169 373.399 43.8488C373.714 43.6808 373.958 43.4654 374.132 43.2025C374.322 42.9191 374.383 42.5764 374.317 42.1745C374.25 41.7726 374.064 41.4596 373.757 41.2353C373.451 41.0111 373.069 40.8518 372.611 40.7574C372.168 40.6425 371.665 40.5629 371.101 40.5184C370.537 40.474 369.963 40.4215 369.378 40.3608C368.775 40.3024 368.187 40.2142 367.614 40.0963C367.059 39.9762 366.543 39.7863 366.065 39.5267C365.605 39.2649 365.218 38.9106 364.904 38.4637C364.588 37.9985 364.387 37.4077 364.301 36.6914C364.209 35.92 364.316 35.2552 364.622 34.6971C364.944 34.1185 365.372 33.639 365.904 33.2588C366.452 32.8581 367.067 32.5518 367.75 32.3399C368.451 32.1259 369.123 31.9805 369.766 31.9038C370.5 31.8161 371.208 31.8155 371.889 31.9019C372.586 31.9677 373.222 32.1433 373.796 32.4287C374.389 32.7119 374.894 33.1174 375.311 33.6451C375.744 34.1523 376.053 34.7953 376.239 35.5741L372.961 35.9654C372.724 35.2299 372.315 34.7664 371.733 34.575C371.17 34.3815 370.539 34.3263 369.841 34.4096C369.621 34.4359 369.357 34.4861 369.049 34.5601C368.759 34.6319 368.483 34.7393 368.221 34.8824C367.975 35.0049 367.772 35.1782 367.612 35.4021C367.451 35.6077 367.388 35.8666 367.426 36.1788C367.472 36.5646 367.638 36.8614 367.923 37.0695C368.227 37.2754 368.6 37.4358 369.042 37.5507C369.501 37.645 370.012 37.7144 370.576 37.7589C371.14 37.8033 371.724 37.8547 372.327 37.9132C372.912 37.9738 373.491 38.0631 374.064 38.181C374.636 38.2989 375.153 38.4887 375.612 38.7506C376.091 39.0102 376.487 39.3634 376.801 39.8103C377.133 40.255 377.341 40.8263 377.424 41.5242C377.525 42.3691 377.418 43.1084 377.102 43.7422C376.787 44.3759 376.339 44.9138 375.758 45.3556C375.196 45.7953 374.548 46.1427 373.815 46.3979C373.081 46.653 372.347 46.8245 371.613 46.9121C370.713 47.0195 369.865 47.0183 369.069 46.9083C368.292 46.7961 367.595 46.572 366.977 46.2358C366.376 45.8792 365.874 45.4175 365.471 44.8508C365.084 44.2636 364.831 43.5487 364.712 42.706L367.853 42.3312ZM376.081 31.5413L378.45 31.2586L377.941 26.9883L381.081 26.6135L381.591 30.8838L384.429 30.5451L384.708 32.8869L381.87 33.2256L382.778 40.8294C382.817 41.16 382.861 41.4436 382.907 41.6802C382.973 41.9146 383.061 42.109 383.173 42.2633C383.303 42.4155 383.474 42.5254 383.687 42.5931C383.898 42.6425 384.178 42.6463 384.527 42.6047C384.747 42.5784 384.967 42.5521 385.188 42.5258C385.406 42.4811 385.622 42.4181 385.836 42.3367L386.125 44.7611C385.781 44.8395 385.445 44.9168 385.119 44.9929C384.793 45.0691 384.455 45.1281 384.106 45.1697C383.28 45.2683 382.601 45.2749 382.069 45.1893C381.553 45.0832 381.131 44.9007 380.802 44.6419C380.489 44.3626 380.25 43.9999 380.085 43.5539C379.939 43.1056 379.821 42.5888 379.733 42.0032L378.73 33.6004L376.36 33.8831L376.081 31.5413Z" fill="#A3A3A3"/>
</svg>
