<svg width="320" height="295" viewBox="0 0 320 295" fill="none" xmlns="http://www.w3.org/2000/svg">
<g filter="url(#filter0_i_219_562)">
<g clip-path="url(#clip0_219_562)">
<rect width="320" height="320" rx="24" fill="#F8F8F8"/>
<g clip-path="url(#clip1_219_562)">
<path d="M1.35925 294.874C0.533433 281.411 0.120527 274.68 2.42508 269.377C4.45223 264.713 7.90399 260.81 12.2857 258.228C17.2669 255.292 23.9982 254.879 37.4607 254.054L325.916 236.359C339.378 235.533 346.11 235.121 351.412 237.425C356.077 239.452 359.98 242.904 362.562 247.286C365.497 252.267 365.91 258.998 366.736 272.461L380.301 493.61C381.127 507.072 381.54 513.803 379.236 519.106C377.208 523.77 373.757 527.673 369.375 530.255C364.394 533.191 357.663 533.604 344.2 534.43L55.7448 552.124C42.2824 552.95 35.5511 553.363 30.2484 551.058C25.584 549.031 21.6811 545.579 19.099 541.198C16.1636 536.216 15.7507 529.485 14.9249 516.022L1.35925 294.874Z" fill="white"/>
<rect width="327.53" height="19.9611" rx="7.98444" transform="matrix(0.998122 -0.0612555 0.0508597 0.998706 19.5142 274.467)" fill="#F4F4F4"/>
<rect width="193.734" height="19.9611" rx="7.98444" transform="matrix(0.998122 -0.0612555 0.0508597 0.998706 21.3066 302)" fill="#F4F4F4"/>
</g>
<g clip-path="url(#clip2_219_562)">
<path d="M76.2633 252.053C76.8071 238.576 77.079 231.838 79.9095 226.796C82.3992 222.361 86.229 218.829 90.85 216.704C96.1033 214.289 102.842 214.561 116.319 215.105L405.081 226.757C418.558 227.301 425.296 227.573 430.338 230.403C434.773 232.893 438.305 236.723 440.43 241.344C442.845 246.597 442.573 253.335 442.029 266.812L433.096 488.197C432.552 501.673 432.28 508.412 429.45 513.454C426.96 517.888 423.13 521.421 418.509 523.545C413.256 525.96 406.517 525.688 393.04 525.145L104.278 513.493C90.8013 512.949 84.0629 512.677 79.0212 509.846C74.5865 507.357 71.0538 503.527 68.9294 498.906C66.5144 493.653 66.7863 486.914 67.3301 473.437L76.2633 252.053Z" fill="white"/>
<rect width="327.53" height="19.9611" rx="7.98444" transform="matrix(0.999188 0.0402899 -0.0506913 0.998714 96.394 233.593)" fill="#F4F4F4"/>
<rect width="193.734" height="19.9611" rx="7.98444" transform="matrix(0.999188 0.0402899 -0.0506913 0.998714 95.3853 261.166)" fill="#F4F4F4"/>
<rect width="327.53" height="19.9611" rx="7.98444" transform="matrix(0.999188 0.0402899 -0.0506913 0.998714 94.1689 288.735)" fill="#F4F4F4"/>
</g>
<g clip-path="url(#clip3_219_562)">
<path d="M164.809 230.982C167.08 217.687 168.216 211.04 171.671 206.404C174.711 202.326 178.963 199.315 183.818 197.802C189.339 196.083 195.986 197.218 209.281 199.49L494.15 248.166C507.445 250.438 514.093 251.574 518.728 255.029C522.806 258.068 525.817 262.321 527.33 267.176C529.05 272.696 527.914 279.344 525.642 292.639L488.324 511.038C486.052 524.333 484.916 530.981 481.461 535.617C478.422 539.695 474.17 542.706 469.314 544.219C463.794 545.938 457.146 544.802 443.851 542.531L158.982 493.854C145.687 491.583 139.04 490.447 134.404 486.992C130.326 483.952 127.315 479.7 125.802 474.845C124.083 469.324 125.218 462.677 127.49 449.382L164.809 230.982Z" fill="white"/>
<rect width="327.53" height="19.9611" rx="7.98444" transform="matrix(0.985718 0.168403 -0.178657 0.983911 187.146 215.263)" fill="#F4F4F4"/>
<rect width="193.734" height="19.9611" rx="7.98444" transform="matrix(0.985718 0.168403 -0.178657 0.983911 182.6 242.478)" fill="#F4F4F4"/>
<rect width="327.53" height="19.9611" rx="7.98444" transform="matrix(0.985718 0.168403 -0.178657 0.983911 177.85 269.662)" fill="#F4F4F4"/>
</g>
<rect x="-13" y="215" width="550" height="138" fill="url(#paint0_linear_219_562)"/>
<path d="M89.0294 88.125C88.9234 87.1326 88.4764 86.3598 87.6885 85.8068C86.9082 85.2538 85.8931 84.9773 84.6431 84.9773C83.7643 84.9773 83.0105 85.1098 82.3817 85.375C81.7529 85.6402 81.2719 86 80.9385 86.4545C80.6052 86.9091 80.4347 87.428 80.4272 88.0114C80.4272 88.4962 80.537 88.9167 80.7567 89.2727C80.984 89.6288 81.2908 89.9318 81.6772 90.1818C82.0635 90.4242 82.4916 90.6288 82.9613 90.7955C83.4309 90.9621 83.9044 91.1023 84.3817 91.2159L86.5635 91.7614C87.4423 91.9659 88.287 92.2424 89.0976 92.5909C89.9158 92.9394 90.6469 93.3788 91.2908 93.9091C91.9423 94.4394 92.4575 95.0795 92.8363 95.8295C93.215 96.5795 93.4044 97.4583 93.4044 98.4659C93.4044 99.8295 93.0559 101.03 92.359 102.068C91.662 103.098 90.6544 103.905 89.3363 104.489C88.0256 105.064 86.4385 105.352 84.5749 105.352C82.7643 105.352 81.1923 105.072 79.859 104.511C78.5332 103.951 77.4953 103.133 76.7453 102.057C76.0029 100.981 75.6014 99.6705 75.5408 98.125H79.6885C79.7491 98.9356 79.9991 99.6098 80.4385 100.148C80.8779 100.686 81.4499 101.087 82.1544 101.352C82.8666 101.617 83.662 101.75 84.5408 101.75C85.4575 101.75 86.2605 101.614 86.9499 101.341C87.6469 101.061 88.1923 100.674 88.5863 100.182C88.9802 99.6818 89.1809 99.0985 89.1885 98.4318C89.1809 97.8258 89.0029 97.3258 88.6544 96.9318C88.3059 96.5303 87.8173 96.197 87.1885 95.9318C86.5673 95.6591 85.84 95.4167 85.0067 95.2045L82.359 94.5227C80.4423 94.0303 78.9272 93.2841 77.8135 92.2841C76.7075 91.2765 76.1544 89.9394 76.1544 88.2727C76.1544 86.9015 76.5256 85.7008 77.2681 84.6705C78.0181 83.6402 79.037 82.8409 80.3249 82.2727C81.6128 81.697 83.0711 81.4091 84.6999 81.4091C86.3514 81.4091 87.7984 81.697 89.0408 82.2727C90.2908 82.8409 91.2719 83.6326 91.984 84.6477C92.6961 85.6553 93.0635 86.8144 93.0863 88.125H89.0294ZM104.417 87.5455V90.7273H94.383V87.5455H104.417ZM96.8602 83.3636H100.974V99.75C100.974 100.303 101.057 100.727 101.224 101.023C101.398 101.311 101.625 101.508 101.906 101.614C102.186 101.72 102.497 101.773 102.838 101.773C103.095 101.773 103.33 101.754 103.542 101.716C103.762 101.678 103.928 101.644 104.042 101.614L104.735 104.83C104.516 104.905 104.201 104.989 103.792 105.08C103.391 105.17 102.898 105.223 102.315 105.239C101.284 105.269 100.356 105.114 99.5307 104.773C98.7049 104.424 98.0496 103.886 97.5648 103.159C97.0875 102.432 96.8527 101.523 96.8602 100.432V83.3636ZM111.6 105.352C110.494 105.352 109.498 105.155 108.611 104.761C107.733 104.36 107.036 103.769 106.521 102.989C106.013 102.208 105.759 101.246 105.759 100.102C105.759 99.1174 105.941 98.303 106.305 97.6591C106.668 97.0152 107.165 96.5 107.793 96.1136C108.422 95.7273 109.13 95.4356 109.918 95.2386C110.714 95.0341 111.536 94.8864 112.384 94.7955C113.407 94.6894 114.236 94.5947 114.873 94.5114C115.509 94.4205 115.971 94.2841 116.259 94.1023C116.555 93.9129 116.702 93.6212 116.702 93.2273V93.1591C116.702 92.303 116.449 91.6402 115.941 91.1705C115.433 90.7008 114.702 90.4659 113.748 90.4659C112.74 90.4659 111.941 90.6856 111.35 91.125C110.767 91.5644 110.373 92.0833 110.168 92.6818L106.327 92.1364C106.63 91.0758 107.13 90.1894 107.827 89.4773C108.524 88.7576 109.377 88.2197 110.384 87.8636C111.392 87.5 112.505 87.3182 113.725 87.3182C114.566 87.3182 115.403 87.4167 116.236 87.6136C117.07 87.8106 117.831 88.1364 118.521 88.5909C119.21 89.0379 119.763 89.6477 120.18 90.4205C120.604 91.1932 120.816 92.1591 120.816 93.3182V105H116.861V102.602H116.725C116.475 103.087 116.123 103.542 115.668 103.966C115.221 104.383 114.657 104.72 113.975 104.977C113.301 105.227 112.509 105.352 111.6 105.352ZM112.668 102.33C113.494 102.33 114.21 102.167 114.816 101.841C115.422 101.508 115.888 101.068 116.214 100.523C116.547 99.9773 116.714 99.3826 116.714 98.7386V96.6818C116.585 96.7879 116.365 96.8864 116.055 96.9773C115.752 97.0682 115.411 97.1477 115.032 97.2159C114.653 97.2841 114.278 97.3447 113.907 97.3977C113.536 97.4508 113.214 97.4962 112.941 97.5341C112.327 97.6174 111.778 97.7538 111.293 97.9432C110.808 98.1326 110.426 98.3977 110.146 98.7386C109.865 99.072 109.725 99.5038 109.725 100.034C109.725 100.792 110.002 101.364 110.555 101.75C111.108 102.136 111.812 102.33 112.668 102.33ZM123.672 105V87.5455H127.661V90.4545H127.843C128.161 89.447 128.706 88.6705 129.479 88.125C130.26 87.572 131.15 87.2955 132.15 87.2955C132.377 87.2955 132.631 87.3068 132.911 87.3295C133.199 87.3447 133.438 87.3712 133.627 87.4091V91.1932C133.453 91.1326 133.176 91.0795 132.797 91.0341C132.426 90.9811 132.066 90.9545 131.718 90.9545C130.968 90.9545 130.294 91.1174 129.695 91.4432C129.104 91.7614 128.638 92.2045 128.297 92.7727C127.956 93.3409 127.786 93.9962 127.786 94.7386V105H123.672ZM144.733 87.5455V90.7273H134.699V87.5455H144.733ZM137.176 83.3636H141.29V99.75C141.29 100.303 141.373 100.727 141.54 101.023C141.714 101.311 141.942 101.508 142.222 101.614C142.502 101.72 142.813 101.773 143.154 101.773C143.411 101.773 143.646 101.754 143.858 101.716C144.078 101.678 144.245 101.644 144.358 101.614L145.051 104.83C144.832 104.905 144.517 104.989 144.108 105.08C143.707 105.17 143.214 105.223 142.631 105.239C141.601 105.269 140.673 105.114 139.847 104.773C139.021 104.424 138.366 103.886 137.881 103.159C137.404 102.432 137.169 101.523 137.176 100.432V83.3636ZM158.631 105L152.062 81.7273H156.597L160.79 98.8295H161.006L165.483 81.7273H169.608L174.097 98.8409H174.301L178.494 81.7273H183.028L176.46 105H172.301L167.642 88.6705H167.46L162.79 105H158.631ZM183.396 105V87.5455H187.385V90.4545H187.567C187.885 89.447 188.43 88.6705 189.203 88.125C189.983 87.572 190.873 87.2955 191.873 87.2955C192.101 87.2955 192.354 87.3068 192.635 87.3295C192.923 87.3447 193.161 87.3712 193.351 87.4091V91.1932C193.176 91.1326 192.9 91.0795 192.521 91.0341C192.15 90.9811 191.79 90.9545 191.442 90.9545C190.692 90.9545 190.017 91.1174 189.419 91.4432C188.828 91.7614 188.362 92.2045 188.021 92.7727C187.68 93.3409 187.51 93.9962 187.51 94.7386V105H183.396ZM194.804 105V87.5455H198.917V105H194.804ZM196.872 85.0682C196.22 85.0682 195.66 84.8523 195.19 84.4205C194.72 83.9811 194.485 83.4545 194.485 82.8409C194.485 82.2197 194.72 81.6932 195.19 81.2614C195.66 80.822 196.22 80.6023 196.872 80.6023C197.531 80.6023 198.092 80.822 198.554 81.2614C199.023 81.6932 199.258 82.2197 199.258 82.8409C199.258 83.4545 199.023 83.9811 198.554 84.4205C198.092 84.8523 197.531 85.0682 196.872 85.0682ZM210.583 87.5455V90.7273H200.549V87.5455H210.583ZM203.026 83.3636H207.14V99.75C207.14 100.303 207.223 100.727 207.39 101.023C207.564 101.311 207.792 101.508 208.072 101.614C208.352 101.72 208.663 101.773 209.004 101.773C209.261 101.773 209.496 101.754 209.708 101.716C209.928 101.678 210.095 101.644 210.208 101.614L210.901 104.83C210.682 104.905 210.367 104.989 209.958 105.08C209.557 105.17 209.064 105.223 208.481 105.239C207.451 105.269 206.523 105.114 205.697 104.773C204.871 104.424 204.216 103.886 203.731 103.159C203.254 102.432 203.019 101.523 203.026 100.432V83.3636ZM212.744 105V87.5455H216.857V105H212.744ZM214.812 85.0682C214.16 85.0682 213.6 84.8523 213.13 84.4205C212.66 83.9811 212.425 83.4545 212.425 82.8409C212.425 82.2197 212.66 81.6932 213.13 81.2614C213.6 80.822 214.16 80.6023 214.812 80.6023C215.471 80.6023 216.032 80.822 216.494 81.2614C216.963 81.6932 217.198 82.2197 217.198 82.8409C217.198 83.4545 216.963 83.9811 216.494 84.4205C216.032 84.8523 215.471 85.0682 214.812 85.0682ZM223.921 94.7727V105H219.807V87.5455H223.739V90.5114H223.944C224.345 89.5341 224.985 88.7576 225.864 88.1818C226.751 87.6061 227.845 87.3182 229.148 87.3182C230.353 87.3182 231.402 87.5758 232.296 88.0909C233.198 88.6061 233.895 89.3523 234.387 90.3295C234.887 91.3068 235.133 92.4924 235.126 93.8864V105H231.012V94.5227C231.012 93.3561 230.709 92.4432 230.103 91.7841C229.504 91.125 228.675 90.7955 227.614 90.7955C226.895 90.7955 226.254 90.9545 225.694 91.2727C225.141 91.5833 224.705 92.0341 224.387 92.625C224.076 93.2159 223.921 93.9318 223.921 94.7727ZM245.618 111.909C244.141 111.909 242.872 111.708 241.811 111.307C240.751 110.913 239.899 110.383 239.255 109.716C238.611 109.049 238.164 108.311 237.914 107.5L241.618 106.602C241.785 106.943 242.027 107.28 242.346 107.614C242.664 107.955 243.092 108.235 243.63 108.455C244.175 108.682 244.861 108.795 245.686 108.795C246.853 108.795 247.819 108.511 248.584 107.943C249.349 107.383 249.732 106.458 249.732 105.17V101.864H249.527C249.315 102.288 249.005 102.723 248.596 103.17C248.194 103.617 247.66 103.992 246.993 104.295C246.334 104.598 245.505 104.75 244.505 104.75C243.164 104.75 241.948 104.436 240.857 103.807C239.774 103.17 238.91 102.223 238.266 100.966C237.63 99.7008 237.311 98.1174 237.311 96.2159C237.311 94.2992 237.63 92.6818 238.266 91.3636C238.91 90.0379 239.777 89.0341 240.868 88.3523C241.959 87.6629 243.175 87.3182 244.516 87.3182C245.539 87.3182 246.38 87.4924 247.039 87.8409C247.705 88.1818 248.236 88.5947 248.63 89.0795C249.024 89.5568 249.323 90.0076 249.527 90.4318H249.755V87.5455H253.811V105.284C253.811 106.777 253.455 108.011 252.743 108.989C252.031 109.966 251.058 110.697 249.823 111.182C248.588 111.667 247.186 111.909 245.618 111.909ZM245.652 101.523C246.524 101.523 247.266 101.311 247.88 100.886C248.493 100.462 248.959 99.8523 249.277 99.0568C249.596 98.2614 249.755 97.3068 249.755 96.1932C249.755 95.0947 249.596 94.1326 249.277 93.3068C248.967 92.4811 248.505 91.8409 247.891 91.3864C247.285 90.9242 246.539 90.6932 245.652 90.6932C244.736 90.6932 243.971 90.9318 243.357 91.4091C242.743 91.8864 242.281 92.5417 241.971 93.375C241.66 94.2008 241.505 95.1402 241.505 96.1932C241.505 97.2614 241.66 98.197 241.971 99C242.289 99.7955 242.755 100.417 243.368 100.864C243.99 101.303 244.751 101.523 245.652 101.523Z" fill="#AAAAAA"/>
<rect x="95.5" y="121" width="139" height="32" rx="16" fill="white"/>
<path d="M114.711 135.148H112.938C112.87 134.769 112.743 134.436 112.558 134.148C112.372 133.86 112.145 133.616 111.876 133.415C111.607 133.214 111.306 133.062 110.972 132.96C110.643 132.858 110.292 132.807 109.921 132.807C109.251 132.807 108.65 132.975 108.12 133.312C107.594 133.65 107.177 134.144 106.87 134.795C106.567 135.447 106.416 136.242 106.416 137.182C106.416 138.129 106.567 138.928 106.87 139.58C107.177 140.231 107.595 140.723 108.126 141.057C108.656 141.39 109.253 141.557 109.916 141.557C110.283 141.557 110.631 141.508 110.961 141.409C111.294 141.307 111.595 141.157 111.864 140.96C112.133 140.763 112.361 140.523 112.546 140.239C112.736 139.951 112.866 139.621 112.938 139.25L114.711 139.256C114.616 139.828 114.433 140.354 114.16 140.835C113.891 141.312 113.544 141.725 113.12 142.074C112.7 142.419 112.219 142.686 111.677 142.875C111.135 143.064 110.544 143.159 109.904 143.159C108.897 143.159 107.999 142.92 107.211 142.443C106.423 141.962 105.802 141.275 105.347 140.381C104.897 139.487 104.671 138.42 104.671 137.182C104.671 135.939 104.898 134.873 105.353 133.983C105.808 133.089 106.429 132.403 107.217 131.926C108.005 131.445 108.9 131.205 109.904 131.205C110.522 131.205 111.097 131.294 111.631 131.472C112.169 131.646 112.652 131.903 113.08 132.244C113.508 132.581 113.863 132.994 114.143 133.483C114.423 133.968 114.613 134.523 114.711 135.148ZM116.355 143V134.273H117.998V135.659H118.088C118.248 135.189 118.528 134.82 118.929 134.551C119.335 134.278 119.793 134.142 120.304 134.142C120.41 134.142 120.535 134.146 120.679 134.153C120.827 134.161 120.943 134.17 121.026 134.182V135.807C120.958 135.788 120.837 135.767 120.662 135.744C120.488 135.718 120.314 135.705 120.14 135.705C119.738 135.705 119.38 135.79 119.066 135.96C118.755 136.127 118.509 136.36 118.327 136.659C118.145 136.955 118.054 137.292 118.054 137.67V143H116.355ZM125.625 143.176C124.765 143.176 124.025 142.992 123.403 142.625C122.786 142.254 122.309 141.733 121.972 141.062C121.638 140.388 121.472 139.598 121.472 138.693C121.472 137.799 121.638 137.011 121.972 136.33C122.309 135.648 122.778 135.116 123.381 134.733C123.987 134.35 124.695 134.159 125.506 134.159C125.998 134.159 126.475 134.241 126.937 134.403C127.4 134.566 127.814 134.822 128.182 135.17C128.549 135.519 128.839 135.972 129.051 136.528C129.263 137.081 129.369 137.754 129.369 138.545V139.148H122.432V137.875H127.705C127.705 137.428 127.614 137.032 127.432 136.688C127.25 136.339 126.994 136.064 126.665 135.864C126.339 135.663 125.956 135.562 125.517 135.562C125.04 135.562 124.623 135.68 124.267 135.915C123.915 136.146 123.642 136.449 123.449 136.824C123.259 137.195 123.165 137.598 123.165 138.034V139.028C123.165 139.612 123.267 140.108 123.472 140.517C123.68 140.926 123.97 141.239 124.341 141.455C124.712 141.667 125.146 141.773 125.642 141.773C125.964 141.773 126.258 141.727 126.523 141.636C126.788 141.542 127.017 141.402 127.21 141.216C127.403 141.03 127.551 140.801 127.653 140.528L129.261 140.818C129.133 141.292 128.901 141.706 128.568 142.062C128.239 142.415 127.824 142.689 127.324 142.886C126.828 143.08 126.261 143.176 125.625 143.176ZM133.474 143.193C132.921 143.193 132.421 143.091 131.974 142.886C131.527 142.678 131.173 142.377 130.912 141.983C130.654 141.589 130.525 141.106 130.525 140.534C130.525 140.042 130.62 139.636 130.809 139.318C130.999 139 131.254 138.748 131.576 138.562C131.898 138.377 132.258 138.237 132.656 138.142C133.054 138.047 133.459 137.975 133.872 137.926C134.394 137.866 134.819 137.816 135.144 137.778C135.47 137.737 135.707 137.67 135.855 137.58C136.002 137.489 136.076 137.341 136.076 137.136V137.097C136.076 136.6 135.936 136.216 135.656 135.943C135.379 135.67 134.966 135.534 134.417 135.534C133.845 135.534 133.394 135.661 133.065 135.915C132.739 136.165 132.514 136.443 132.389 136.75L130.792 136.386C130.982 135.856 131.258 135.428 131.622 135.102C131.989 134.773 132.412 134.534 132.889 134.386C133.366 134.235 133.868 134.159 134.394 134.159C134.743 134.159 135.112 134.201 135.502 134.284C135.896 134.364 136.264 134.511 136.605 134.727C136.949 134.943 137.232 135.252 137.451 135.653C137.671 136.051 137.781 136.568 137.781 137.205V143H136.122V141.807H136.054C135.944 142.027 135.779 142.242 135.559 142.455C135.34 142.667 135.057 142.843 134.713 142.983C134.368 143.123 133.955 143.193 133.474 143.193ZM133.843 141.83C134.313 141.83 134.715 141.737 135.048 141.551C135.385 141.366 135.641 141.123 135.815 140.824C135.993 140.521 136.082 140.197 136.082 139.852V138.727C136.021 138.788 135.904 138.845 135.73 138.898C135.559 138.947 135.364 138.991 135.144 139.028C134.925 139.062 134.711 139.095 134.502 139.125C134.294 139.152 134.12 139.174 133.98 139.193C133.65 139.235 133.349 139.305 133.076 139.403C132.807 139.502 132.591 139.644 132.429 139.83C132.269 140.011 132.19 140.254 132.19 140.557C132.19 140.977 132.345 141.295 132.656 141.511C132.966 141.723 133.362 141.83 133.843 141.83ZM143.797 134.273V135.636H139.03V134.273H143.797ZM140.309 132.182H142.008V140.438C142.008 140.767 142.057 141.015 142.155 141.182C142.254 141.345 142.381 141.456 142.536 141.517C142.695 141.574 142.868 141.602 143.053 141.602C143.19 141.602 143.309 141.593 143.411 141.574C143.513 141.555 143.593 141.54 143.65 141.528L143.957 142.932C143.858 142.97 143.718 143.008 143.536 143.045C143.354 143.087 143.127 143.11 142.854 143.114C142.407 143.121 141.991 143.042 141.604 142.875C141.218 142.708 140.905 142.451 140.667 142.102C140.428 141.754 140.309 141.316 140.309 140.79V132.182ZM149.024 143.176C148.164 143.176 147.424 142.992 146.803 142.625C146.185 142.254 145.708 141.733 145.371 141.062C145.038 140.388 144.871 139.598 144.871 138.693C144.871 137.799 145.038 137.011 145.371 136.33C145.708 135.648 146.178 135.116 146.78 134.733C147.386 134.35 148.094 134.159 148.905 134.159C149.397 134.159 149.875 134.241 150.337 134.403C150.799 134.566 151.214 134.822 151.581 135.17C151.949 135.519 152.238 135.972 152.45 136.528C152.663 137.081 152.769 137.754 152.769 138.545V139.148H145.831V137.875H151.104C151.104 137.428 151.013 137.032 150.831 136.688C150.649 136.339 150.394 136.064 150.064 135.864C149.738 135.663 149.356 135.562 148.916 135.562C148.439 135.562 148.022 135.68 147.666 135.915C147.314 136.146 147.041 136.449 146.848 136.824C146.659 137.195 146.564 137.598 146.564 138.034V139.028C146.564 139.612 146.666 140.108 146.871 140.517C147.079 140.926 147.369 141.239 147.74 141.455C148.111 141.667 148.545 141.773 149.041 141.773C149.363 141.773 149.657 141.727 149.922 141.636C150.187 141.542 150.416 141.402 150.61 141.216C150.803 141.03 150.95 140.801 151.053 140.528L152.661 140.818C152.532 141.292 152.301 141.706 151.968 142.062C151.638 142.415 151.223 142.689 150.723 142.886C150.227 143.08 149.661 143.176 149.024 143.176ZM162.009 143.176C161.149 143.176 160.409 142.992 159.788 142.625C159.17 142.254 158.693 141.733 158.356 141.062C158.023 140.388 157.856 139.598 157.856 138.693C157.856 137.799 158.023 137.011 158.356 136.33C158.693 135.648 159.163 135.116 159.765 134.733C160.371 134.35 161.079 134.159 161.89 134.159C162.382 134.159 162.86 134.241 163.322 134.403C163.784 134.566 164.199 134.822 164.566 135.17C164.934 135.519 165.223 135.972 165.435 136.528C165.648 137.081 165.754 137.754 165.754 138.545V139.148H158.816V137.875H164.089C164.089 137.428 163.998 137.032 163.816 136.688C163.634 136.339 163.379 136.064 163.049 135.864C162.723 135.663 162.341 135.562 161.901 135.562C161.424 135.562 161.007 135.68 160.651 135.915C160.299 136.146 160.026 136.449 159.833 136.824C159.644 137.195 159.549 137.598 159.549 138.034V139.028C159.549 139.612 159.651 140.108 159.856 140.517C160.064 140.926 160.354 141.239 160.725 141.455C161.096 141.667 161.53 141.773 162.026 141.773C162.348 141.773 162.642 141.727 162.907 141.636C163.172 141.542 163.401 141.402 163.595 141.216C163.788 141.03 163.935 140.801 164.038 140.528L165.646 140.818C165.517 141.292 165.286 141.706 164.953 142.062C164.623 142.415 164.208 142.689 163.708 142.886C163.212 143.08 162.646 143.176 162.009 143.176ZM173.858 136.403L172.319 136.676C172.254 136.479 172.152 136.292 172.012 136.114C171.875 135.936 171.69 135.79 171.455 135.676C171.22 135.562 170.927 135.506 170.574 135.506C170.093 135.506 169.692 135.614 169.37 135.83C169.048 136.042 168.887 136.316 168.887 136.653C168.887 136.945 168.995 137.18 169.211 137.358C169.427 137.536 169.775 137.682 170.256 137.795L171.642 138.114C172.445 138.299 173.044 138.585 173.438 138.972C173.832 139.358 174.029 139.86 174.029 140.477C174.029 141 173.877 141.466 173.574 141.875C173.275 142.28 172.856 142.598 172.319 142.83C171.785 143.061 171.165 143.176 170.461 143.176C169.483 143.176 168.686 142.968 168.069 142.551C167.451 142.131 167.072 141.534 166.932 140.761L168.574 140.511C168.677 140.939 168.887 141.263 169.205 141.483C169.523 141.699 169.938 141.807 170.449 141.807C171.006 141.807 171.451 141.691 171.785 141.46C172.118 141.225 172.285 140.939 172.285 140.602C172.285 140.33 172.182 140.1 171.978 139.915C171.777 139.729 171.468 139.589 171.052 139.494L169.574 139.17C168.76 138.985 168.158 138.689 167.767 138.284C167.381 137.879 167.188 137.366 167.188 136.744C167.188 136.229 167.332 135.778 167.62 135.392C167.908 135.006 168.305 134.705 168.813 134.489C169.32 134.269 169.902 134.159 170.557 134.159C171.5 134.159 172.243 134.364 172.785 134.773C173.326 135.178 173.684 135.722 173.858 136.403ZM182.117 136.403L180.577 136.676C180.512 136.479 180.41 136.292 180.27 136.114C180.134 135.936 179.948 135.79 179.713 135.676C179.478 135.562 179.185 135.506 178.832 135.506C178.351 135.506 177.95 135.614 177.628 135.83C177.306 136.042 177.145 136.316 177.145 136.653C177.145 136.945 177.253 137.18 177.469 137.358C177.685 137.536 178.033 137.682 178.514 137.795L179.901 138.114C180.704 138.299 181.302 138.585 181.696 138.972C182.09 139.358 182.287 139.86 182.287 140.477C182.287 141 182.135 141.466 181.832 141.875C181.533 142.28 181.115 142.598 180.577 142.83C180.043 143.061 179.423 143.176 178.719 143.176C177.742 143.176 176.944 142.968 176.327 142.551C175.709 142.131 175.331 141.534 175.19 140.761L176.832 140.511C176.935 140.939 177.145 141.263 177.463 141.483C177.781 141.699 178.196 141.807 178.707 141.807C179.264 141.807 179.709 141.691 180.043 141.46C180.376 141.225 180.543 140.939 180.543 140.602C180.543 140.33 180.44 140.1 180.236 139.915C180.035 139.729 179.726 139.589 179.31 139.494L177.832 139.17C177.018 138.985 176.416 138.689 176.026 138.284C175.639 137.879 175.446 137.366 175.446 136.744C175.446 136.229 175.59 135.778 175.878 135.392C176.166 135.006 176.563 134.705 177.071 134.489C177.579 134.269 178.16 134.159 178.815 134.159C179.759 134.159 180.501 134.364 181.043 134.773C181.584 135.178 181.942 135.722 182.117 136.403ZM186.375 143.193C185.822 143.193 185.322 143.091 184.875 142.886C184.428 142.678 184.073 142.377 183.812 141.983C183.555 141.589 183.426 141.106 183.426 140.534C183.426 140.042 183.52 139.636 183.71 139.318C183.899 139 184.155 138.748 184.477 138.562C184.799 138.377 185.159 138.237 185.556 138.142C185.954 138.047 186.359 137.975 186.772 137.926C187.295 137.866 187.719 137.816 188.045 137.778C188.371 137.737 188.608 137.67 188.755 137.58C188.903 137.489 188.977 137.341 188.977 137.136V137.097C188.977 136.6 188.837 136.216 188.556 135.943C188.28 135.67 187.867 135.534 187.318 135.534C186.746 135.534 186.295 135.661 185.966 135.915C185.64 136.165 185.414 136.443 185.289 136.75L183.693 136.386C183.882 135.856 184.159 135.428 184.522 135.102C184.89 134.773 185.312 134.534 185.789 134.386C186.267 134.235 186.769 134.159 187.295 134.159C187.644 134.159 188.013 134.201 188.403 134.284C188.797 134.364 189.164 134.511 189.505 134.727C189.85 134.943 190.132 135.252 190.352 135.653C190.572 136.051 190.681 136.568 190.681 137.205V143H189.022V141.807H188.954C188.844 142.027 188.68 142.242 188.46 142.455C188.24 142.667 187.958 142.843 187.613 142.983C187.269 143.123 186.856 143.193 186.375 143.193ZM186.744 141.83C187.214 141.83 187.615 141.737 187.948 141.551C188.286 141.366 188.541 141.123 188.716 140.824C188.894 140.521 188.983 140.197 188.983 139.852V138.727C188.922 138.788 188.805 138.845 188.63 138.898C188.46 138.947 188.265 138.991 188.045 139.028C187.825 139.062 187.611 139.095 187.403 139.125C187.195 139.152 187.02 139.174 186.88 139.193C186.551 139.235 186.25 139.305 185.977 139.403C185.708 139.502 185.492 139.644 185.329 139.83C185.17 140.011 185.091 140.254 185.091 140.557C185.091 140.977 185.246 141.295 185.556 141.511C185.867 141.723 186.263 141.83 186.744 141.83ZM193.386 146.273C193.132 146.273 192.901 146.252 192.692 146.21C192.484 146.172 192.329 146.131 192.227 146.085L192.636 144.693C192.946 144.777 193.223 144.813 193.465 144.801C193.708 144.79 193.922 144.699 194.107 144.528C194.297 144.358 194.463 144.08 194.607 143.693L194.817 143.114L191.624 134.273H193.442L195.653 141.045H195.744L197.954 134.273H199.778L196.181 144.165C196.014 144.619 195.802 145.004 195.545 145.318C195.287 145.636 194.98 145.875 194.624 146.034C194.268 146.193 193.855 146.273 193.386 146.273Z" fill="#444444"/>
<path d="M209.833 137H219.167" stroke="#757575" stroke-width="1.33333" stroke-linecap="round" stroke-linejoin="round"/>
<path d="M214.5 132.333L219.5 137L214.5 141.667" stroke="#757575" stroke-width="1.33333" stroke-linecap="round" stroke-linejoin="round"/>
<g filter="url(#filter1_b_219_562)">
<path d="M-1 37.92C-1 24.9314 -1 18.4371 1.44734 13.4415C3.79057 8.65833 7.65833 4.79057 12.4415 2.44734C17.4371 0 23.9314 0 36.92 0H282.08C295.069 0 301.563 0 306.559 2.44734C311.342 4.79057 315.209 8.65833 317.553 13.4415C320 18.4371 320 24.9314 320 37.92V279.08C320 292.069 320 298.563 317.553 303.559C315.209 308.342 311.342 312.209 306.559 314.553C301.563 317 295.069 317 282.08 317H36.92C23.9314 317 17.4371 317 12.4415 314.553C7.65833 312.209 3.79057 308.342 1.44734 303.559C-1 298.563 -1 292.069 -1 279.08V37.92Z" fill="#EAEAEA" fill-opacity="0.2"/>
<path d="M7 41.28C7 32.6209 7 28.2914 8.63156 24.961C10.1937 21.7722 12.7722 19.1937 15.961 17.6316C19.2914 16 23.6209 16 32.28 16H286.72C295.379 16 299.709 16 303.039 17.6316C306.228 19.1937 308.806 21.7722 310.368 24.961C312 28.2914 312 32.6209 312 41.28V84.3867C312 93.0457 312 97.3753 310.368 100.706C308.806 103.894 306.228 106.473 303.039 108.035C299.709 109.667 295.379 109.667 286.72 109.667H32.28C23.6209 109.667 19.2914 109.667 15.961 108.035C12.7722 106.473 10.1937 103.894 8.63156 100.706C7 97.3753 7 93.0457 7 84.3867V41.28Z" fill="#FAFAFA"/>
<path d="M60.8395 59.2864C60.7732 58.6661 60.4938 58.1832 60.0014 57.8375C59.5137 57.4919 58.8793 57.319 58.098 57.319C57.5488 57.319 57.0777 57.4019 56.6847 57.5676C56.2917 57.7333 55.991 57.9583 55.7827 58.2423C55.5743 58.5264 55.4678 58.8508 55.4631 59.2154C55.4631 59.5184 55.5317 59.7812 55.669 60.0037C55.8111 60.2262 56.0028 60.4156 56.2443 60.5719C56.4858 60.7234 56.7533 60.8512 57.0469 60.9554C57.3404 61.0596 57.6364 61.1472 57.9347 61.2182L59.2983 61.5591C59.8475 61.6869 60.3755 61.8598 60.8821 62.0776C61.3935 62.2954 61.8504 62.57 62.2528 62.9014C62.66 63.2329 62.982 63.633 63.2188 64.1017C63.4555 64.5705 63.5739 65.1197 63.5739 65.7494C63.5739 66.6017 63.3561 67.3522 62.9205 68.0009C62.4848 68.6448 61.8551 69.1491 61.0312 69.5136C60.2121 69.8735 59.2202 70.0534 58.0554 70.0534C56.9238 70.0534 55.9413 69.8782 55.108 69.5279C54.2794 69.1775 53.6307 68.6661 53.1619 67.9938C52.6979 67.3214 52.447 66.5023 52.4091 65.5364H55.0014C55.0393 66.043 55.1955 66.4644 55.4702 66.8006C55.7448 67.1368 56.1023 67.3877 56.5426 67.5534C56.9877 67.7191 57.4848 67.802 58.0341 67.802C58.607 67.802 59.1089 67.7168 59.5398 67.5463C59.9754 67.3711 60.3163 67.1297 60.5625 66.8219C60.8087 66.5094 60.9342 66.1448 60.9389 65.7281C60.9342 65.3494 60.8229 65.0369 60.6051 64.7906C60.3873 64.5397 60.0819 64.3314 59.6889 64.1656C59.3007 63.9952 58.8461 63.8437 58.3253 63.7111L56.6705 63.285C55.4725 62.9772 54.5256 62.5108 53.8295 61.8858C53.1383 61.2561 52.7926 60.4204 52.7926 59.3787C52.7926 58.5217 53.0246 57.7712 53.4886 57.1273C53.9574 56.4833 54.5942 55.9838 55.3991 55.6287C56.2041 55.2689 57.1155 55.0889 58.1335 55.0889C59.1657 55.0889 60.0701 55.2689 60.8466 55.6287C61.6278 55.9838 62.241 56.4786 62.6861 57.1131C63.1312 57.7428 63.3608 58.4672 63.375 59.2864H60.8395ZM71.9624 65.2452V58.9242H74.5335V69.8333H72.0406V67.8943H71.9269C71.6807 68.5051 71.2759 69.0047 70.7124 69.3929C70.1537 69.7812 69.4648 69.9753 68.6457 69.9753C67.9307 69.9753 67.2986 69.8167 66.7494 69.4994C66.2049 69.1775 65.7787 68.7111 65.471 68.1003C65.1632 67.4848 65.0093 66.7414 65.0093 65.8702V58.9242H67.5803V65.4725C67.5803 66.1637 67.7697 66.713 68.1485 67.1202C68.5273 67.5274 69.0245 67.731 69.64 67.731C70.0188 67.731 70.3857 67.6386 70.7408 67.454C71.096 67.2693 71.3871 66.9947 71.6144 66.6301C71.8464 66.2608 71.9624 65.7992 71.9624 65.2452ZM76.3773 73.9242V58.9242H78.9057V60.7281H79.0548C79.1874 60.463 79.3744 60.1813 79.6159 59.883C79.8574 59.5799 80.1841 59.3219 80.596 59.1088C81.008 58.891 81.5335 58.7821 82.1727 58.7821C83.0155 58.7821 83.7755 58.9976 84.4526 59.4284C85.1344 59.8546 85.6741 60.4867 86.0719 61.3247C86.4743 62.1581 86.6756 63.1808 86.6756 64.3929C86.6756 65.5908 86.4791 66.6088 86.0861 67.4469C85.6931 68.285 85.158 68.9242 84.481 69.3645C83.8039 69.8048 83.0368 70.025 82.1798 70.025C81.5548 70.025 81.0364 69.9208 80.6244 69.7125C80.2125 69.5042 79.8811 69.2532 79.6301 68.9597C79.3839 68.6614 79.1921 68.3797 79.0548 68.1145H78.9483V73.9242H76.3773ZM78.8986 64.3787C78.8986 65.0842 78.998 65.7021 79.1969 66.2324C79.4005 66.7627 79.6917 67.177 80.0705 67.4753C80.454 67.7689 80.918 67.9156 81.4625 67.9156C82.0307 67.9156 82.5065 67.7641 82.8901 67.4611C83.2736 67.1533 83.5624 66.7343 83.7565 66.204C83.9554 65.669 84.0548 65.0605 84.0548 64.3787C84.0548 63.7016 83.9578 63.1003 83.7636 62.5747C83.5695 62.0492 83.2807 61.6372 82.8972 61.3389C82.5136 61.0406 82.0354 60.8915 81.4625 60.8915C80.9133 60.8915 80.4469 61.0359 80.0634 61.3247C79.6798 61.6136 79.3886 62.0184 79.1898 62.5392C78.9956 63.0601 78.8986 63.6732 78.8986 64.3787ZM88.0773 73.9242V58.9242H90.6057V60.7281H90.7548C90.8874 60.463 91.0744 60.1813 91.3159 59.883C91.5574 59.5799 91.8841 59.3219 92.296 59.1088C92.708 58.891 93.2335 58.7821 93.8727 58.7821C94.7155 58.7821 95.4755 58.9976 96.1526 59.4284C96.8344 59.8546 97.3741 60.4867 97.7719 61.3247C98.1743 62.1581 98.3756 63.1808 98.3756 64.3929C98.3756 65.5908 98.1791 66.6088 97.7861 67.4469C97.3931 68.285 96.858 68.9242 96.181 69.3645C95.5039 69.8048 94.7368 70.025 93.8798 70.025C93.2548 70.025 92.7364 69.9208 92.3244 69.7125C91.9125 69.5042 91.5811 69.2532 91.3301 68.9597C91.0839 68.6614 90.8921 68.3797 90.7548 68.1145H90.6483V73.9242H88.0773ZM90.5986 64.3787C90.5986 65.0842 90.698 65.7021 90.8969 66.2324C91.1005 66.7627 91.3917 67.177 91.7705 67.4753C92.154 67.7689 92.618 67.9156 93.1625 67.9156C93.7307 67.9156 94.2065 67.7641 94.5901 67.4611C94.9736 67.1533 95.2624 66.7343 95.4565 66.204C95.6554 65.669 95.7548 65.0605 95.7548 64.3787C95.7548 63.7016 95.6578 63.1003 95.4636 62.5747C95.2695 62.0492 94.9807 61.6372 94.5972 61.3389C94.2136 61.0406 93.7354 60.8915 93.1625 60.8915C92.6133 60.8915 92.1469 61.0359 91.7634 61.3247C91.3798 61.6136 91.0886 62.0184 90.8898 62.5392C90.6956 63.0601 90.5986 63.6732 90.5986 64.3787ZM102.348 55.2878V69.8333H99.7773V55.2878H102.348ZM109.022 70.0463C107.928 70.0463 106.983 69.819 106.188 69.3645C105.397 68.9052 104.789 68.2565 104.363 67.4185C103.936 66.5757 103.723 65.5837 103.723 64.4426C103.723 63.3205 103.936 62.3356 104.363 61.4881C104.793 60.6358 105.395 59.9729 106.167 59.4994C106.938 59.0212 107.845 58.7821 108.887 58.7821C109.559 58.7821 110.194 58.891 110.79 59.1088C111.391 59.3219 111.922 59.6533 112.381 60.1031C112.845 60.5529 113.21 61.1259 113.475 61.8219C113.74 62.5132 113.873 63.337 113.873 64.2935V65.0818H104.931V63.3489H111.408C111.403 62.8565 111.297 62.4185 111.088 62.035C110.88 61.6467 110.589 61.3413 110.215 61.1188C109.846 60.8962 109.415 60.785 108.922 60.785C108.397 60.785 107.935 60.9128 107.537 61.1685C107.14 61.4194 106.829 61.7509 106.607 62.1628C106.389 62.57 106.278 63.0174 106.273 63.5051V65.0179C106.273 65.6524 106.389 66.1969 106.621 66.6514C106.853 67.1012 107.177 67.4469 107.594 67.6884C108.011 67.9251 108.498 68.0435 109.057 68.0435C109.431 68.0435 109.77 67.9914 110.073 67.8872C110.376 67.7783 110.639 67.6197 110.861 67.4114C111.084 67.203 111.252 66.945 111.365 66.6372L113.766 66.9071C113.614 67.5416 113.326 68.0956 112.9 68.569C112.478 69.0378 111.938 69.4024 111.28 69.6628C110.622 69.9185 109.869 70.0463 109.022 70.0463ZM115.248 69.8333V58.9242H117.705V60.7779H117.833C118.06 60.1529 118.437 59.6652 118.962 59.3148C119.488 58.9597 120.115 58.7821 120.844 58.7821C121.583 58.7821 122.205 58.962 122.712 59.3219C123.223 59.677 123.583 60.1623 123.792 60.7779H123.905C124.147 60.1718 124.554 59.6888 125.127 59.329C125.704 58.9644 126.389 58.7821 127.179 58.7821C128.183 58.7821 129.002 59.0994 129.637 59.7338C130.271 60.3683 130.588 61.294 130.588 62.5108V69.8333H128.01V62.9085C128.01 62.2315 127.83 61.7367 127.471 61.4242C127.111 61.1069 126.67 60.9483 126.15 60.9483C125.529 60.9483 125.044 61.1424 124.694 61.5307C124.348 61.9142 124.175 62.4137 124.175 63.0293V69.8333H121.654V62.802C121.654 62.2386 121.483 61.7887 121.142 61.4526C120.806 61.1164 120.366 60.9483 119.821 60.9483C119.452 60.9483 119.116 61.043 118.813 61.2324C118.51 61.4171 118.268 61.6798 118.088 62.0208C117.909 62.3569 117.819 62.7499 117.819 63.1997V69.8333H115.248ZM137.226 70.0463C136.133 70.0463 135.188 69.819 134.393 69.3645C133.602 68.9052 132.993 68.2565 132.567 67.4185C132.141 66.5757 131.928 65.5837 131.928 64.4426C131.928 63.3205 132.141 62.3356 132.567 61.4881C132.998 60.6358 133.599 59.9729 134.371 59.4994C135.143 59.0212 136.05 58.7821 137.091 58.7821C137.764 58.7821 138.398 58.891 138.995 59.1088C139.596 59.3219 140.126 59.6533 140.586 60.1031C141.05 60.5529 141.414 61.1259 141.679 61.8219C141.945 62.5132 142.077 63.337 142.077 64.2935V65.0818H133.135V63.3489H139.613C139.608 62.8565 139.501 62.4185 139.293 62.035C139.085 61.6467 138.794 61.3413 138.42 61.1188C138.05 60.8962 137.619 60.785 137.127 60.785C136.601 60.785 136.14 60.9128 135.742 61.1685C135.344 61.4194 135.034 61.7509 134.812 62.1628C134.594 62.57 134.483 63.0174 134.478 63.5051V65.0179C134.478 65.6524 134.594 66.1969 134.826 66.6514C135.058 67.1012 135.382 67.4469 135.799 67.6884C136.215 67.9251 136.703 68.0435 137.262 68.0435C137.636 68.0435 137.974 67.9914 138.277 67.8872C138.581 67.7783 138.843 67.6197 139.066 67.4114C139.288 67.203 139.456 66.945 139.57 66.6372L141.971 66.9071C141.819 67.5416 141.53 68.0956 141.104 68.569C140.683 69.0378 140.143 69.4024 139.485 69.6628C138.827 69.9185 138.074 70.0463 137.226 70.0463ZM146.023 63.4412V69.8333H143.452V58.9242H145.91V60.7779H146.037C146.288 60.1671 146.689 59.6817 147.238 59.3219C147.792 58.962 148.476 58.7821 149.29 58.7821C150.043 58.7821 150.699 58.9431 151.258 59.2651C151.821 59.587 152.257 60.0534 152.564 60.6642C152.877 61.275 153.031 62.016 153.026 62.8872V69.8333H150.455V63.285C150.455 62.5558 150.266 61.9852 149.887 61.5733C149.513 61.1614 148.994 60.9554 148.332 60.9554C147.882 60.9554 147.482 61.0548 147.131 61.2537C146.786 61.4478 146.513 61.7296 146.314 62.0989C146.12 62.4682 146.023 62.9156 146.023 63.4412ZM160.287 58.9242V60.9128H154.016V58.9242H160.287ZM155.564 56.3105H158.135V66.552C158.135 66.8976 158.187 67.1628 158.291 67.3475C158.4 67.5274 158.542 67.6505 158.718 67.7168C158.893 67.7831 159.087 67.8162 159.3 67.8162C159.461 67.8162 159.608 67.8044 159.74 67.7807C159.878 67.757 159.982 67.7357 160.053 67.7168L160.486 69.7267C160.349 69.7741 160.152 69.8261 159.897 69.883C159.646 69.9398 159.338 69.9729 158.973 69.9824C158.329 70.0013 157.749 69.9043 157.233 69.6912C156.717 69.4734 156.308 69.1372 156.005 68.6827C155.706 68.2281 155.559 67.66 155.564 66.9781V56.3105ZM164.777 70.0534C164.085 70.0534 163.463 69.9303 162.909 69.6841C162.359 69.4332 161.924 69.0638 161.602 68.5761C161.285 68.0885 161.126 67.4871 161.126 66.7722C161.126 66.1566 161.24 65.6476 161.467 65.2452C161.694 64.8427 162.004 64.5208 162.397 64.2793C162.79 64.0378 163.233 63.8555 163.725 63.7324C164.223 63.6046 164.736 63.5122 165.267 63.4554C165.906 63.3891 166.424 63.3299 166.822 63.2779C167.22 63.221 167.509 63.1358 167.689 63.0222C167.873 62.9038 167.966 62.7215 167.966 62.4753V62.4327C167.966 61.8976 167.807 61.4833 167.49 61.1898C167.172 60.8962 166.716 60.7494 166.119 60.7494C165.489 60.7494 164.99 60.8868 164.62 61.1614C164.256 61.436 164.01 61.7603 163.882 62.1344L161.481 61.7935C161.671 61.1306 161.983 60.5766 162.419 60.1315C162.854 59.6817 163.387 59.3456 164.017 59.123C164.646 58.8958 165.342 58.7821 166.105 58.7821C166.63 58.7821 167.154 58.8437 167.674 58.9668C168.195 59.0899 168.671 59.2935 169.102 59.5776C169.533 59.8569 169.878 60.2381 170.139 60.721C170.404 61.204 170.537 61.8077 170.537 62.5321V69.8333H168.065V68.3347H167.98C167.824 68.6377 167.603 68.9218 167.319 69.1869C167.04 69.4474 166.687 69.6581 166.261 69.819C165.84 69.9753 165.345 70.0534 164.777 70.0534ZM165.444 68.1642C165.96 68.1642 166.408 68.0624 166.787 67.8588C167.165 67.6505 167.457 67.3759 167.66 67.035C167.868 66.694 167.973 66.3224 167.973 65.9199V64.6344C167.892 64.7007 167.755 64.7622 167.561 64.819C167.371 64.8759 167.158 64.9256 166.922 64.9682C166.685 65.0108 166.45 65.0487 166.218 65.0818C165.986 65.115 165.785 65.1434 165.615 65.1671C165.231 65.2191 164.888 65.3044 164.585 65.4227C164.282 65.5411 164.043 65.7068 163.868 65.9199C163.692 66.1282 163.605 66.3981 163.605 66.7296C163.605 67.203 163.778 67.5605 164.123 67.802C164.469 68.0435 164.909 68.1642 165.444 68.1642ZM174.893 55.2878V69.8333H172.322V55.2878H174.893ZM181.011 69.8333V55.2878H190.471V57.4966H183.646V61.4455H189.981V63.6543H183.646V67.6244H190.528V69.8333H181.011ZM200.868 61.8077L198.524 62.0634C198.458 61.8266 198.342 61.6041 198.176 61.3958C198.015 61.1874 197.798 61.0193 197.523 60.8915C197.248 60.7636 196.912 60.6997 196.514 60.6997C195.979 60.6997 195.53 60.8157 195.165 61.0477C194.805 61.2797 194.628 61.5804 194.632 61.9497C194.628 62.267 194.744 62.525 194.98 62.7239C195.222 62.9227 195.62 63.0861 196.174 63.2139L198.034 63.6117C199.067 63.8342 199.834 64.1869 200.336 64.6699C200.842 65.1529 201.098 65.785 201.103 66.5662C201.098 67.2528 200.897 67.8588 200.499 68.3844C200.106 68.9052 199.559 69.3124 198.858 69.606C198.157 69.8995 197.353 70.0463 196.443 70.0463C195.108 70.0463 194.033 69.767 193.219 69.2083C192.405 68.6448 191.919 67.8612 191.763 66.8574L194.27 66.6159C194.384 67.1083 194.625 67.48 194.995 67.731C195.364 67.9819 195.845 68.1074 196.436 68.1074C197.047 68.1074 197.537 67.9819 197.907 67.731C198.281 67.48 198.468 67.1699 198.468 66.8006C198.468 66.4881 198.347 66.23 198.105 66.0264C197.869 65.8228 197.499 65.6666 196.997 65.5577L195.137 65.1671C194.09 64.9493 193.316 64.5823 192.814 64.0662C192.312 63.5454 192.064 62.8872 192.068 62.0918C192.064 61.4194 192.246 60.837 192.615 60.3446C192.989 59.8475 193.508 59.4639 194.171 59.194C194.838 58.9194 195.608 58.7821 196.479 58.7821C197.757 58.7821 198.764 59.0544 199.497 59.5989C200.236 60.1434 200.693 60.8797 200.868 61.8077ZM211.045 61.8077L208.701 62.0634C208.635 61.8266 208.519 61.6041 208.353 61.3958C208.192 61.1874 207.974 61.0193 207.7 60.8915C207.425 60.7636 207.089 60.6997 206.691 60.6997C206.156 60.6997 205.706 60.8157 205.342 61.0477C204.982 61.2797 204.804 61.5804 204.809 61.9497C204.804 62.267 204.92 62.525 205.157 62.7239C205.398 62.9227 205.796 63.0861 206.35 63.2139L208.211 63.6117C209.243 63.8342 210.01 64.1869 210.512 64.6699C211.019 65.1529 211.274 65.785 211.279 66.5662C211.274 67.2528 211.073 67.8588 210.675 68.3844C210.282 68.9052 209.736 69.3124 209.035 69.606C208.334 69.8995 207.529 70.0463 206.62 70.0463C205.285 70.0463 204.21 69.767 203.396 69.2083C202.581 68.6448 202.096 67.8612 201.94 66.8574L204.447 66.6159C204.56 67.1083 204.802 67.48 205.171 67.731C205.54 67.9819 206.021 68.1074 206.613 68.1074C207.224 68.1074 207.714 67.9819 208.083 67.731C208.457 67.48 208.644 67.1699 208.644 66.8006C208.644 66.4881 208.523 66.23 208.282 66.0264C208.045 65.8228 207.676 65.6666 207.174 65.5577L205.313 65.1671C204.267 64.9493 203.493 64.5823 202.991 64.0662C202.489 63.5454 202.24 62.8872 202.245 62.0918C202.24 61.4194 202.423 60.837 202.792 60.3446C203.166 59.8475 203.684 59.4639 204.347 59.194C205.015 58.9194 205.784 58.7821 206.656 58.7821C207.934 58.7821 208.94 59.0544 209.674 59.5989C210.413 60.1434 210.87 60.8797 211.045 61.8077ZM215.738 70.0534C215.047 70.0534 214.424 69.9303 213.87 69.6841C213.321 69.4332 212.886 69.0638 212.564 68.5761C212.246 68.0885 212.088 67.4871 212.088 66.7722C212.088 66.1566 212.201 65.6476 212.429 65.2452C212.656 64.8427 212.966 64.5208 213.359 64.2793C213.752 64.0378 214.195 63.8555 214.687 63.7324C215.184 63.6046 215.698 63.5122 216.228 63.4554C216.868 63.3891 217.386 63.3299 217.784 63.2779C218.182 63.221 218.47 63.1358 218.65 63.0222C218.835 62.9038 218.927 62.7215 218.927 62.4753V62.4327C218.927 61.8976 218.769 61.4833 218.451 61.1898C218.134 60.8962 217.677 60.7494 217.081 60.7494C216.451 60.7494 215.951 60.8868 215.582 61.1614C215.218 61.436 214.971 61.7603 214.843 62.1344L212.443 61.7935C212.632 61.1306 212.945 60.5766 213.38 60.1315C213.816 59.6817 214.349 59.3456 214.978 59.123C215.608 58.8958 216.304 58.7821 217.066 58.7821C217.592 58.7821 218.115 58.8437 218.636 58.9668C219.157 59.0899 219.633 59.2935 220.064 59.5776C220.495 59.8569 220.84 60.2381 221.101 60.721C221.366 61.204 221.498 61.8077 221.498 62.5321V69.8333H219.027V68.3347H218.941C218.785 68.6377 218.565 68.9218 218.281 69.1869C218.002 69.4474 217.649 69.6581 217.223 69.819C216.801 69.9753 216.307 70.0534 215.738 70.0534ZM216.406 68.1642C216.922 68.1642 217.37 68.0624 217.748 67.8588C218.127 67.6505 218.418 67.3759 218.622 67.035C218.83 66.694 218.934 66.3224 218.934 65.9199V64.6344C218.854 64.7007 218.717 64.7622 218.522 64.819C218.333 64.8759 218.12 64.9256 217.883 64.9682C217.646 65.0108 217.412 65.0487 217.18 65.0818C216.948 65.115 216.747 65.1434 216.576 65.1671C216.193 65.2191 215.85 65.3044 215.547 65.4227C215.244 65.5411 215.004 65.7068 214.829 65.9199C214.654 66.1282 214.566 66.3981 214.566 66.7296C214.566 67.203 214.739 67.5605 215.085 67.802C215.431 68.0435 215.871 68.1642 216.406 68.1642ZM224.491 73.9242C224.141 73.9242 223.816 73.8958 223.518 73.8389C223.224 73.7869 222.99 73.7253 222.815 73.6543L223.411 71.6514C223.785 71.7603 224.119 71.8124 224.413 71.8077C224.706 71.8029 224.964 71.7106 225.187 71.5307C225.414 71.3555 225.606 71.0619 225.762 70.65L225.982 70.0605L222.026 58.9242H224.754L227.268 67.1628H227.382L229.903 58.9242H232.637L228.269 71.1543C228.066 71.7319 227.796 72.2267 227.46 72.6386C227.123 73.0553 226.712 73.3726 226.224 73.5904C225.741 73.8129 225.163 73.9242 224.491 73.9242Z" fill="#AAAAAA"/>
<path d="M248.5 62.8335H262.5" stroke="#C7C7C7" stroke-width="2" stroke-linecap="round" stroke-linejoin="round"/>
<path d="M255.5 55.8335L263 62.8333L255.5 69.8335" stroke="#C7C7C7" stroke-width="2" stroke-linecap="round" stroke-linejoin="round"/>
<path d="M7 140.946C7 132.287 7 127.958 8.63156 124.627C10.1937 121.439 12.7722 118.86 15.961 117.298C19.2914 115.667 23.6209 115.667 32.28 115.667H286.72C295.379 115.667 299.709 115.667 303.039 117.298C306.228 118.86 308.806 121.439 310.368 124.627C312 127.958 312 132.287 312 140.947V184.053C312 192.712 312 197.042 310.368 200.372C308.806 203.561 306.228 206.139 303.039 207.702C299.709 209.333 295.379 209.333 286.72 209.333H32.28C23.6209 209.333 19.2914 209.333 15.961 207.702C12.7722 206.139 10.1937 203.561 8.63156 200.372C7 197.042 7 192.712 7 184.053V140.946Z" fill="white"/>
<path d="M55.4347 169.5V154.955H60.8892C62.0066 154.955 62.9441 155.163 63.7017 155.58C64.464 155.996 65.0393 156.569 65.4276 157.298C65.8205 158.023 66.017 158.847 66.017 159.77C66.017 160.703 65.8205 161.531 65.4276 162.256C65.0346 162.98 64.4545 163.551 63.6875 163.967C62.9205 164.379 61.9759 164.585 60.8537 164.585H57.2386V162.419H60.4986C61.152 162.419 61.687 162.305 62.1037 162.078C62.5204 161.851 62.8281 161.538 63.027 161.141C63.2306 160.743 63.3324 160.286 63.3324 159.77C63.3324 159.254 63.2306 158.799 63.027 158.406C62.8281 158.013 62.518 157.708 62.0966 157.49C61.6799 157.268 61.1425 157.156 60.4844 157.156H58.0696V169.5H55.4347ZM72.0654 169.713C70.9717 169.713 70.0271 169.486 69.2316 169.031C68.4409 168.572 67.8325 167.923 67.4063 167.085C66.9802 166.242 66.7671 165.25 66.7671 164.109C66.7671 162.987 66.9802 162.002 67.4063 161.155C67.8372 160.303 68.4385 159.64 69.2103 159.166C69.9821 158.688 70.8888 158.449 71.9305 158.449C72.6028 158.449 73.2373 158.558 73.8339 158.776C74.4352 158.989 74.9655 159.32 75.4248 159.77C75.8888 160.22 76.2534 160.793 76.5185 161.489C76.7837 162.18 76.9163 163.004 76.9163 163.96V164.749H67.9745V163.016H74.4518C74.447 162.523 74.3405 162.085 74.1322 161.702C73.9238 161.313 73.6326 161.008 73.2586 160.786C72.8893 160.563 72.4584 160.452 71.966 160.452C71.4404 160.452 70.9788 160.58 70.581 160.835C70.1833 161.086 69.8732 161.418 69.6506 161.83C69.4328 162.237 69.3216 162.684 69.3168 163.172V164.685C69.3168 165.319 69.4328 165.864 69.6648 166.318C69.8969 166.768 70.2212 167.114 70.6379 167.355C71.0545 167.592 71.5422 167.71 72.1009 167.71C72.475 167.71 72.8135 167.658 73.1165 167.554C73.4196 167.445 73.6824 167.286 73.9049 167.078C74.1274 166.87 74.2955 166.612 74.4092 166.304L76.8097 166.574C76.6582 167.208 76.3694 167.762 75.9433 168.236C75.5219 168.705 74.9821 169.069 74.3239 169.33C73.6658 169.585 72.9129 169.713 72.0654 169.713ZM78.2913 169.5V158.591H80.7842V160.409H80.8979C81.0967 159.779 81.4376 159.294 81.9206 158.953C82.4083 158.607 82.9646 158.435 83.5896 158.435C83.7317 158.435 83.8903 158.442 84.0655 158.456C84.2454 158.465 84.3946 158.482 84.5129 158.506V160.871C84.404 160.833 84.2312 160.8 83.9945 160.771C83.7625 160.738 83.5375 160.722 83.3197 160.722C82.851 160.722 82.4296 160.823 82.0555 161.027C81.6862 161.226 81.395 161.503 81.182 161.858C80.9689 162.213 80.8624 162.623 80.8624 163.087V169.5H78.2913ZM94.0432 161.474L91.6994 161.73C91.6331 161.493 91.5171 161.271 91.3514 161.062C91.1904 160.854 90.9726 160.686 90.698 160.558C90.4234 160.43 90.0872 160.366 89.6895 160.366C89.1545 160.366 88.7046 160.482 88.3401 160.714C87.9802 160.946 87.8027 161.247 87.8074 161.616C87.8027 161.934 87.9187 162.192 88.1554 162.391C88.3969 162.589 88.7946 162.753 89.3486 162.881L91.2094 163.278C92.2416 163.501 93.0086 163.854 93.5105 164.337C94.0171 164.82 94.2728 165.452 94.2776 166.233C94.2728 166.92 94.0716 167.526 93.6739 168.051C93.2809 168.572 92.734 168.979 92.0332 169.273C91.3325 169.566 90.5276 169.713 89.6185 169.713C88.2832 169.713 87.2084 169.434 86.394 168.875C85.5796 168.312 85.0943 167.528 84.9381 166.524L87.4452 166.283C87.5588 166.775 87.8003 167.147 88.1696 167.398C88.5389 167.649 89.0195 167.774 89.6114 167.774C90.2222 167.774 90.7122 167.649 91.0815 167.398C91.4556 167.147 91.6426 166.837 91.6426 166.467C91.6426 166.155 91.5219 165.897 91.2804 165.693C91.0437 165.49 90.6743 165.333 90.1724 165.224L88.3116 164.834C87.2652 164.616 86.4911 164.249 85.9892 163.733C85.4873 163.212 85.2387 162.554 85.2435 161.759C85.2387 161.086 85.421 160.504 85.7903 160.011C86.1644 159.514 86.6829 159.131 87.3457 158.861C88.0134 158.586 88.7828 158.449 89.654 158.449C90.9324 158.449 91.9385 158.721 92.6724 159.266C93.4111 159.81 93.868 160.546 94.0432 161.474ZM100.356 169.713C99.2908 169.713 98.3675 169.479 97.5862 169.01C96.805 168.541 96.1989 167.885 95.768 167.043C95.3419 166.2 95.1288 165.215 95.1288 164.088C95.1288 162.961 95.3419 161.974 95.768 161.126C96.1989 160.279 96.805 159.621 97.5862 159.152C98.3675 158.683 99.2908 158.449 100.356 158.449C101.421 158.449 102.345 158.683 103.126 159.152C103.907 159.621 104.511 160.279 104.937 161.126C105.368 161.974 105.583 162.961 105.583 164.088C105.583 165.215 105.368 166.2 104.937 167.043C104.511 167.885 103.907 168.541 103.126 169.01C102.345 169.479 101.421 169.713 100.356 169.713ZM100.37 167.653C100.948 167.653 101.431 167.495 101.819 167.178C102.207 166.856 102.496 166.425 102.686 165.885C102.88 165.345 102.977 164.744 102.977 164.081C102.977 163.413 102.88 162.81 102.686 162.27C102.496 161.725 102.207 161.292 101.819 160.97C101.431 160.648 100.948 160.487 100.37 160.487C99.7785 160.487 99.286 160.648 98.893 160.97C98.5048 161.292 98.2136 161.725 98.0195 162.27C97.8301 162.81 97.7354 163.413 97.7354 164.081C97.7354 164.744 97.8301 165.345 98.0195 165.885C98.2136 166.425 98.5048 166.856 98.893 167.178C99.286 167.495 99.7785 167.653 100.37 167.653ZM109.537 163.108V169.5H106.966V158.591H109.423V160.445H109.551C109.802 159.834 110.202 159.348 110.751 158.989C111.305 158.629 111.989 158.449 112.804 158.449C113.556 158.449 114.212 158.61 114.771 158.932C115.334 159.254 115.77 159.72 116.078 160.331C116.39 160.942 116.544 161.683 116.539 162.554V169.5H113.968V162.952C113.968 162.223 113.779 161.652 113.4 161.24C113.026 160.828 112.508 160.622 111.845 160.622C111.395 160.622 110.995 160.722 110.645 160.92C110.299 161.115 110.027 161.396 109.828 161.766C109.634 162.135 109.537 162.582 109.537 163.108ZM121.492 169.72C120.801 169.72 120.178 169.597 119.624 169.351C119.075 169.1 118.64 168.731 118.318 168.243C118 167.755 117.842 167.154 117.842 166.439C117.842 165.823 117.955 165.314 118.183 164.912C118.41 164.509 118.72 164.188 119.113 163.946C119.506 163.705 119.949 163.522 120.441 163.399C120.938 163.271 121.452 163.179 121.982 163.122C122.622 163.056 123.14 162.997 123.538 162.945C123.935 162.888 124.224 162.803 124.404 162.689C124.589 162.571 124.681 162.388 124.681 162.142V162.099C124.681 161.564 124.523 161.15 124.205 160.857C123.888 160.563 123.431 160.416 122.835 160.416C122.205 160.416 121.705 160.554 121.336 160.828C120.971 161.103 120.725 161.427 120.597 161.801L118.197 161.46C118.386 160.797 118.699 160.243 119.134 159.798C119.57 159.348 120.103 159.012 120.732 158.79C121.362 158.562 122.058 158.449 122.82 158.449C123.346 158.449 123.869 158.51 124.39 158.634C124.911 158.757 125.387 158.96 125.818 159.244C126.248 159.524 126.594 159.905 126.854 160.388C127.12 160.871 127.252 161.474 127.252 162.199V169.5H124.781V168.001H124.695C124.539 168.304 124.319 168.589 124.035 168.854C123.756 169.114 123.403 169.325 122.977 169.486C122.555 169.642 122.06 169.72 121.492 169.72ZM122.16 167.831C122.676 167.831 123.123 167.729 123.502 167.526C123.881 167.317 124.172 167.043 124.376 166.702C124.584 166.361 124.688 165.989 124.688 165.587V164.301C124.608 164.367 124.47 164.429 124.276 164.486C124.087 164.543 123.874 164.592 123.637 164.635C123.4 164.678 123.166 164.715 122.934 164.749C122.702 164.782 122.501 164.81 122.33 164.834C121.947 164.886 121.604 164.971 121.3 165.089C120.997 165.208 120.758 165.374 120.583 165.587C120.408 165.795 120.32 166.065 120.32 166.396C120.32 166.87 120.493 167.227 120.839 167.469C121.184 167.71 121.625 167.831 122.16 167.831ZM131.608 154.955V169.5H129.037V154.955H131.608ZM145.632 158.953C145.565 158.333 145.286 157.85 144.794 157.504C144.306 157.159 143.671 156.986 142.89 156.986C142.341 156.986 141.87 157.069 141.477 157.234C141.084 157.4 140.783 157.625 140.575 157.909C140.367 158.193 140.26 158.518 140.255 158.882C140.255 159.185 140.324 159.448 140.461 159.67C140.603 159.893 140.795 160.082 141.037 160.239C141.278 160.39 141.546 160.518 141.839 160.622C142.133 160.726 142.429 160.814 142.727 160.885L144.09 161.226C144.64 161.354 145.168 161.527 145.674 161.744C146.186 161.962 146.643 162.237 147.045 162.568C147.452 162.9 147.774 163.3 148.011 163.768C148.248 164.237 148.366 164.786 148.366 165.416C148.366 166.268 148.148 167.019 147.713 167.668C147.277 168.312 146.647 168.816 145.823 169.18C145.004 169.54 144.012 169.72 142.848 169.72C141.716 169.72 140.733 169.545 139.9 169.195C139.072 168.844 138.423 168.333 137.954 167.661C137.49 166.988 137.239 166.169 137.201 165.203H139.794C139.831 165.71 139.988 166.131 140.262 166.467C140.537 166.804 140.894 167.054 141.335 167.22C141.78 167.386 142.277 167.469 142.826 167.469C143.399 167.469 143.901 167.384 144.332 167.213C144.768 167.038 145.108 166.796 145.355 166.489C145.601 166.176 145.726 165.812 145.731 165.395C145.726 165.016 145.615 164.704 145.397 164.457C145.18 164.206 144.874 163.998 144.481 163.832C144.093 163.662 143.638 163.51 143.117 163.378L141.463 162.952C140.265 162.644 139.318 162.178 138.622 161.553C137.93 160.923 137.585 160.087 137.585 159.045C137.585 158.188 137.817 157.438 138.281 156.794C138.75 156.15 139.386 155.651 140.191 155.295C140.996 154.936 141.908 154.756 142.926 154.756C143.958 154.756 144.862 154.936 145.639 155.295C146.42 155.651 147.033 156.145 147.478 156.78C147.923 157.41 148.153 158.134 148.167 158.953H145.632ZM155.249 158.591V160.58H148.978V158.591H155.249ZM150.526 155.977H153.097V166.219C153.097 166.564 153.149 166.83 153.253 167.014C153.362 167.194 153.504 167.317 153.679 167.384C153.855 167.45 154.049 167.483 154.262 167.483C154.423 167.483 154.569 167.471 154.702 167.447C154.839 167.424 154.944 167.402 155.015 167.384L155.448 169.393C155.31 169.441 155.114 169.493 154.858 169.55C154.607 169.607 154.3 169.64 153.935 169.649C153.291 169.668 152.711 169.571 152.195 169.358C151.679 169.14 151.269 168.804 150.966 168.349C150.668 167.895 150.521 167.327 150.526 166.645V155.977ZM159.738 169.72C159.047 169.72 158.424 169.597 157.87 169.351C157.321 169.1 156.886 168.731 156.564 168.243C156.246 167.755 156.088 167.154 156.088 166.439C156.088 165.823 156.201 165.314 156.429 164.912C156.656 164.509 156.966 164.188 157.359 163.946C157.752 163.705 158.195 163.522 158.687 163.399C159.184 163.271 159.698 163.179 160.228 163.122C160.868 163.056 161.386 162.997 161.784 162.945C162.182 162.888 162.47 162.803 162.65 162.689C162.835 162.571 162.927 162.388 162.927 162.142V162.099C162.927 161.564 162.769 161.15 162.451 160.857C162.134 160.563 161.677 160.416 161.081 160.416C160.451 160.416 159.951 160.554 159.582 160.828C159.218 161.103 158.971 161.427 158.843 161.801L156.443 161.46C156.632 160.797 156.945 160.243 157.38 159.798C157.816 159.348 158.349 159.012 158.978 158.79C159.608 158.562 160.304 158.449 161.066 158.449C161.592 158.449 162.115 158.51 162.636 158.634C163.157 158.757 163.633 158.96 164.064 159.244C164.495 159.524 164.84 159.905 165.101 160.388C165.366 160.871 165.498 161.474 165.498 162.199V169.5H163.027V168.001H162.941C162.785 168.304 162.565 168.589 162.281 168.854C162.002 169.114 161.649 169.325 161.223 169.486C160.801 169.642 160.307 169.72 159.738 169.72ZM160.406 167.831C160.922 167.831 161.37 167.729 161.748 167.526C162.127 167.317 162.418 167.043 162.622 166.702C162.83 166.361 162.934 165.989 162.934 165.587V164.301C162.854 164.367 162.717 164.429 162.522 164.486C162.333 164.543 162.12 164.592 161.883 164.635C161.646 164.678 161.412 164.715 161.18 164.749C160.948 164.782 160.747 164.81 160.576 164.834C160.193 164.886 159.85 164.971 159.547 165.089C159.244 165.208 159.004 165.374 158.829 165.587C158.654 165.795 158.566 166.065 158.566 166.396C158.566 166.87 158.739 167.227 159.085 167.469C159.431 167.71 159.871 167.831 160.406 167.831ZM172.731 158.591V160.58H166.46V158.591H172.731ZM168.008 155.977H170.579V166.219C170.579 166.564 170.631 166.83 170.735 167.014C170.844 167.194 170.986 167.317 171.161 167.384C171.337 167.45 171.531 167.483 171.744 167.483C171.905 167.483 172.052 167.471 172.184 167.447C172.321 167.424 172.426 167.402 172.497 167.384L172.93 169.393C172.793 169.441 172.596 169.493 172.34 169.55C172.089 169.607 171.782 169.64 171.417 169.649C170.773 169.668 170.193 169.571 169.677 169.358C169.161 169.14 168.751 168.804 168.448 168.349C168.15 167.895 168.003 167.327 168.008 166.645V155.977ZM178.794 169.713C177.7 169.713 176.755 169.486 175.96 169.031C175.169 168.572 174.561 167.923 174.134 167.085C173.708 166.242 173.495 165.25 173.495 164.109C173.495 162.987 173.708 162.002 174.134 161.155C174.565 160.303 175.167 159.64 175.938 159.166C176.71 158.688 177.617 158.449 178.659 158.449C179.331 158.449 179.965 158.558 180.562 158.776C181.163 158.989 181.694 159.32 182.153 159.77C182.617 160.22 182.982 160.793 183.247 161.489C183.512 162.18 183.644 163.004 183.644 163.96V164.749H174.703V163.016H181.18C181.175 162.523 181.069 162.085 180.86 161.702C180.652 161.313 180.361 161.008 179.987 160.786C179.617 160.563 179.187 160.452 178.694 160.452C178.169 160.452 177.707 160.58 177.309 160.835C176.911 161.086 176.601 161.418 176.379 161.83C176.161 162.237 176.05 162.684 176.045 163.172V164.685C176.045 165.319 176.161 165.864 176.393 166.318C176.625 166.768 176.949 167.114 177.366 167.355C177.783 167.592 178.27 167.71 178.829 167.71C179.203 167.71 179.542 167.658 179.845 167.554C180.148 167.445 180.41 167.286 180.633 167.078C180.856 166.87 181.024 166.612 181.137 166.304L183.538 166.574C183.386 167.208 183.098 167.762 182.671 168.236C182.25 168.705 181.71 169.069 181.052 169.33C180.394 169.585 179.641 169.713 178.794 169.713ZM185.019 169.5V158.591H187.477V160.445H187.605C187.832 159.82 188.208 159.332 188.734 158.982C189.26 158.626 189.887 158.449 190.616 158.449C191.355 158.449 191.977 158.629 192.484 158.989C192.995 159.344 193.355 159.829 193.563 160.445H193.677C193.919 159.839 194.326 159.356 194.899 158.996C195.476 158.631 196.161 158.449 196.951 158.449C197.955 158.449 198.774 158.766 199.409 159.401C200.043 160.035 200.36 160.961 200.36 162.178V169.5H197.782V162.575C197.782 161.898 197.602 161.403 197.242 161.091C196.883 160.774 196.442 160.615 195.921 160.615C195.301 160.615 194.816 160.809 194.465 161.197C194.12 161.581 193.947 162.08 193.947 162.696V169.5H191.426V162.469C191.426 161.905 191.255 161.455 190.914 161.119C190.578 160.783 190.138 160.615 189.593 160.615C189.224 160.615 188.888 160.71 188.585 160.899C188.282 161.084 188.04 161.347 187.86 161.688C187.68 162.024 187.59 162.417 187.59 162.866V169.5H185.019ZM206.998 169.713C205.904 169.713 204.96 169.486 204.164 169.031C203.374 168.572 202.765 167.923 202.339 167.085C201.913 166.242 201.7 165.25 201.7 164.109C201.7 162.987 201.913 162.002 202.339 161.155C202.77 160.303 203.371 159.64 204.143 159.166C204.915 158.688 205.822 158.449 206.863 158.449C207.536 158.449 208.17 158.558 208.767 158.776C209.368 158.989 209.898 159.32 210.358 159.77C210.822 160.22 211.186 160.793 211.451 161.489C211.717 162.18 211.849 163.004 211.849 163.96V164.749H202.907V163.016H209.385C209.38 162.523 209.273 162.085 209.065 161.702C208.857 161.313 208.565 161.008 208.191 160.786C207.822 160.563 207.391 160.452 206.899 160.452C206.373 160.452 205.912 160.58 205.514 160.835C205.116 161.086 204.806 161.418 204.583 161.83C204.366 162.237 204.254 162.684 204.25 163.172V164.685C204.25 165.319 204.366 165.864 204.598 166.318C204.83 166.768 205.154 167.114 205.571 167.355C205.987 167.592 206.475 167.71 207.034 167.71C207.408 167.71 207.746 167.658 208.049 167.554C208.352 167.445 208.615 167.286 208.838 167.078C209.06 166.87 209.228 166.612 209.342 166.304L211.743 166.574C211.591 167.208 211.302 167.762 210.876 168.236C210.455 168.705 209.915 169.069 209.257 169.33C208.599 169.585 207.846 169.713 206.998 169.713ZM215.795 163.108V169.5H213.224V158.591H215.682V160.445H215.809C216.06 159.834 216.46 159.348 217.01 158.989C217.564 158.629 218.248 158.449 219.062 158.449C219.815 158.449 220.471 158.61 221.03 158.932C221.593 159.254 222.029 159.72 222.336 160.331C222.649 160.942 222.803 161.683 222.798 162.554V169.5H220.227V162.952C220.227 162.223 220.038 161.652 219.659 161.24C219.285 160.828 218.766 160.622 218.103 160.622C217.654 160.622 217.254 160.722 216.903 160.92C216.557 161.115 216.285 161.396 216.086 161.766C215.892 162.135 215.795 162.582 215.795 163.108ZM230.059 158.591V160.58H223.788V158.591H230.059ZM225.336 155.977H227.907V166.219C227.907 166.564 227.959 166.83 228.063 167.014C228.172 167.194 228.314 167.317 228.489 167.384C228.665 167.45 228.859 167.483 229.072 167.483C229.233 167.483 229.38 167.471 229.512 167.447C229.65 167.424 229.754 167.402 229.825 167.384L230.258 169.393C230.121 169.441 229.924 169.493 229.668 169.55C229.418 169.607 229.11 169.64 228.745 169.649C228.101 169.668 227.521 169.571 227.005 169.358C226.489 169.14 226.079 168.804 225.776 168.349C225.478 167.895 225.331 167.327 225.336 166.645V155.977Z" fill="#444444"/>
<path d="M246 162.5H260" stroke="#757575" stroke-width="2" stroke-linecap="round" stroke-linejoin="round"/>
<path d="M253 155.5L260.5 162.5L253 169.5" stroke="#757575" stroke-width="2" stroke-linecap="round" stroke-linejoin="round"/>
<path d="M7 240.613C7 231.954 7 227.625 8.63156 224.294C10.1937 221.105 12.7722 218.527 15.961 216.965C19.2914 215.333 23.6209 215.333 32.28 215.333H286.72C295.379 215.333 299.709 215.333 303.039 216.965C306.228 218.527 308.806 221.105 310.368 224.294C312 227.625 312 231.954 312 240.613V283.72C312 292.379 312 296.709 310.368 300.039C308.806 303.228 306.228 305.806 303.039 307.368C299.709 309 295.379 309 286.72 309H32.28C23.6209 309 19.2914 309 15.961 307.368C12.7722 305.806 10.1937 303.228 8.63156 300.039C7 296.709 7 292.379 7 283.72V240.613Z" fill="#FAFAFA"/>
<path d="M38.4347 269.167V254.621H43.8892C45.0066 254.621 45.9441 254.815 46.7017 255.203C47.464 255.592 48.0393 256.136 48.4276 256.837C48.8205 257.533 49.017 258.345 49.017 259.273C49.017 260.206 48.8182 261.015 48.4205 261.702C48.0275 262.384 47.4474 262.912 46.6804 263.286C45.9134 263.655 44.9711 263.84 43.8537 263.84H39.9688V261.652H43.4986C44.152 261.652 44.687 261.562 45.1037 261.382C45.5204 261.198 45.8281 260.93 46.027 260.58C46.2306 260.225 46.3324 259.789 46.3324 259.273C46.3324 258.757 46.2306 258.317 46.027 257.952C45.8234 257.583 45.5133 257.303 45.0966 257.114C44.6799 256.92 44.1425 256.823 43.4844 256.823H41.0696V269.167H38.4347ZM45.9489 262.576L49.5497 269.167H46.6094L43.0724 262.576H45.9489ZM55.2021 269.38C54.1084 269.38 53.1638 269.152 52.3683 268.698C51.5776 268.238 50.9692 267.59 50.543 266.752C50.1169 265.909 49.9038 264.917 49.9038 263.776C49.9038 262.654 50.1169 261.669 50.543 260.821C50.9739 259.969 51.5752 259.306 52.347 258.833C53.1188 258.354 54.0255 258.115 55.0672 258.115C55.7395 258.115 56.374 258.224 56.9706 258.442C57.5719 258.655 58.1022 258.987 58.5615 259.436C59.0255 259.886 59.3901 260.459 59.6553 261.155C59.9204 261.846 60.053 262.67 60.053 263.627V264.415H51.1112V262.682H57.5885C57.5838 262.19 57.4772 261.752 57.2689 261.368C57.0606 260.98 56.7694 260.675 56.3953 260.452C56.026 260.229 55.5951 260.118 55.1027 260.118C54.5771 260.118 54.1155 260.246 53.7178 260.502C53.32 260.753 53.0099 261.084 52.7874 261.496C52.5696 261.903 52.4583 262.351 52.4536 262.838V264.351C52.4536 264.986 52.5696 265.53 52.8016 265.985C53.0336 266.434 53.3579 266.78 53.7746 267.022C54.1912 267.258 54.6789 267.377 55.2376 267.377C55.6117 267.377 55.9502 267.325 56.2533 267.22C56.5563 267.112 56.8191 266.953 57.0416 266.745C57.2642 266.536 57.4322 266.278 57.5459 265.97L59.9464 266.24C59.7949 266.875 59.5061 267.429 59.08 267.902C58.6586 268.371 58.1188 268.736 57.4607 268.996C56.8025 269.252 56.0497 269.38 55.2021 269.38ZM66.1866 269.38C65.0976 269.38 64.1624 269.14 63.3812 268.662C62.6047 268.184 62.0057 267.524 61.5843 266.681C61.1676 265.833 60.9593 264.858 60.9593 263.755C60.9593 262.647 61.1724 261.669 61.5985 260.821C62.0246 259.969 62.626 259.306 63.4025 258.833C64.1837 258.354 65.107 258.115 66.1724 258.115C67.0578 258.115 67.8414 258.279 68.5232 258.605C69.2098 258.927 69.7567 259.384 70.1638 259.976C70.571 260.563 70.8031 261.25 70.8599 262.036H68.4025C68.3031 261.51 68.0663 261.072 67.6923 260.722C67.3229 260.367 66.8281 260.189 66.2079 260.189C65.6823 260.189 65.2207 260.331 64.8229 260.615C64.4252 260.895 64.1151 261.297 63.8925 261.823C63.6747 262.348 63.5658 262.978 63.5658 263.712C63.5658 264.455 63.6747 265.095 63.8925 265.63C64.1103 266.16 64.4157 266.569 64.8087 266.858C65.2065 267.142 65.6728 267.284 66.2079 267.284C66.5867 267.284 66.9252 267.213 67.2235 267.071C67.5265 266.925 67.7799 266.714 67.9835 266.439C68.1871 266.165 68.3267 265.831 68.4025 265.438H70.8599C70.7983 266.21 70.571 266.894 70.1781 267.49C69.7851 268.082 69.25 268.546 68.5729 268.882C67.8959 269.214 67.1004 269.38 66.1866 269.38ZM76.9295 269.38C75.8642 269.38 74.9409 269.145 74.1597 268.676C73.3784 268.208 72.7723 267.552 72.3415 266.709C71.9153 265.866 71.7023 264.881 71.7023 263.755C71.7023 262.628 71.9153 261.64 72.3415 260.793C72.7723 259.945 73.3784 259.287 74.1597 258.818C74.9409 258.35 75.8642 258.115 76.9295 258.115C77.9949 258.115 78.9182 258.35 79.6994 258.818C80.4807 259.287 81.0844 259.945 81.5105 260.793C81.9414 261.64 82.1568 262.628 82.1568 263.755C82.1568 264.881 81.9414 265.866 81.5105 266.709C81.0844 267.552 80.4807 268.208 79.6994 268.676C78.9182 269.145 77.9949 269.38 76.9295 269.38ZM76.9437 267.32C77.5214 267.32 78.0044 267.161 78.3926 266.844C78.7809 266.522 79.0697 266.091 79.2591 265.551C79.4532 265.012 79.5503 264.41 79.5503 263.747C79.5503 263.08 79.4532 262.476 79.2591 261.936C79.0697 261.392 78.7809 260.959 78.3926 260.637C78.0044 260.315 77.5214 260.154 76.9437 260.154C76.3519 260.154 75.8595 260.315 75.4665 260.637C75.0782 260.959 74.787 261.392 74.5929 261.936C74.4035 262.476 74.3088 263.08 74.3088 263.747C74.3088 264.41 74.4035 265.012 74.5929 265.551C74.787 266.091 75.0782 266.522 75.4665 266.844C75.8595 267.161 76.3519 267.32 76.9437 267.32ZM83.539 269.167V258.257H85.9964V260.111H86.1242C86.3515 259.486 86.7279 258.998 87.2535 258.648C87.779 258.293 88.4064 258.115 89.1356 258.115C89.8742 258.115 90.4969 258.295 91.0035 258.655C91.5148 259.01 91.8747 259.496 92.083 260.111H92.1967C92.4381 259.505 92.8453 259.022 93.4183 258.662C93.9959 258.298 94.6801 258.115 95.4708 258.115C96.4746 258.115 97.2937 258.433 97.9282 259.067C98.5627 259.702 98.8799 260.627 98.8799 261.844V269.167H96.3018V262.242C96.3018 261.565 96.1219 261.07 95.762 260.757C95.4022 260.44 94.9618 260.282 94.441 260.282C93.8207 260.282 93.3354 260.476 92.985 260.864C92.6394 261.247 92.4665 261.747 92.4665 262.363V269.167H89.9452V262.135C89.9452 261.572 89.7748 261.122 89.4339 260.786C89.0977 260.45 88.6574 260.282 88.1129 260.282C87.7435 260.282 87.4074 260.376 87.1043 260.566C86.8013 260.75 86.5598 261.013 86.3799 261.354C86.2 261.69 86.11 262.083 86.11 262.533V269.167H83.539ZM100.688 269.167V258.257H103.146V260.111H103.273C103.501 259.486 103.877 258.998 104.403 258.648C104.928 258.293 105.556 258.115 106.285 258.115C107.023 258.115 107.646 258.295 108.153 258.655C108.664 259.01 109.024 259.496 109.232 260.111H109.346C109.587 259.505 109.995 259.022 110.567 258.662C111.145 258.298 111.829 258.115 112.62 258.115C113.624 258.115 114.443 258.433 115.077 259.067C115.712 259.702 116.029 260.627 116.029 261.844V269.167H113.451V262.242C113.451 261.565 113.271 261.07 112.911 260.757C112.551 260.44 112.111 260.282 111.59 260.282C110.97 260.282 110.485 260.476 110.134 260.864C109.789 261.247 109.616 261.747 109.616 262.363V269.167H107.094V262.135C107.094 261.572 106.924 261.122 106.583 260.786C106.247 260.45 105.807 260.282 105.262 260.282C104.893 260.282 104.557 260.376 104.254 260.566C103.951 260.75 103.709 261.013 103.529 261.354C103.349 261.69 103.259 262.083 103.259 262.533V269.167H100.688ZM122.667 269.38C121.573 269.38 120.629 269.152 119.833 268.698C119.042 268.238 118.434 267.59 118.008 266.752C117.582 265.909 117.369 264.917 117.369 263.776C117.369 262.654 117.582 261.669 118.008 260.821C118.439 259.969 119.04 259.306 119.812 258.833C120.584 258.354 121.49 258.115 122.532 258.115C123.204 258.115 123.839 258.224 124.435 258.442C125.037 258.655 125.567 258.987 126.026 259.436C126.49 259.886 126.855 260.459 127.12 261.155C127.385 261.846 127.518 262.67 127.518 263.627V264.415H118.576V262.682H125.053C125.049 262.19 124.942 261.752 124.734 261.368C124.525 260.98 124.234 260.675 123.86 260.452C123.491 260.229 123.06 260.118 122.568 260.118C122.042 260.118 121.58 260.246 121.183 260.502C120.785 260.753 120.475 261.084 120.252 261.496C120.034 261.903 119.923 262.351 119.918 262.838V264.351C119.918 264.986 120.034 265.53 120.266 265.985C120.498 266.434 120.823 266.78 121.239 267.022C121.656 267.258 122.144 267.377 122.702 267.377C123.077 267.377 123.415 267.325 123.718 267.22C124.021 267.112 124.284 266.953 124.506 266.745C124.729 266.536 124.897 266.278 125.011 265.97L127.411 266.24C127.26 266.875 126.971 267.429 126.545 267.902C126.123 268.371 125.584 268.736 124.925 268.996C124.267 269.252 123.515 269.38 122.667 269.38ZM131.464 262.774V269.167H128.893V258.257H131.35V260.111H131.478C131.729 259.5 132.129 259.015 132.678 258.655C133.232 258.295 133.917 258.115 134.731 258.115C135.484 258.115 136.14 258.276 136.698 258.598C137.262 258.92 137.697 259.387 138.005 259.997C138.318 260.608 138.471 261.349 138.467 262.22V269.167H135.896V262.618C135.896 261.889 135.706 261.318 135.328 260.907C134.954 260.495 134.435 260.289 133.772 260.289C133.322 260.289 132.922 260.388 132.572 260.587C132.226 260.781 131.954 261.063 131.755 261.432C131.561 261.801 131.464 262.249 131.464 262.774ZM144.329 269.358C143.472 269.358 142.705 269.138 142.028 268.698C141.35 268.257 140.815 267.618 140.422 266.78C140.029 265.942 139.833 264.924 139.833 263.726C139.833 262.514 140.032 261.491 140.43 260.658C140.832 259.82 141.374 259.188 142.056 258.762C142.738 258.331 143.498 258.115 144.336 258.115C144.975 258.115 145.501 258.224 145.912 258.442C146.324 258.655 146.651 258.913 146.893 259.216C147.134 259.515 147.321 259.796 147.454 260.061H147.56V254.621H150.138V269.167H147.61V267.448H147.454C147.321 267.713 147.129 267.995 146.878 268.293C146.627 268.586 146.296 268.837 145.884 269.046C145.472 269.254 144.954 269.358 144.329 269.358ZM145.046 267.249C145.591 267.249 146.055 267.102 146.438 266.809C146.822 266.51 147.113 266.096 147.312 265.566C147.511 265.035 147.61 264.417 147.61 263.712C147.61 263.006 147.511 262.393 147.312 261.872C147.118 261.352 146.829 260.947 146.445 260.658C146.066 260.369 145.6 260.225 145.046 260.225C144.473 260.225 143.995 260.374 143.611 260.672C143.228 260.97 142.939 261.382 142.745 261.908C142.551 262.434 142.454 263.035 142.454 263.712C142.454 264.394 142.551 265.002 142.745 265.537C142.944 266.068 143.235 266.487 143.618 266.794C144.007 267.097 144.483 267.249 145.046 267.249ZM155.217 269.387C154.526 269.387 153.903 269.264 153.349 269.017C152.8 268.766 152.365 268.397 152.043 267.909C151.725 267.422 151.567 266.82 151.567 266.105C151.567 265.49 151.68 264.981 151.908 264.578C152.135 264.176 152.445 263.854 152.838 263.613C153.231 263.371 153.674 263.189 154.166 263.066C154.663 262.938 155.177 262.845 155.707 262.789C156.347 262.722 156.865 262.663 157.263 262.611C157.66 262.554 157.949 262.469 158.129 262.355C158.314 262.237 158.406 262.055 158.406 261.809V261.766C158.406 261.231 158.248 260.817 157.93 260.523C157.613 260.229 157.156 260.083 156.56 260.083C155.93 260.083 155.43 260.22 155.061 260.495C154.696 260.769 154.45 261.094 154.322 261.468L151.922 261.127C152.111 260.464 152.424 259.91 152.859 259.465C153.295 259.015 153.828 258.679 154.457 258.456C155.087 258.229 155.783 258.115 156.545 258.115C157.071 258.115 157.594 258.177 158.115 258.3C158.636 258.423 159.112 258.627 159.543 258.911C159.973 259.19 160.319 259.571 160.579 260.054C160.845 260.537 160.977 261.141 160.977 261.865V269.167H158.506V267.668H158.42C158.264 267.971 158.044 268.255 157.76 268.52C157.481 268.781 157.128 268.991 156.702 269.152C156.28 269.309 155.785 269.387 155.217 269.387ZM155.885 267.497C156.401 267.497 156.848 267.396 157.227 267.192C157.606 266.984 157.897 266.709 158.101 266.368C158.309 266.027 158.413 265.656 158.413 265.253V263.968C158.333 264.034 158.195 264.095 158.001 264.152C157.812 264.209 157.599 264.259 157.362 264.301C157.125 264.344 156.891 264.382 156.659 264.415C156.427 264.448 156.226 264.477 156.055 264.5C155.672 264.552 155.329 264.638 155.026 264.756C154.722 264.874 154.483 265.04 154.308 265.253C154.133 265.461 154.045 265.731 154.045 266.063C154.045 266.536 154.218 266.894 154.564 267.135C154.909 267.377 155.35 267.497 155.885 267.497ZM168.21 258.257V260.246H161.939V258.257H168.21ZM163.487 255.644H166.058V265.885C166.058 266.231 166.11 266.496 166.214 266.681C166.323 266.861 166.465 266.984 166.64 267.05C166.815 267.116 167.01 267.149 167.223 267.149C167.384 267.149 167.53 267.138 167.663 267.114C167.8 267.09 167.904 267.069 167.975 267.05L168.409 269.06C168.271 269.107 168.075 269.159 167.819 269.216C167.568 269.273 167.261 269.306 166.896 269.316C166.252 269.335 165.672 269.238 165.156 269.024C164.64 268.807 164.23 268.47 163.927 268.016C163.629 267.561 163.482 266.993 163.487 266.311V255.644ZM169.56 269.167V258.257H172.131V269.167H169.56ZM170.853 256.709C170.445 256.709 170.095 256.574 169.802 256.304C169.508 256.03 169.361 255.701 169.361 255.317C169.361 254.929 169.508 254.6 169.802 254.33C170.095 254.055 170.445 253.918 170.853 253.918C171.265 253.918 171.615 254.055 171.904 254.33C172.197 254.6 172.344 254.929 172.344 255.317C172.344 255.701 172.197 256.03 171.904 256.304C171.615 256.574 171.265 256.709 170.853 256.709ZM178.733 269.38C177.668 269.38 176.745 269.145 175.964 268.676C175.182 268.208 174.576 267.552 174.145 266.709C173.719 265.866 173.506 264.881 173.506 263.755C173.506 262.628 173.719 261.64 174.145 260.793C174.576 259.945 175.182 259.287 175.964 258.818C176.745 258.35 177.668 258.115 178.733 258.115C179.799 258.115 180.722 258.35 181.503 258.818C182.285 259.287 182.888 259.945 183.314 260.793C183.745 261.64 183.961 262.628 183.961 263.755C183.961 264.881 183.745 265.866 183.314 266.709C182.888 267.552 182.285 268.208 181.503 268.676C180.722 269.145 179.799 269.38 178.733 269.38ZM178.748 267.32C179.325 267.32 179.808 267.161 180.197 266.844C180.585 266.522 180.874 266.091 181.063 265.551C181.257 265.012 181.354 264.41 181.354 263.747C181.354 263.08 181.257 262.476 181.063 261.936C180.874 261.392 180.585 260.959 180.197 260.637C179.808 260.315 179.325 260.154 178.748 260.154C178.156 260.154 177.663 260.315 177.27 260.637C176.882 260.959 176.591 261.392 176.397 261.936C176.207 262.476 176.113 263.08 176.113 263.747C176.113 264.41 176.207 265.012 176.397 265.551C176.591 266.091 176.882 266.522 177.27 266.844C177.663 267.161 178.156 267.32 178.748 267.32ZM187.914 262.774V269.167H185.343V258.257H187.8V260.111H187.928C188.179 259.5 188.579 259.015 189.128 258.655C189.682 258.295 190.367 258.115 191.181 258.115C191.934 258.115 192.59 258.276 193.148 258.598C193.712 258.92 194.147 259.387 194.455 259.997C194.768 260.608 194.922 261.349 194.917 262.22V269.167H192.346V262.618C192.346 261.889 192.156 261.318 191.778 260.907C191.404 260.495 190.885 260.289 190.222 260.289C189.772 260.289 189.372 260.388 189.022 260.587C188.676 260.781 188.404 261.063 188.205 261.432C188.011 261.801 187.914 262.249 187.914 262.774ZM203.462 254.621V269.167H200.891V254.621H203.462ZM210.136 269.38C209.042 269.38 208.097 269.152 207.302 268.698C206.511 268.238 205.903 267.59 205.477 266.752C205.05 265.909 204.837 264.917 204.837 263.776C204.837 262.654 205.05 261.669 205.477 260.821C205.908 259.969 206.509 259.306 207.281 258.833C208.052 258.354 208.959 258.115 210.001 258.115C210.673 258.115 211.308 258.224 211.904 258.442C212.506 258.655 213.036 258.987 213.495 259.436C213.959 259.886 214.324 260.459 214.589 261.155C214.854 261.846 214.987 262.67 214.987 263.627V264.415H206.045V262.682H212.522C212.517 262.19 212.411 261.752 212.202 261.368C211.994 260.98 211.703 260.675 211.329 260.452C210.96 260.229 210.529 260.118 210.036 260.118C209.511 260.118 209.049 260.246 208.651 260.502C208.254 260.753 207.943 261.084 207.721 261.496C207.503 261.903 207.392 262.351 207.387 262.838V264.351C207.387 264.986 207.503 265.53 207.735 265.985C207.967 266.434 208.291 266.78 208.708 267.022C209.125 267.258 209.613 267.377 210.171 267.377C210.545 267.377 210.884 267.325 211.187 267.22C211.49 267.112 211.753 266.953 211.975 266.745C212.198 266.536 212.366 266.278 212.479 265.97L214.88 266.24C214.729 266.875 214.44 267.429 214.014 267.902C213.592 268.371 213.052 268.736 212.394 268.996C211.736 269.252 210.983 269.38 210.136 269.38ZM221.809 258.257V260.246H215.538V258.257H221.809ZM217.086 255.644H219.657V265.885C219.657 266.231 219.709 266.496 219.813 266.681C219.922 266.861 220.064 266.984 220.239 267.05C220.415 267.116 220.609 267.149 220.822 267.149C220.983 267.149 221.13 267.138 221.262 267.114C221.4 267.09 221.504 267.069 221.575 267.05L222.008 269.06C221.871 269.107 221.674 269.159 221.418 269.216C221.168 269.273 220.86 269.306 220.495 269.316C219.851 269.335 219.271 269.238 218.755 269.024C218.239 268.807 217.829 268.47 217.526 268.016C217.228 267.561 217.081 266.993 217.086 266.311V255.644ZM228.607 258.257V260.246H222.335V258.257H228.607ZM223.884 255.644H226.455V265.885C226.455 266.231 226.507 266.496 226.611 266.681C226.72 266.861 226.862 266.984 227.037 267.05C227.212 267.116 227.406 267.149 227.62 267.149C227.781 267.149 227.927 267.138 228.06 267.114C228.197 267.09 228.301 267.069 228.372 267.05L228.806 269.06C228.668 269.107 228.472 269.159 228.216 269.216C227.965 269.273 227.657 269.306 227.293 269.316C226.649 269.335 226.069 269.238 225.553 269.024C225.037 268.807 224.627 268.47 224.324 268.016C224.026 267.561 223.879 266.993 223.884 266.311V255.644ZM234.669 269.38C233.576 269.38 232.631 269.152 231.836 268.698C231.045 268.238 230.436 267.59 230.01 266.752C229.584 265.909 229.371 264.917 229.371 263.776C229.371 262.654 229.584 261.669 230.01 260.821C230.441 259.969 231.042 259.306 231.814 258.833C232.586 258.354 233.493 258.115 234.534 258.115C235.207 258.115 235.841 258.224 236.438 258.442C237.039 258.655 237.569 258.987 238.029 259.436C238.493 259.886 238.857 260.459 239.122 261.155C239.388 261.846 239.52 262.67 239.52 263.627V264.415H230.578V262.682H237.056C237.051 262.19 236.944 261.752 236.736 261.368C236.528 260.98 236.237 260.675 235.863 260.452C235.493 260.229 235.062 260.118 234.57 260.118C234.044 260.118 233.583 260.246 233.185 260.502C232.787 260.753 232.477 261.084 232.255 261.496C232.037 261.903 231.925 262.351 231.921 262.838V264.351C231.921 264.986 232.037 265.53 232.269 265.985C232.501 266.434 232.825 266.78 233.242 267.022C233.658 267.258 234.146 267.377 234.705 267.377C235.079 267.377 235.417 267.325 235.72 267.22C236.023 267.112 236.286 266.953 236.509 266.745C236.731 266.536 236.899 266.278 237.013 265.97L239.414 266.24C239.262 266.875 238.973 267.429 238.547 267.902C238.126 268.371 237.586 268.736 236.928 268.996C236.27 269.252 235.517 269.38 234.669 269.38ZM240.895 269.167V258.257H243.388V260.076H243.502C243.701 259.446 244.042 258.961 244.525 258.62C245.012 258.274 245.569 258.101 246.194 258.101C246.336 258.101 246.494 258.108 246.669 258.122C246.849 258.132 246.998 258.149 247.117 258.172V260.537C247.008 260.499 246.835 260.466 246.598 260.438C246.366 260.405 246.141 260.388 245.924 260.388C245.455 260.388 245.033 260.49 244.659 260.693C244.29 260.892 243.999 261.169 243.786 261.524C243.573 261.88 243.466 262.289 243.466 262.753V269.167H240.895Z" fill="#AAAAAA"/>
<path d="M263 262.167H277" stroke="#C4C4C4" stroke-width="2" stroke-linecap="round" stroke-linejoin="round"/>
<path d="M270 255.167L277.5 262.167L270 269.167" stroke="#C4C4C4" stroke-width="2" stroke-linecap="round" stroke-linejoin="round"/>
</g>
</g>
</g>
<defs>
<filter id="filter0_i_219_562" x="0" y="0" width="320" height="320" filterUnits="userSpaceOnUse" color-interpolation-filters="sRGB">
<feFlood flood-opacity="0" result="BackgroundImageFix"/>
<feBlend mode="normal" in="SourceGraphic" in2="BackgroundImageFix" result="shape"/>
<feColorMatrix in="SourceAlpha" type="matrix" values="0 0 0 0 0 0 0 0 0 0 0 0 0 0 0 0 0 0 127 0" result="hardAlpha"/>
<feOffset/>
<feGaussianBlur stdDeviation="6"/>
<feComposite in2="hardAlpha" operator="arithmetic" k2="-1" k3="1"/>
<feColorMatrix type="matrix" values="0 0 0 0 0.972549 0 0 0 0 0.972549 0 0 0 0 0.972549 0 0 0 1 0"/>
<feBlend mode="normal" in2="shape" result="effect1_innerShadow_219_562"/>
</filter>
<filter id="filter1_b_219_562" x="-13" y="-12" width="345" height="341" filterUnits="userSpaceOnUse" color-interpolation-filters="sRGB">
<feFlood flood-opacity="0" result="BackgroundImageFix"/>
<feGaussianBlur in="BackgroundImageFix" stdDeviation="6"/>
<feComposite in2="SourceAlpha" operator="in" result="effect1_backgroundBlur_219_562"/>
<feBlend mode="normal" in="SourceGraphic" in2="effect1_backgroundBlur_219_562" result="shape"/>
</filter>
<linearGradient id="paint0_linear_219_562" x1="262" y1="215" x2="261.891" y2="362" gradientUnits="userSpaceOnUse">
<stop stop-color="#F8F8F8" stop-opacity="0"/>
<stop offset="1" stop-color="#F8F8F8"/>
</linearGradient>
<clipPath id="clip0_219_562">
<rect width="320" height="320" rx="24" fill="white"/>
</clipPath>
<clipPath id="clip1_219_562">
<path d="M1.35925 294.874C0.533433 281.411 0.120527 274.68 2.42508 269.377C4.45223 264.713 7.90399 260.81 12.2857 258.228C17.2669 255.292 23.9982 254.879 37.4607 254.054L325.916 236.359C339.378 235.533 346.11 235.121 351.412 237.425C356.077 239.452 359.98 242.904 362.562 247.286C365.497 252.267 365.91 258.998 366.736 272.461L380.301 493.61C381.127 507.072 381.54 513.803 379.236 519.106C377.208 523.77 373.757 527.673 369.375 530.255C364.394 533.191 357.663 533.604 344.2 534.43L55.7448 552.124C42.2824 552.95 35.5511 553.363 30.2484 551.058C25.584 549.031 21.6811 545.579 19.099 541.198C16.1636 536.216 15.7507 529.485 14.9249 516.022L1.35925 294.874Z" fill="white"/>
</clipPath>
<clipPath id="clip2_219_562">
<path d="M76.2633 252.053C76.8071 238.576 77.079 231.838 79.9095 226.796C82.3992 222.361 86.229 218.829 90.85 216.704C96.1033 214.289 102.842 214.561 116.319 215.105L405.081 226.757C418.558 227.301 425.296 227.573 430.338 230.403C434.773 232.893 438.305 236.723 440.43 241.344C442.845 246.597 442.573 253.335 442.029 266.812L433.096 488.197C432.552 501.673 432.28 508.412 429.45 513.454C426.96 517.888 423.13 521.421 418.509 523.545C413.256 525.96 406.517 525.688 393.04 525.145L104.278 513.493C90.8013 512.949 84.0629 512.677 79.0212 509.846C74.5865 507.357 71.0538 503.527 68.9294 498.906C66.5144 493.653 66.7863 486.914 67.3301 473.437L76.2633 252.053Z" fill="white"/>
</clipPath>
<clipPath id="clip3_219_562">
<path d="M164.809 230.982C167.08 217.687 168.216 211.04 171.671 206.404C174.711 202.326 178.963 199.315 183.818 197.802C189.339 196.083 195.986 197.218 209.281 199.49L494.15 248.166C507.445 250.438 514.093 251.574 518.728 255.029C522.806 258.068 525.817 262.321 527.33 267.176C529.05 272.696 527.914 279.344 525.642 292.639L488.324 511.038C486.052 524.333 484.916 530.981 481.461 535.617C478.422 539.695 474.17 542.706 469.314 544.219C463.794 545.938 457.146 544.802 443.851 542.531L158.982 493.854C145.687 491.583 139.04 490.447 134.404 486.992C130.326 483.952 127.315 479.7 125.802 474.845C124.083 469.324 125.218 462.677 127.49 449.382L164.809 230.982Z" fill="white"/>
</clipPath>
</defs>
</svg>
