<svg width="24" height="24" viewBox="0 0 24 24" fill="none" xmlns="http://www.w3.org/2000/svg">
<rect width="24" height="24" rx="6.66667" fill="black"/>
<path d="M4.66663 12C4.66663 7.94988 7.94987 4.66663 12 4.66663C16.05 4.66663 19.3333 7.94987 19.3333 12V17.4186C19.3333 18.476 18.476 19.3333 17.4186 19.3333H6.58134C5.52387 19.3333 4.66663 18.476 4.66663 17.4186V12Z" fill="#1598B5"/>
<path d="M6.66663 12C6.66663 9.05444 9.05444 6.66663 12 6.66663C14.9455 6.66663 17.3333 9.05444 17.3333 12V19.3333H6.66663V12Z" fill="black"/>
<path d="M8.66663 12.6667C8.66663 10.8258 10.159 9.33337 12 9.33337C13.8409 9.33337 15.3333 10.8258 15.3333 12.6667V17.6653C15.3333 18.5866 14.5865 19.3334 13.6652 19.3334H10.3347C9.41344 19.3334 8.66663 18.5866 8.66663 17.6653V12.6667Z" fill="white"/>
</svg>
