<svg width="139" height="79" viewBox="0 0 139 79" fill="none" xmlns="http://www.w3.org/2000/svg">
<rect x="0.0426941" y="17.2213" width="62.4" height="33.6" rx="16.8" transform="rotate(-16.0206 0.0426941 17.2213)" fill="#F5F5F5"/>
<path d="M13.5992 24.3479L16.0352 23.6485L24.8385 31.628L24.8754 31.6174L22.0882 21.9104L24.2843 21.2799L28.0677 34.4562L25.6317 35.1557L16.8521 27.1893L16.7968 27.2052L19.5787 36.8937L17.3826 37.5243L13.5992 24.3479ZM26.2714 20.7093L35.7569 17.9857L36.3292 19.9787L29.1505 22.04L30.1414 25.4909L36.7849 23.5833L37.3254 25.4657L30.6819 27.3733L31.7893 31.2302L39.0972 29.1319L39.6695 31.1249L30.0548 33.8857L26.2714 20.7093ZM35.8655 17.9545L38.2092 17.2815L43.483 26.674L43.5199 26.6634L43.2841 15.8243L45.6463 15.1461L51.1231 24.4803L51.16 24.4697L50.7212 13.6889L53.0649 13.0159L53.2128 27.2362L50.8691 27.9092L45.337 18.5908L45.3001 18.6014L45.4989 29.4511L43.1183 30.1347L35.8655 17.9545Z" fill="currentColor"/>
<rect x="60.3596" y="28.314" width="80.4" height="33.6" rx="16.8" transform="rotate(12.1546 60.3596 28.314)" fill="#F5F5F5"/>
<path d="M69.0387 41.0173L78.2921 43.0103L77.8555 45.0374L70.9483 43.5497L70.1923 47.0596L76.2549 48.3654L75.8426 50.2799L69.78 48.9741L68.4985 54.9241L66.1523 54.4188L69.0387 41.0173ZM79.414 43.2519L85.8145 44.6304C87.291 44.9484 88.3297 45.506 88.9305 46.3032C89.5313 47.1004 89.7091 48.0683 89.4639 49.207C89.3264 49.8452 89.118 50.3568 88.8387 50.7418C88.5621 51.1143 88.2703 51.405 87.9635 51.6139C87.6593 51.8102 87.37 51.9378 87.0955 51.9965C86.8335 52.0579 86.6421 52.0952 86.5214 52.1085L86.5133 52.1461C86.7081 52.2142 86.9074 52.3226 87.1111 52.4712C87.3272 52.6225 87.5112 52.8323 87.6629 53.1007C87.8173 53.3565 87.9193 53.6731 87.969 54.0504C88.0312 54.4304 88.0057 54.8832 87.8925 55.4088C87.7227 56.1971 87.624 56.9287 87.5965 57.6037C87.5842 58.2688 87.6735 58.7659 87.8645 59.0951L85.3494 58.5534C85.2362 58.2279 85.1985 57.8859 85.2364 57.5274C85.2869 57.1717 85.3471 56.8311 85.4172 56.5058C85.5493 55.8927 85.6249 55.359 85.6442 54.9049C85.6661 54.4383 85.608 54.0395 85.4697 53.7086C85.3342 53.3651 85.1061 53.0868 84.7854 52.8737C84.4772 52.6633 84.054 52.5002 83.516 52.3843L80.0624 51.6405L78.8738 57.1587L76.5276 56.6534L79.414 43.2519ZM80.4464 49.8574L84.2942 50.6861C85.045 50.8478 85.652 50.7952 86.1154 50.5284C86.5815 50.2491 86.8913 49.7528 87.0449 49.0395C87.1365 48.6141 87.1481 48.2565 87.0796 47.9668C87.0137 47.6645 86.8843 47.4141 86.6915 47.2154C86.5111 47.0195 86.2824 46.8654 86.0054 46.7534C85.7408 46.6441 85.4584 46.5571 85.1581 46.4924L81.3479 45.6717L80.4464 49.8574ZM91.879 45.9366L101.527 48.0145L101.09 50.0416L93.7886 48.469L93.0326 51.9789L99.7896 53.4343L99.3773 55.3488L92.6203 53.8934L91.7754 57.8163L99.2081 59.4171L98.7715 61.4443L88.9926 59.3381L91.879 45.9366ZM102.566 57.587C102.455 58.1001 102.448 58.5569 102.545 58.9575C102.642 59.3581 102.822 59.711 103.083 60.0161C103.348 60.3087 103.668 60.5545 104.044 60.7533C104.436 60.9424 104.869 61.0881 105.344 61.1905C105.857 61.301 106.308 61.339 106.695 61.3045C107.085 61.2576 107.412 61.1645 107.678 61.0253C107.944 60.8861 108.152 60.7084 108.303 60.4922C108.457 60.2635 108.561 60.0241 108.615 59.7738C108.726 59.2608 108.688 58.8598 108.501 58.5708C108.33 58.272 108.117 58.043 107.864 57.8836C107.426 57.606 106.904 57.3234 106.298 57.0358C105.708 56.7383 104.976 56.3648 104.104 55.9151C103.561 55.641 103.121 55.3433 102.784 55.022C102.463 54.6908 102.222 54.3509 102.061 54.0021C101.901 53.6532 101.807 53.2991 101.779 52.9397C101.765 52.583 101.795 52.2294 101.87 51.8791C102.016 51.2034 102.279 50.6512 102.659 50.2224C103.055 49.7839 103.519 49.4518 104.052 49.2262C104.585 49.0006 105.162 48.876 105.782 48.8525C106.406 48.8165 107.017 48.8632 107.618 48.9926C108.319 49.1435 108.956 49.3788 109.528 49.6986C110.116 50.0085 110.603 50.3948 110.987 50.8574C111.385 51.3227 111.663 51.854 111.822 52.4513C111.985 53.0362 111.99 53.679 111.839 54.3797L109.493 53.8744C109.616 52.9975 109.453 52.3273 109.003 51.8637C108.556 51.3877 107.925 51.062 107.112 50.8869C106.837 50.8276 106.548 50.7982 106.247 50.7988C105.948 50.7869 105.665 50.8241 105.398 50.9105C105.133 50.9845 104.895 51.1165 104.684 51.3067C104.486 51.4996 104.35 51.765 104.277 52.1029C104.175 52.5783 104.238 52.9847 104.466 53.322C104.71 53.6495 105.055 53.9332 105.501 54.1733C105.548 54.1966 105.73 54.2946 106.046 54.4675C106.378 54.6306 106.744 54.8142 107.145 55.0185C107.546 55.2227 107.935 55.4243 108.311 55.6231C108.703 55.8122 108.98 55.9506 109.145 56.0384C109.553 56.2703 109.894 56.5402 110.168 56.8481C110.443 57.1559 110.652 57.4891 110.798 57.8477C110.958 58.1966 111.051 58.5569 111.076 58.9289C111.113 59.3035 111.094 59.666 111.018 60.0163C110.856 60.7671 110.561 61.3779 110.132 61.8486C109.719 62.3094 109.226 62.6549 108.652 62.8849C108.079 63.115 107.457 63.2364 106.787 63.2491C106.113 63.2743 105.445 63.2155 104.782 63.0727C104.019 62.9083 103.319 62.6594 102.684 62.3262C102.049 61.993 101.523 61.5785 101.106 61.0828C100.689 60.5871 100.395 60.0066 100.224 59.3413C100.056 58.6635 100.054 57.9103 100.219 57.0817L102.566 57.587ZM114.315 50.7687L116.661 51.2741L115.513 56.6046L121.613 57.9185L122.761 52.5879L125.107 53.0932L122.221 66.4947L119.875 65.9894L121.176 59.9456L115.076 58.6317L113.774 64.6756L111.428 64.1702L114.315 50.7687Z" fill="currentColor"/>
</svg>
